<svg width="500" height="500" viewBox="0 0 500 500" fill="none" xmlns="http://www.w3.org/2000/svg">
<path d="M386.46 121.47C383.174 114.951 379.549 108.609 375.6 102.47C329.49 32.1699 206 -6.11005 144.8 66.5699C130.22 83.8999 125.13 104.83 115.32 124.7C92.9901 169.88 51.3201 196.89 25.1201 238.7C4.84005 271.14 7.55005 312.7 18.8601 347.77C31.1501 385.87 52.7801 412.48 87.3801 432.7C126.16 455.38 167.65 449.08 209.57 441.19C228.43 437.65 247.87 434.02 267.15 435.38C291.29 437.07 315.15 443.91 339.06 447.23C363.97 450.68 389.81 451.5 413.8 443.97C490.63 419.87 508.8 306.97 477.24 242.24C466.05 219.34 447.1 201.67 429.5 183.75C410.5 164.43 398.85 145.49 386.46 121.47Z" fill="#FF7400"/>
<path opacity="0.8" d="M386.46 121.47C383.174 114.951 379.549 108.609 375.6 102.47C329.49 32.1699 206 -6.11005 144.8 66.5699C130.22 83.8999 125.13 104.83 115.32 124.7C92.9901 169.88 51.3201 196.89 25.1201 238.7C4.84005 271.14 7.55005 312.7 18.8601 347.77C31.1501 385.87 52.7801 412.48 87.3801 432.7C126.16 455.38 167.65 449.08 209.57 441.19C228.43 437.65 247.87 434.02 267.15 435.38C291.29 437.07 315.15 443.91 339.06 447.23C363.97 450.68 389.81 451.5 413.8 443.97C490.63 419.87 508.8 306.97 477.24 242.24C466.05 219.34 447.1 201.67 429.5 183.75C410.5 164.43 398.85 145.49 386.46 121.47Z" fill="white"/>
<g opacity="0.3">
<path d="M399.1 63L397.31 64.79L379.07 83L360.82 64.76L359 63C356.953 60.9598 355.651 58.2902 355.305 55.4208C354.958 52.5514 355.587 49.6488 357.09 47.18C356.474 49.2721 356.436 51.4917 356.978 53.6041C357.52 55.7164 358.623 57.643 360.17 59.18L361.86 60.88L379.07 78L396.24 60.82L397.93 59.12C399.477 57.583 400.58 55.6564 401.122 53.5441C401.664 51.4317 401.626 49.2121 401.01 47.12C402.528 49.5948 403.165 52.5099 402.819 55.3924C402.472 58.2749 401.162 60.9557 399.1 63Z" stroke="black" stroke-miterlimit="10"/>
<path d="M397.93 59.11L396.24 60.81L379.07 78L361.89 60.81L360.2 59.11C358.653 57.573 357.55 55.6464 357.008 53.534C356.466 51.4217 356.504 49.2021 357.12 47.11C357.685 45.1387 358.745 43.3449 360.2 41.9C361.327 40.7712 362.665 39.8758 364.138 39.2648C365.611 38.6538 367.19 38.3394 368.785 38.3394C370.38 38.3394 371.959 38.6538 373.432 39.2648C374.905 39.8758 376.243 40.7712 377.37 41.9L379.07 43.59L380.76 41.9C381.887 40.7726 383.226 39.8783 384.699 39.2681C386.172 38.658 387.751 38.3439 389.345 38.3439C390.939 38.3439 392.518 38.658 393.991 39.2681C395.464 39.8783 396.803 40.7726 397.93 41.9C399.057 43.0274 399.952 44.3658 400.562 45.8388C401.172 47.3118 401.486 48.8906 401.486 50.485C401.486 52.0793 401.172 53.6581 400.562 55.1311C399.952 56.6041 399.057 57.9426 397.93 59.07V59.11Z" fill="white" stroke="black" stroke-miterlimit="10"/>
<path d="M399.1 62.9999C401.153 60.9564 402.457 58.2807 402.802 55.4047C403.146 52.5288 402.512 49.6207 401 47.1499C401.616 49.242 401.655 51.4616 401.112 53.574C400.57 55.6863 399.467 57.6129 397.92 59.1499L396.23 60.8499L379.07 77.9999V82.9999L397.31 64.7499L399.1 62.9999Z" fill="black"/>
</g>
<g opacity="0.3">
<path d="M82.66 174.85L80.87 176.65L62.62 194.9L44.38 176.65L42.58 174.85C40.5272 172.806 39.2232 170.131 38.8784 167.255C38.5337 164.379 39.1684 161.471 40.68 159C40.0653 161.091 40.026 163.31 40.5663 165.422C41.1066 167.534 42.2064 169.461 43.75 171L45.44 172.69L62.62 189.88L79.8 172.69L81.49 171C83.0353 169.462 84.1371 167.535 84.6791 165.423C85.2212 163.311 85.1835 161.092 84.57 159C86.0804 161.472 86.7134 164.381 86.3669 167.257C86.0203 170.133 84.7144 172.808 82.66 174.85Z" stroke="black" stroke-miterlimit="10"/>
<path d="M81.49 171L79.8 172.69L62.62 189.88L45.44 172.69L43.75 171C41.538 168.708 40.3144 165.64 40.3426 162.455C40.3708 159.27 41.6486 156.223 43.9008 153.971C46.153 151.719 49.1996 150.441 52.3846 150.413C55.5696 150.384 58.6383 151.608 60.93 153.82L62.62 155.51L64.31 153.82C66.6018 151.608 69.6705 150.384 72.8554 150.413C76.0404 150.441 79.087 151.719 81.3392 153.971C83.5914 156.223 84.8692 159.27 84.8974 162.455C84.9256 165.64 83.702 168.708 81.49 171Z" fill="white" stroke="black" stroke-miterlimit="10"/>
<path d="M82.66 174.85C84.7143 172.808 86.0203 170.133 86.3668 167.257C86.7134 164.381 86.0804 161.472 84.57 159C85.1835 161.092 85.2212 163.311 84.6791 165.423C84.1371 167.535 83.0353 169.462 81.49 171L79.8 172.69L62.62 189.88V194.88L80.87 176.63L82.66 174.85Z" fill="black"/>
</g>
<g opacity="0.3">
<path d="M455.05 174.85L453.25 176.65L435 194.9L416.75 176.65L414.96 174.85C412.907 172.806 411.603 170.131 411.258 167.255C410.914 164.379 411.548 161.471 413.06 159C412.447 161.092 412.409 163.311 412.951 165.423C413.493 167.535 414.595 169.462 416.14 171L417.83 172.69L435 189.88L452.18 172.69L453.87 171C455.424 169.467 456.535 167.543 457.086 165.431C457.637 163.318 457.607 161.097 457 159C458.505 161.476 459.132 164.387 458.778 167.264C458.424 170.14 457.111 172.813 455.05 174.85Z" stroke="black" stroke-miterlimit="10"/>
<path d="M453.88 171L452.19 172.69L435 189.88L417.82 172.69L416.14 171C413.928 168.708 412.704 165.64 412.733 162.455C412.761 159.27 414.039 156.223 416.291 153.971C418.543 151.719 421.59 150.441 424.775 150.413C427.96 150.384 431.028 151.608 433.32 153.82L435.01 155.51L436.7 153.82C438.992 151.608 442.06 150.384 445.245 150.413C448.43 150.441 451.477 151.719 453.729 153.971C455.981 156.223 457.259 159.27 457.287 162.455C457.316 165.64 456.092 168.708 453.88 171Z" fill="white" stroke="black" stroke-miterlimit="10"/>
<path d="M455.05 174.85C457.111 172.813 458.424 170.14 458.778 167.264C459.132 164.387 458.505 161.476 457 159C457.615 161.091 457.654 163.31 457.114 165.422C456.573 167.534 455.474 169.461 453.93 171L452.24 172.69L435 189.88V194.88L453.24 176.63L455.05 174.85Z" fill="black"/>
</g>
<g opacity="0.3">
<path d="M182.53 63L180.74 64.79L162.5 83L144.25 64.76L142.46 63C140.413 60.9598 139.111 58.2902 138.765 55.4208C138.418 52.5514 139.047 49.6488 140.55 47.18C139.934 49.2721 139.896 51.4917 140.438 53.6041C140.98 55.7164 142.083 57.643 143.63 59.18L145.32 60.88L162.5 78L179.67 60.82L181.36 59.12C182.907 57.583 184.01 55.6564 184.552 53.5441C185.094 51.4317 185.056 49.2121 184.44 47.12C185.958 49.5948 186.595 52.5099 186.249 55.3924C185.902 58.2749 184.592 60.9557 182.53 63Z" stroke="black" stroke-miterlimit="10"/>
<path d="M181.36 59.11L179.67 60.81L162.5 78L145.32 60.81L143.63 59.11C142.083 57.573 140.98 55.6464 140.438 53.534C139.896 51.4217 139.934 49.2021 140.55 47.11C141.115 45.1387 142.175 43.3449 143.63 41.9C144.757 40.7712 146.095 39.8758 147.568 39.2648C149.041 38.6538 150.62 38.3394 152.215 38.3394C153.81 38.3394 155.389 38.6538 156.862 39.2648C158.335 39.8758 159.673 40.7712 160.8 41.9L162.5 43.59L164.19 41.9C165.317 40.7726 166.656 39.8783 168.129 39.2681C169.602 38.658 171.181 38.3439 172.775 38.3439C174.369 38.3439 175.948 38.658 177.421 39.2681C178.894 39.8783 180.233 40.7726 181.36 41.9C182.487 43.0274 183.382 44.3658 183.992 45.8388C184.602 47.3118 184.916 48.8906 184.916 50.485C184.916 52.0793 184.602 53.6581 183.992 55.1311C183.382 56.6041 182.487 57.9426 181.36 59.07V59.11Z" stroke="black" stroke-miterlimit="10"/>
<path d="M182.53 62.9999C184.577 60.9597 185.879 58.2902 186.225 55.4208C186.572 52.5513 185.943 49.6488 184.44 47.1799C185.056 49.272 185.094 51.4917 184.552 53.604C184.01 55.7164 182.907 57.6429 181.36 59.1799L179.67 60.8799L162.5 77.9999V82.9999L180.74 64.7499L182.53 62.9999Z" fill="black"/>
</g>
<g opacity="0.3">
<path d="M439.08 402.46L437.29 404.25L419 422.51L400.8 404.25L399 402.46C396.957 400.419 395.659 397.751 395.314 394.884C394.97 392.017 395.598 389.117 397.1 386.65C396.485 388.741 396.446 390.96 396.986 393.072C397.527 395.184 398.626 397.111 400.17 398.65L401.86 400.34L419 417.48L436.18 400.3L437.87 398.61C439.415 397.072 440.517 395.145 441.059 393.033C441.601 390.921 441.564 388.702 440.95 386.61C442.462 389.079 443.1 391.984 442.76 394.859C442.421 397.734 441.125 400.411 439.08 402.46Z" stroke="black" stroke-miterlimit="10"/>
<path d="M437.91 398.61L436.22 400.3L419 417.48L401.86 400.3L400.17 398.61C399.009 397.489 398.083 396.149 397.446 394.666C396.808 393.184 396.473 391.589 396.458 389.975C396.444 388.362 396.751 386.761 397.362 385.268C397.973 383.774 398.876 382.417 400.017 381.276C401.158 380.135 402.514 379.233 404.008 378.622C405.502 378.011 407.102 377.704 408.716 377.718C410.329 377.733 411.924 378.068 413.406 378.705C414.889 379.343 416.229 380.269 417.35 381.43L419.04 383.12L420.73 381.43C423.022 379.218 426.091 377.994 429.276 378.023C432.46 378.051 435.507 379.329 437.759 381.581C440.011 383.833 441.289 386.879 441.317 390.064C441.346 393.249 440.122 396.318 437.91 398.61Z" stroke="black" stroke-miterlimit="10"/>
<path d="M439.08 402.46C441.123 400.42 442.423 397.753 442.771 394.887C443.119 392.02 442.496 389.12 441 386.65C441.613 388.742 441.651 390.961 441.109 393.073C440.567 395.185 439.465 397.112 437.92 398.65L436.23 400.34L419 417.48V422.48L437.25 404.22L439.08 402.46Z" fill="black"/>
</g>
<g opacity="0.3">
<path d="M114.16 402.46L112.37 404.25L94.12 422.51L75.88 404.25L74.08 402.46C72.0367 400.419 70.7386 397.751 70.394 394.884C70.0495 392.017 70.6784 389.117 72.18 386.65C71.5631 388.741 71.5227 390.96 72.0631 393.073C72.6035 395.185 73.7046 397.112 75.25 398.65L76.94 400.34L94.12 417.52L111.3 400.3L112.99 398.61C114.535 397.072 115.637 395.145 116.179 393.033C116.721 390.921 116.683 388.702 116.07 386.61C117.577 389.083 118.208 391.991 117.861 394.866C117.515 397.741 116.211 400.416 114.16 402.46Z" stroke="black" stroke-miterlimit="10"/>
<path d="M113 398.61L111.31 400.3L94.12 417.48L76.94 400.3L75.25 398.61C74.0889 397.489 73.1627 396.149 72.5255 394.666C71.8882 393.184 71.5526 391.589 71.5383 389.975C71.524 388.362 71.8313 386.761 72.4422 385.268C73.0532 383.774 73.9555 382.417 75.0965 381.276C76.2375 380.135 77.5944 379.233 79.088 378.622C80.5815 378.011 82.1818 377.704 83.7954 377.718C85.409 377.733 87.0036 378.068 88.4861 378.705C89.9686 379.343 91.3093 380.269 92.43 381.43L94.12 383.12L95.81 381.43C98.0882 379.15 101.179 377.869 104.401 377.868C107.624 377.867 110.715 379.147 112.995 381.425C115.275 383.703 116.556 386.794 116.557 390.016C116.558 393.239 115.278 396.33 113 398.61Z" stroke="black" stroke-miterlimit="10"/>
<path d="M114.16 402.46C116.202 400.418 117.5 397.751 117.846 394.885C118.192 392.018 117.567 389.119 116.07 386.65C116.683 388.742 116.721 390.961 116.179 393.073C115.637 395.185 114.535 397.112 112.99 398.65L111.3 400.34L94.12 417.48V422.48L112.37 404.22L114.16 402.46Z" fill="black"/>
</g>
<path d="M245.56 389.21C358.519 389.21 450.09 348.477 450.09 298.23C450.09 247.983 358.519 207.25 245.56 207.25C132.601 207.25 41.0299 247.983 41.0299 298.23C41.0299 348.477 132.601 389.21 245.56 389.21Z" fill="#263238" stroke="#263238" stroke-linecap="round" stroke-linejoin="round"/>
<path d="M460.44 281.67C460.44 337.05 364.29 381.94 245.69 381.94C238.45 381.94 231.3 381.773 224.24 381.44C204.415 380.565 184.676 378.296 165.17 374.65C86.4599 359.78 30.9399 323.75 30.9399 281.65C30.9399 280.3 30.9999 278.97 31.1099 277.65C35.6199 224.14 130 181.4 245.69 181.4C361.38 181.4 455.76 224.14 460.27 277.65C460.38 279 460.44 280.32 460.44 281.67Z" fill="white" stroke="#263238" stroke-linecap="round" stroke-linejoin="round"/>
<path d="M245.69 373.89C364.293 373.89 460.44 328.998 460.44 273.62C460.44 218.242 364.293 173.35 245.69 173.35C127.087 173.35 30.9399 218.242 30.9399 273.62C30.9399 328.998 127.087 373.89 245.69 373.89Z" fill="white" stroke="#263238" stroke-linecap="round" stroke-linejoin="round"/>
<path d="M245.69 349.35C340.053 349.35 416.55 313.631 416.55 269.57C416.55 225.509 340.053 189.79 245.69 189.79C151.327 189.79 74.83 225.509 74.83 269.57C74.83 313.631 151.327 349.35 245.69 349.35Z" fill="white" stroke="#263238" stroke-linecap="round" stroke-linejoin="round"/>
<path d="M230.57 290.48C280.557 290.48 321.08 272.043 321.08 249.3C321.08 226.557 280.557 208.12 230.57 208.12C180.583 208.12 140.06 226.557 140.06 249.3C140.06 272.043 180.583 290.48 230.57 290.48Z" fill="#263238" stroke="#263238" stroke-linecap="round" stroke-linejoin="round"/>
<path d="M327.76 98.14C309.198 83.0976 286.022 74.9051 262.13 74.94C257.784 74.9389 253.443 75.2061 249.13 75.74C239.999 76.883 231.06 79.237 222.55 82.74L220.99 83.4C220.42 83.64 219.85 83.9 219.28 84.15C216.213 85.5433 213.213 87.07 210.28 88.73L204.46 92.32C204.01 92.62 203.55 92.92 203.11 93.23C185.012 105.629 171.28 123.415 163.864 144.062C156.448 164.709 155.726 187.168 161.8 208.249C167.874 229.33 180.435 247.961 197.699 261.498C214.963 275.034 236.054 282.787 257.975 283.656C279.896 284.525 301.534 278.466 319.816 266.338C338.097 254.211 352.094 236.632 359.817 216.098C367.54 195.564 368.598 173.119 362.84 151.949C357.082 130.78 344.8 111.963 327.74 98.17L327.76 98.14Z" fill="white"/>
<path opacity="0.2" d="M309.53 267.87C288.746 267.868 268.332 262.372 250.358 251.938C232.383 241.503 217.486 226.502 207.178 208.454C196.87 190.407 191.517 169.955 191.661 149.172C191.806 128.388 197.442 108.013 208 90.11L204.48 92.29C204.03 92.59 203.57 92.89 203.13 93.2C180.621 108.683 165.078 132.373 159.836 159.186C154.594 185.998 160.072 213.797 175.094 236.617C190.115 259.438 213.483 275.46 240.183 281.247C266.884 287.034 294.789 282.123 317.91 267.57C315.143 267.77 312.35 267.87 309.53 267.87Z" fill="black" stroke="#263238" stroke-linecap="round" stroke-linejoin="round"/>
<path d="M204.92 192.83L201.61 190.1H198.67H197.37L195.5 192L196.37 192.64L198.76 191.13L199.13 191.42L203.64 194.91L209.22 195.26L209.98 194.1L204.92 192.83ZM214.34 194.17L211.34 194.81L212.16 197.66L209.36 197.48L208.73 199.48L213.84 199.25L214.54 197.85L217.33 198.32L217.74 196.32L214.34 194.17ZM335.65 165.9L333.04 165.79L332.32 166.9L334.65 167.78L335.25 168.95L336.03 169.39L335.65 165.9ZM328.65 160.63L326.65 159.97L327.26 162.91L327.43 164.18L327.15 164.57L328.54 165.02L329.59 163.63L328.65 160.63ZM327.87 156.47L327.04 157.25L327.43 158.75L328.7 159.02L327.87 156.47ZM305 130.83L301.24 129.73L300.15 132.28L301.6 134.47L300.27 136.41L301.36 137.5C301.72 137.86 305.12 136.41 305.12 136.41L305 130.83ZM313.25 134.47L311.19 129.13L308.19 127.43L308.92 124.27L305.64 123.67L306.97 121.24L304.06 121.61L302.73 124.52L304.18 128.28L305.39 128.16L308.79 131.8L308.55 133.98L306.97 133.74L306.61 137.5L308.92 138.23L306.37 139.69L307.37 142.47L311.13 139.69L314.77 139.93L315.99 135.44L313.25 134.47ZM363.25 182.03L363.37 187.37L365.82 191.45C366.286 187.427 366.52 183.38 366.52 179.33C366.534 163.761 363.059 148.387 356.352 134.337C349.645 120.287 339.875 107.919 327.76 98.14L327.57 100.37L332.18 104.13L334.61 111.78L327.82 107.89L326.6 104.61C327.101 104.135 327.55 103.609 327.94 103.04C328.06 102.68 321.26 96.85 321.26 96.85L311.55 93.33L310.46 97.09L314.83 109.71L312.28 114.57L315.93 123.18L318.59 123.79L320.29 120.39L325.87 129.13L328.18 128.03L325.87 123.31L326.87 119.54L322.38 115.17L321.53 105.34L323.96 105.71L326.87 116.14L330.64 120.88L334.89 118.21L335.61 121.61L333.55 122.46C333.55 122.46 335.61 126.34 335.73 126.7C335.85 127.06 333.91 128.4 333.91 128.4L333.79 132.89L324.45 133.74L321.9 125.49L319.47 126.49L321.29 133.77L318.98 134.38L317.98 138.38L309.6 144.57L312.52 146.88L313.37 155.13L303.66 154.76L303.17 161.32L302.81 164.71L307.05 166.05C307.05 166.05 307.05 167.14 307.42 167.5C307.79 167.86 311.79 167.99 311.79 167.99L313 166.99H315.07L317.49 163.47L316.28 160.8L320.64 158.37L320.77 155.37L323.92 155.25C324.614 154.675 325.346 154.147 326.11 153.67C326.47 153.55 330.84 156.95 330.84 156.95L333.84 160.1L335.05 162.28L336.27 164.83L336.51 166.66L338.09 165.66L337.36 162.74L339.06 162.02L339 160.8L336.94 159.47L333.54 155.22L330.75 152.06L332.08 150.49L334.14 151.34L340.94 158.13L341.67 163.13L342.15 166.77L342.76 168.96L344.34 167.26C344.34 167.26 345.55 166.77 345.55 166.26C345.013 165.143 344.363 164.084 343.61 163.1L344.34 160.8H346L346.73 162.38L348.43 159.95L347.33 156.95L348.18 150.27L350.37 150.64L350.61 153.64L351.82 153.76L351.94 150.24L354.13 149.51L354.98 150.73L353.64 153.4L357.64 159.34C357.64 159.34 358.25 160.92 357.89 161.29C357.53 161.66 357.16 162.29 356.79 162.13C356.42 161.97 354.98 161.4 354.98 161.4L353.88 160.32L351.58 160.68L350.26 162L348.69 162.85C348.219 163.183 347.807 163.592 347.47 164.06L347.35 165.51L348.35 168.79V169.79H350.17L351.39 171L353.2 171.61C353.57 171.73 354.9 169.91 354.9 169.91L355.75 171.49L354.42 179.26C354.42 179.26 351.87 179.38 351.5 179.38C350.424 179.758 349.372 180.202 348.35 180.71L343.47 176L341.77 176.49L341.04 180.49L340.68 181.58C339.524 180.688 338.308 179.876 337.04 179.15C336.67 179.15 335.46 176 335.46 176L329.76 173.09L331.21 171.15L330.61 167.02L327.45 167.75L312.53 170.54L310.46 169.69L305.85 174.54L303.79 174.91L303.55 180.49L298.21 184.49L294.32 190.56L292.14 194.32L292.26 207.43L299.78 217.26L316.53 217.01L319.68 218.71L321.99 219.2L319.44 226.2C319.44 226.2 321.26 234.57 322.11 235.66C322.96 236.75 312.89 248.4 312.89 248.4C312.89 248.4 311.68 252.77 311.68 253.13V254.13L304.15 265L305.97 264.88L316.53 261.24L319.93 259.42C319.93 259.42 323.93 253.59 324.29 253.47C324.65 253.35 331.29 247.28 331.29 247.28L335.18 245.46L337.6 241.82L341.73 233.21L352.41 223.01L355.68 217.92L357.62 211.6L353.38 213.06V197.69L351.43 186.89L351.92 183.61L353.62 183.49L354.96 184.34L355.81 198.66L355.56 207.66L357.51 210.21L363.45 195.28L361.63 188.61L361.87 182.42L363.25 182.03ZM287.53 104.74V102H283.64L283.28 103.58L278.18 102.73L277.18 104.91L280.45 106.61L279 108.14L284.83 110.44L289.93 106.68L287.53 104.74ZM242.75 140.54L238.62 141.75L237.17 140.29L237.41 137.99L234 139.44L231 144.9L233.06 147.33L236.58 144.78L236.1 147.57L238.16 148.18L239.16 145.87L240.37 148.06L244.26 144.06L242.75 140.54ZM212.54 111.41L211.32 113.23H212.77L215.09 111.78L212.54 111.41ZM214.84 105.71L211.84 105.95L208.68 109.35L210.99 111.17L213.65 109.1L214.75 110.32L216.33 109.1L214.84 105.71ZM234.38 85.2L233.65 86.41L236.2 88.23L238.14 85.56L234.38 85.2ZM234.38 96.85L236.93 95.15V92.36L234.86 91.27L235.35 89.69L230.86 88.48L231.59 85.2L227.46 86.78L222.12 92.48L223.58 93.94L226.98 93.33L229.16 96C229.16 96 228.31 101.46 227.94 101.7C227.57 101.94 225.52 103.89 225.03 104.25C224.54 104.61 222.85 105.59 222.85 105.59L218.85 105.83L218 107.65L223.58 107.41L226.25 114.57H229.52L228.31 110.93L230.86 110.56L232.55 107.56L231.22 105.74C231.22 105.74 231.7 103.31 231.83 102.83C231.96 102.35 233.77 102.58 233.77 102.58L234.62 105.86L237.41 102.86L238.5 100.06L234.38 96.85ZM210.11 92.12L210.3 88.7L208 90.12L204.49 92.29L205.26 93.94L203.68 95.76L203.81 97.58L204.01 97.48L206.36 96.24L208.91 97.24C208.91 97.24 212.06 96.52 212.42 96.39C212.78 96.26 212.78 92.03 212.78 92.03L210.11 92.12ZM264.59 231.91L260.1 229.72L244.69 223.66C244.69 223.66 245.06 220.66 245.54 220.51C246.02 220.36 237.89 214.92 237.89 214.92L233.28 215.28L230.62 213.1L225.62 209.94L223.56 211.04C222.904 210.349 222.169 209.738 221.37 209.22C220.728 209.126 220.079 209.083 219.43 209.09L217.51 208L215.45 208.85L215.69 211.85L213.87 211.48L214.11 206.75L212.29 206.87C211.876 207.317 211.511 207.806 211.2 208.33C211.08 208.69 208.77 208.45 208.77 208.45L208.05 209.95L207.44 211.24L204.65 209.79L201.49 210.79L199.07 208.13L198.07 201.45L192.49 201.82L193.49 192.82L189.37 193.06L188.88 196.46L187.18 198.16L183.42 198.52L181.11 193.52L180.39 183.33L184.88 179.44L186.7 180.18L189.13 181.18V178.76L193.01 178.15L194.47 179.15L195.24 178.93L196.17 178.67L197.98 181.09L197.86 184.01L199.32 187.28L201.02 186.8L198.23 176.6L206.6 169.93C206.6 169.93 206.36 167.02 206.23 166.66C206.1 166.3 207.57 160.47 207.57 160.47L211.33 158.89L214 157.31V156.31L214.61 153.4L216.91 151.7L218.49 150.36L220.67 149.28L222.37 150.12L220.43 152.91L222.37 153.76L224.68 150.49L230.14 147.81L228.19 146L224.43 148.66L222.85 145L224.06 142.45H222.36L216.05 147.19L213.75 145.85L221.03 140.85C223.756 140.321 226.511 139.957 229.28 139.76C230.761 139.737 232.183 139.176 233.28 138.18L237.65 135.02L236.8 130.66L231.7 128C232.118 127.147 232.452 126.257 232.7 125.34C232.82 124.49 230.39 117.21 230.39 117.21C230.39 117.21 225.17 122.79 224.69 122.79C223.941 122.498 223.242 122.089 222.62 121.58C222.62 121.58 224.2 115.87 224.08 115.51C223.96 115.15 220.93 111.99 220.08 111.87C219.048 111.957 218.036 112.203 217.08 112.6C216.6 112.72 215.26 119.27 215.26 119.27C215.26 119.27 213.81 120.27 213.2 120.73C212.59 121.19 213.45 126.67 213.45 127.4C213.45 128.13 208.35 129.34 208.35 129.34L207.62 137.23L204.34 136.23C204.34 136.23 205.56 129.67 204.47 129.55C203.38 129.43 196.82 123.61 196.82 123.61C196.82 123.61 196.94 118.87 197.3 118.87C197.66 118.87 204.22 112.2 204.71 112.08C205.2 111.96 213.08 103.47 213.08 103.47L217.57 103.1L220.85 101.04L223.76 97.15L220.24 94.85L215.38 99.46L216.23 97.64L215.51 94L221 91L222.09 88.09L215.66 88.82L221.61 84.45L220.94 83.35L220.88 83.24L219.23 84.1L212.23 87.73L212.71 90.88L218.9 90.04L214.29 92.22L213.81 95.74L211.75 97.92L209.56 99.38L203.86 98.53L202.78 100L202.1 100.85L200.03 100.13L203.56 94.06L203.13 93.2C191.803 100.975 182.112 110.9 174.61 122.41L173.34 126.82L172.73 128.52L169.73 134.95L169.24 143.09L165.12 154.25L163.66 168.69L164.51 172.33L164.63 176.82L169.49 190.05L171.43 191.05L166.09 176.98L167.54 176.74L169.24 180.26L170.82 185.35C170.82 185.35 177.62 199.07 178.34 199.67C179.175 200.646 179.909 201.705 180.53 202.83L185.62 201.62L187.57 204.77L194 205.86L197.52 211.86L204.52 213.8L205.25 212.58L207.8 213.68L209.14 219.02L206.83 225.57L209.26 229.45V233.34L210.84 234.67L216.9 241.22L224.55 245.35L236.8 270.35L242.63 275.81L247.72 279.2L254.03 281.88L254.28 280.18L249.91 278.84L247.48 276.9C246.88 276.41 245.66 275.56 245.66 275.56L244.66 273.62L243.66 272.62L242.63 270L245.3 268.79L245.91 267.33L243.84 264.18H247.48L250.15 254.59L252.58 253.21L258.29 249.98L258.77 241.73L264.71 233.73L264.59 231.91ZM222.53 82.71L222.73 83.62C222.73 83.62 227.94 83.02 230.73 82.41C233.52 81.8 231.73 81.68 231.73 81.68C232.058 81.3497 232.428 81.0639 232.83 80.83C233.879 80.7695 234.931 80.7695 235.98 80.83L232.71 83.38H235.13C236.59 83.38 237.68 83.5 237.68 83.5L238.77 83.14L239.87 81.8L240.96 81.07C240.96 81.07 244.72 79.5 245.69 79.13C246.47 78.84 248.4 76.63 249.14 75.74C240 76.8708 231.051 79.2147 222.53 82.71ZM274.06 81.32C271.938 79.5689 269.71 77.9492 267.39 76.47C266.39 75.73 264.84 75.73 263.5 75.37C262.16 75.01 255.61 75.25 255.61 75.25C255.61 75.25 251.12 76.71 251.37 77.19C251.62 77.67 251 78.19 251 78.19C251 78.19 247.85 79.19 248.21 80.19C248.57 81.19 250.76 81.76 251 82.37C251.24 82.98 247.61 90.25 248.57 90.37C248.879 90.4386 249.165 90.5862 249.4 90.7982C249.634 91.0103 249.81 91.2797 249.91 91.58C249.91 91.58 247.85 92.58 247.85 93.52C247.85 94.46 249.67 94.73 249.67 94.73C249.67 94.73 250.88 95.58 250.76 96.19C250.64 96.8 251 97.77 250.15 98.38C249.309 98.9446 248.498 99.5521 247.72 100.2C247.01 100.968 246.429 101.846 246 102.8L247.45 112.87L249.03 116.39C249.03 116.39 252.3 119.54 253.28 118.69C254.26 117.84 256.68 115.54 256.79 113.96C256.85 112.666 256.813 111.369 256.68 110.08C256.68 110.08 260.68 104.38 261.28 104.38C261.88 104.38 266.87 103.16 267.11 102.68C267.35 102.2 267.6 98.06 268.45 97.94C269.3 97.82 276.34 96 276.7 95.4C277.06 94.8 276.48 83.5 274.06 81.32Z" fill="#FF7400" stroke="#263238" stroke-linecap="round" stroke-linejoin="round"/>
<path d="M197.37 190.16H198.67C198.82 190.58 198.97 190.99 199.13 191.4L198.76 191.11L196.37 192.62L195.5 191.98L197.37 190.16Z" fill="#263238" stroke="#263238" stroke-linecap="round" stroke-linejoin="round"/>
<path d="M254.28 280.09L254.03 281.79L247.72 279.11L242.63 275.72L236.8 270.26L224.55 245.26L216.9 241.13L210.84 234.58L209.26 233.25V229.36L206.83 225.48L209.14 218.93L207.8 213.59L205.25 212.49L204.52 213.71L197.52 211.77L194 205.77L187.57 204.68L185.62 201.53L180.53 202.74C179.909 201.615 179.175 200.556 178.34 199.58C177.62 198.98 170.82 185.26 170.82 185.26L169.24 180.17L167.54 176.65L166.09 176.89L171.4 191L169.46 190L164.6 176.77L164.48 172.28L163.63 168.64L165.09 154.2L169.21 143.04L169.7 134.9L172.7 128.47L173.31 126.77L174.58 122.36C182.097 110.865 191.797 100.958 203.13 93.2C203.57 92.89 204.03 92.59 204.48 92.29L208 90.12C206.59 92.52 205.25 94.97 204 97.48C203.58 98.31 203.17 99.15 202.78 100C191.262 124.648 188.595 152.515 195.23 178.9L194.46 179.12L193 178.12L189.12 178.73V181.15L186.69 180.15L184.87 179.41L180.38 183.3L181.1 193.49L183.41 198.49L187.17 198.13L188.87 196.43L189.36 193.03L193.48 192.79L192.48 201.79L198.06 201.42L199.06 208.1L201.48 210.76L204.64 209.76L207.43 211.21L208.04 209.92C218.772 228.036 234.144 242.959 252.57 253.15L250.14 254.53L247.47 264.12H243.83L245.9 267.27L245.29 268.73L242.63 270L243.72 272.55L244.72 273.55L245.72 275.49C245.72 275.49 246.94 276.34 247.54 276.83L249.97 278.77L254.28 280.09Z" fill="#263238" stroke="#263238" stroke-linecap="round" stroke-linejoin="round"/>
<path d="M327.76 98.14C309.198 83.0976 286.022 74.9051 262.13 74.94C257.784 74.9389 253.443 75.2061 249.13 75.74C239.999 76.883 231.06 79.237 222.55 82.74L220.99 83.4C220.42 83.64 219.85 83.9 219.28 84.15C216.213 85.5433 213.213 87.07 210.28 88.73L204.46 92.32C204.01 92.62 203.55 92.92 203.11 93.23C185.012 105.629 171.28 123.415 163.864 144.062C156.448 164.709 155.726 187.168 161.8 208.249C167.874 229.33 180.435 247.961 197.699 261.498C214.963 275.034 236.054 282.787 257.975 283.656C279.896 284.525 301.534 278.466 319.816 266.338C338.097 254.211 352.094 236.632 359.817 216.098C367.54 195.564 368.598 173.119 362.84 151.949C357.082 130.78 344.8 111.963 327.74 98.17L327.76 98.14Z" stroke="#263238" stroke-linecap="round" stroke-linejoin="round"/>
<path d="M359.09 286.49C346.28 285.25 328.23 286.08 328.23 286.08C328.23 286.08 327.41 266.25 329.06 262.08C330.219 259.847 331.694 257.792 333.44 255.98L333.21 254.64C333.21 254.64 340.53 244.79 341.77 233.21C343.01 221.63 336.3 195.83 346.62 185.51C356.94 175.19 355.7 215.63 352.45 223.01C350.29 227.92 343.18 241.43 338.66 250.84C340.28 249.49 341.46 248.84 341.46 249.68C341.46 252.16 341.87 265.79 341.04 268.27C340.21 270.75 331.13 276.12 348.48 278.6C365.83 281.08 372.03 272.82 367.48 270.34C362.93 267.86 348.07 266.62 346.41 264.55C344.75 262.48 344.76 249.72 346 246C347.24 242.28 356.74 232 362.11 218.73C369.24 201.19 369.89 180.93 367.81 162.26C361.35 104.26 294.64 53.41 237.24 76.69C224.24 81.96 218.47 93.28 217.62 106.84C216.56 123.76 228.23 137.65 240.32 148.06C257.6 162.92 294.5 171.06 306.89 191.74C319.28 212.42 326.17 246 324.52 256.33C322.87 266.66 322.63 283.01 321.81 285.08C320.99 287.15 309.01 288.92 307.41 294.93C305.35 302.66 325.88 314.39 357.67 306.84C382.21 301 371.89 287.73 359.09 286.49Z" fill="#263238"/>
<path d="M289.59 73.79C284.42 72.41 278.59 72.06 279.24 70.68C279.89 69.3 281.66 66.54 279.24 64.82C276.82 63.1 274.41 64.82 271.99 61.37C269.57 57.92 269.58 54.12 268.89 50.67L268.77 50.07L270.47 0H261.06L262.69 57C262.56 58.52 262.25 59.78 261.64 60.29C259.57 62.02 254.05 65.47 256.46 67.19L258.88 69C258.88 69 249.56 68 245.08 72.1C240.6 76.2 249.22 83.84 258.88 86.94C268.54 90.04 290.28 89.36 294.77 84.18C299.26 79 294.77 75.17 289.59 73.79Z" fill="#263238"/>
<path opacity="0.19" d="M277.55 67.74C277.55 67.74 277.71 69.26 275.12 71.24C272.53 73.22 267.67 72.6 269.49 73.67C271.31 74.74 278.65 72.26 279.24 70.67C279.83 69.08 279.53 65.61 277.55 67.74Z" fill="white"/>
<path opacity="0.19" d="M262.49 84.78C262.49 84.78 270.56 90.86 283.03 87.36C295.5 83.86 291.1 76.56 287.6 75.5C284.1 74.44 288.81 78.39 285.92 82.19C283.03 85.99 276.49 88.43 262.49 84.78Z" fill="white"/>
<g opacity="0.19">
<path d="M366.79 163.28C363.52 134 344.56 106.5 319.22 89.8C316.58 88.97 314.22 89.13 312.72 91.18C307.11 98.81 344.39 125.81 347.41 151.44C350.43 177.07 337.1 153.67 312.17 148.1C287.24 142.53 290.29 145.57 287.23 157.26C286.35 160.62 285.57 162.77 284.57 164.26C283.687 164.704 282.667 164.794 281.72 164.51C279.47 163.83 275.87 161.13 276.32 163.38C276.77 165.63 279.32 164.53 282.44 166.32L284.13 164.85C283.65 165.428 283.079 165.925 282.44 166.32C285.72 167.51 302.25 173.9 309.3 184.09C317.13 195.42 320.3 206.75 325.75 217.3C326.75 219.15 334.67 235.5 338.45 229.74C338.845 229.046 339.084 228.275 339.15 227.48C340.86 216.14 338.15 207 340.83 193.24C341.69 188.85 341.98 176.97 348.2 176.5C355.78 175.92 358.98 186.63 359.65 192.35C360.95 203.25 358.65 213.22 354.28 223.11C354.13 223.46 352.67 228.11 352.47 228.53C353.17 232.17 352.7 230.92 354.61 231.4C357.152 227.446 359.344 223.276 361.16 218.94C368.2 201.63 368.85 181.67 366.79 163.28Z" fill="white"/>
<path d="M271.59 163.13C272.96 163.13 274.07 162.476 274.07 161.67C274.07 160.864 272.96 160.21 271.59 160.21C270.22 160.21 269.11 160.864 269.11 161.67C269.11 162.476 270.22 163.13 271.59 163.13Z" fill="white"/>
<path d="M266.63 158.4C265.88 158.4 265.28 158.76 265.28 159.19C265.28 159.62 265.88 159.98 266.63 159.98C267.38 159.98 267.98 159.63 267.98 159.19C267.98 158.75 267.38 158.4 266.63 158.4Z" fill="white"/>
</g>
<path opacity="0.19" d="M365.09 288C351.91 287.91 334.09 288.83 331.68 294.34C329.27 299.85 338.6 305.07 348.9 308.48C351.72 308.09 354.65 307.55 357.67 306.83C378.14 302 374.35 291.93 365.09 288Z" fill="white"/>
<path opacity="0.19" d="M351.63 273.19C353.97 275.82 357.48 277.45 361.26 278.38C368.61 276.61 370.64 272.1 367.48 270.38L367.07 270.17C361.83 269.68 347.67 268.73 351.63 273.19Z" fill="white"/>
<path opacity="0.52" d="M316.82 139.1C316.41 132.1 302.46 120.2 295.27 120.39C290.78 120.51 283 126.39 279.7 131.86C279.008 131.094 278.078 130.583 277.06 130.41C276.01 130.41 273.93 132.28 274.06 133.3C274.23 134.6 276.73 137.01 278.06 136.8C278.06 136.8 278.13 136.8 278.17 136.8C278.165 136.843 278.165 136.887 278.17 136.93C279.17 144.36 293.4 158.11 300.94 156.93C306.89 155.93 317.17 145 316.82 139.1Z" fill="white"/>
<path opacity="0.52" d="M271.72 130.39C271.06 130.39 269.72 131.57 269.83 132.22C269.94 133.04 271.52 134.56 272.35 134.43C273.01 134.32 274.15 133.11 274.11 132.43C273.917 131.916 273.596 131.459 273.178 131.102C272.76 130.745 272.258 130.5 271.72 130.39Z" fill="white"/>
<path opacity="0.52" d="M325.13 125.43C322.59 125.51 317.56 130.58 317.88 133.43C318.29 137.01 324.34 143.64 327.54 143.07C330.06 142.61 334.42 137.34 334.27 134.49C334.09 131.06 328.18 125.34 325.13 125.43Z" fill="white"/>
<path d="M282.38 357.62L238.72 373.84L225 380.45L224.27 381.45C204.445 380.575 184.706 378.307 165.2 374.66L161.61 369.87L157.61 365.1L125 326L112.56 311.1L83.13 294.2L63.13 282.67L76.65 281.16L161.65 271.64L261 349L282.38 357.62Z" fill="#263238" stroke="#263238" stroke-linecap="round" stroke-linejoin="round"/>
<path d="M258.99 319.85L278.71 343.25L282.38 357.62L188.53 387.78L105.95 289.13L258.99 319.85Z" fill="#868686" stroke="#263238" stroke-linecap="round" stroke-linejoin="round"/>
<path d="M278.71 343.25L189.09 368.33L188.53 387.78L282.38 357.62L278.71 343.25Z" fill="#263238" stroke="#263238" stroke-linecap="round" stroke-linejoin="round"/>
<path d="M185.71 366.36L127.93 298.43" stroke="white" stroke-linecap="round" stroke-linejoin="round"/>
<path d="M238.41 355.08L220.94 336.2L218.4 337.33L234.19 355.65L238.41 355.08Z" fill="#263238" stroke="#263238" stroke-linecap="round" stroke-linejoin="round"/>
<path d="M254.19 324.65L218.12 333.95L204.87 320.7L199.24 319.29L194.44 315.35L154.71 324.36L151.32 325.77L150.2 322.95L151.32 320.7L179.23 313.94L172.18 308.86L140.9 303.79L128.78 316.75L105.95 289.13L253.07 320.14L254.19 324.65Z" fill="#263238" stroke="#263238" stroke-linecap="round" stroke-linejoin="round"/>
<path d="M211.64 335.36L169.64 346.35L170.49 343.25L209.1 333.67L211.64 335.36Z" fill="#263238" stroke="#263238" stroke-linecap="round" stroke-linejoin="round"/>
<path d="M282.16 259.3L283.91 273.83L261.82 325.27L64.8201 282.55C64.4445 282.228 64.1448 281.827 63.9425 281.376C63.7402 280.925 63.6403 280.434 63.6501 279.94V278.19L68.0001 266.86L83.1101 245.35L85.3301 244.35C85.6874 243.359 86.1465 242.407 86.7001 241.51C87.0001 241 100.17 224 100.82 223.56L128.72 228.5L131.92 229.08L166.21 236.35L171.16 238.83L174.36 238.25L205.5 244.34L208.16 247.13L209.28 247.3L211.87 245.3L243.76 252.42L244.14 253.77L247.87 254.64L250.49 253.19L282.16 259.3Z" fill="#868686" stroke="#263238" stroke-linecap="round" stroke-linejoin="round"/>
<path d="M267.11 284.5L257.22 306.63" stroke="white" stroke-linecap="round" stroke-linejoin="round"/>
<path d="M98.81 274L101 277.6L104.9 275.87L136.41 282.44L139.16 285.49L142.52 283.97L178.43 292.43L181.62 295.63L186.27 293.31L217.93 299.93L220.13 302.45L226.13 302.6L258.96 309.6L261.87 325.29L64.87 282.57C64.4944 282.248 64.1947 281.847 63.9924 281.396C63.7901 280.945 63.6903 280.454 63.7 279.96V278.21L67.56 268L98.81 274Z" fill="#263238" stroke="#263238" stroke-linecap="round" stroke-linejoin="round"/>
<path d="M258.91 309.58L280.85 260.73" stroke="white" stroke-linecap="round" stroke-linejoin="round"/>
<path d="M85.3101 244.32L117.29 251.61L115.97 247.8L86.6801 241.48L85.3101 244.32Z" fill="#263238" stroke="#263238" stroke-linecap="round" stroke-linejoin="round"/>
<path d="M115.97 247.8L129.22 229.48" stroke="white" stroke-linecap="round" stroke-linejoin="round"/>
<path d="M117.29 251.61L132.46 230.61" stroke="#263238" stroke-linecap="round" stroke-linejoin="round"/>
<path d="M121.19 251.85L155.52 259.89L153.95 256.4L122.56 249L121.19 251.85Z" fill="#263238" stroke="#263238" stroke-linecap="round" stroke-linejoin="round"/>
<path d="M154.11 255.78L167.35 237.46" stroke="white" stroke-linecap="round" stroke-linejoin="round"/>
<path d="M156.03 259.97L171.2 238.97" stroke="#263238" stroke-linecap="round" stroke-linejoin="round"/>
<path d="M158.88 260.28L195.68 268.08L194.36 264.27L160.24 257.43L158.88 260.28Z" fill="#263238" stroke="#263238" stroke-linecap="round" stroke-linejoin="round"/>
<path d="M194.36 264.27L204.55 247.41" stroke="white" stroke-linecap="round" stroke-linejoin="round"/>
<path d="M195.68 268.08L207.06 248.95" stroke="#263238" stroke-linecap="round" stroke-linejoin="round"/>
<path d="M199.61 268.56L234.27 275.85L232.95 272.04L200.98 265.72L199.61 268.56Z" fill="#263238" stroke="#263238" stroke-linecap="round" stroke-linejoin="round"/>
<path d="M232.95 272.04L242.79 254.17" stroke="white" stroke-linecap="round" stroke-linejoin="round"/>
<path d="M234.27 275.85L244.53 255.71" stroke="#263238" stroke-linecap="round" stroke-linejoin="round"/>
<path d="M269.59 279.8L270.44 282.19" stroke="#263238" stroke-linecap="round" stroke-linejoin="round"/>
<path d="M278.47 260.77L269.59 279.8" stroke="white" stroke-linecap="round" stroke-linejoin="round"/>
<path d="M269.59 279.8L240.56 273.74L238.87 276.56L270.58 283.6L269.59 279.8Z" fill="#263238" stroke="#263238" stroke-linecap="round" stroke-linejoin="round"/>
<path d="M99.1901 273.47L98.8101 274.04L101.1 276.63L116.84 253.1L113.48 252.03" stroke="#263238" stroke-linecap="round" stroke-linejoin="round"/>
<path d="M113.48 252.03L99.1901 273.47" stroke="white" stroke-linecap="round" stroke-linejoin="round"/>
<path d="M151.61 260.43L136.86 282.07" stroke="white" stroke-linecap="round" stroke-linejoin="round"/>
<path d="M136.87 282.07L139.16 284.66L154.96 261.5L151.61 260.43" stroke="#263238" stroke-linecap="round" stroke-linejoin="round"/>
<path d="M192.47 269.3L194.91 270.22" stroke="#263238" stroke-linecap="round" stroke-linejoin="round"/>
<path d="M178.42 292.43L192.47 269.3" stroke="white" stroke-linecap="round" stroke-linejoin="round"/>
<path d="M180.86 294.51L194.46 272.2" stroke="#263238" stroke-linecap="round" stroke-linejoin="round"/>
<path d="M217.92 299.93L229.75 277.85" stroke="white" stroke-linecap="round" stroke-linejoin="round"/>
<path d="M220.12 302.45L232.96 278.77" stroke="#263238" stroke-linecap="round" stroke-linejoin="round"/>
<path d="M237.08 279.99L226.24 300.77" stroke="#263238" stroke-linecap="round" stroke-linejoin="round"/>
<path d="M249.92 255.39L241.67 270.83" stroke="#263238" stroke-linecap="round" stroke-linejoin="round"/>
<path d="M105.07 274.65L119.28 253.56" stroke="#263238" stroke-linecap="round" stroke-linejoin="round"/>
<path d="M123.56 247.91L135.33 231.1" stroke="#263238" stroke-linecap="round" stroke-linejoin="round"/>
<path d="M161.33 256.15L173.09 239.5" stroke="#263238" stroke-linecap="round" stroke-linejoin="round"/>
<path d="M143.27 282.74L157.63 262.42" stroke="#263238" stroke-linecap="round" stroke-linejoin="round"/>
<path d="M185.75 292.37L198.12 271.13" stroke="#263238" stroke-linecap="round" stroke-linejoin="round"/>
<path d="M200.98 265.72L210.5 248.06" stroke="#263238" stroke-linecap="round" stroke-linejoin="round"/>
</svg>
