<svg width="24" height="24" viewBox="0 0 24 24" fill="none" xmlns="http://www.w3.org/2000/svg">
<path d="M9.84 5.68C9.51 5.68 9.21 5.46 9.12 5.13C9.04 4.84 9 4.55 9 4.25C9 2.46 10.46 1 12.25 1C14.04 1 15.5 2.46 15.5 4.25C15.5 4.55 15.46 4.84 15.38 5.13C15.28 5.51 14.9 5.75 14.5 5.66C14.01 5.55 13.5 5.5 12.97 5.5H11.52C11 5.5 10.49 5.55 10 5.66C9.95 5.67 9.9 5.68 9.84 5.68ZM11.52 4H12.97C13.31 4 13.66 4.02 13.99 4.06C13.9 3.18 13.15 2.5 12.25 2.5C11.35 2.5 10.61 3.18 10.51 4.06C10.85 4.02 11.18 4 11.52 4Z" fill="black"/>
<path d="M15 11.75H9C8.59 11.75 8.25 11.41 8.25 11C8.25 10.59 8.59 10.25 9 10.25H15C15.41 10.25 15.75 10.59 15.75 11C15.75 11.41 15.41 11.75 15 11.75Z" fill="black"/>
<path fill-rule="evenodd" clip-rule="evenodd" d="M21.47 14.8053V13C21.47 8.91 18.57 5.31 14.57 4.45C13.98 4.32 13.36 4.25 12.72 4.25H11.27C10.64 4.25 10.02 4.32 9.43002 4.45C5.43002 5.3 2.52002 8.9 2.52002 13V17C2.52002 17.41 2.86002 17.75 3.27002 17.75H13C13 17.2315 13.0826 16.7267 13.2406 16.25H4.02002V13C4.02002 9.6 6.43002 6.62 9.75002 5.91C10.24 5.8 10.75 5.75 11.27 5.75H12.72C13.25 5.75 13.76 5.8 14.25 5.91C17.57 6.63 19.97 9.61 19.97 13V13.5491C20.4628 13.8097 20.908 14.1573 21.28 14.58C21.3458 14.6534 21.4091 14.7285 21.47 14.8053Z" fill="black"/>
<path fill-rule="evenodd" clip-rule="evenodd" d="M14.58 21.27C15.45 22.06 16.57 22.5 17.75 22.5C19.41 22.5 20.97 21.62 21.8 20.2C22.06 19.79 22.25 19.32 22.35 18.87C22.45 18.51 22.5 18.13 22.5 17.75C22.5 17.5217 22.4835 17.2957 22.4513 17.0732C22.6213 17.3427 22.72 17.6607 22.72 18V19C22.72 20.67 22.72 22.75 18.97 22.75H4.96997C1.21997 22.75 1.21997 20.67 1.21997 19V18C1.21997 17.04 2.00997 16.25 2.96997 16.25H13.2406C13.0826 16.7267 13 17.2315 13 17.75H2.96997C2.82997 17.75 2.71997 17.86 2.71997 18V19C2.71997 20.64 2.71997 21.25 4.96997 21.25H14.5568C14.5645 21.2567 14.5722 21.2634 14.58 21.27Z" fill="black"/>
<path d="M17.75 22.5C16.57 22.5 15.45 22.06 14.58 21.27C14.23 20.97 13.92 20.6 13.68 20.19C13.24 19.47 13 18.62 13 17.75C13 16.5 13.48 15.33 14.34 14.44C15.24 13.51 16.45 13 17.75 13C19.11 13 20.4 13.58 21.28 14.58C22.06 15.45 22.5 16.57 22.5 17.75C22.5 18.13 22.45 18.51 22.35 18.87C22.25 19.32 22.06 19.79 21.8 20.2C20.97 21.62 19.41 22.5 17.75 22.5ZM17.75 14.5C16.86 14.5 16.04 14.85 15.42 15.48C14.83 16.09 14.5 16.89 14.5 17.75C14.5 18.34 14.66 18.92 14.97 19.42C15.13 19.7 15.34 19.95 15.58 20.16C16.18 20.71 16.95 21.01 17.75 21.01C18.88 21.01 19.95 20.41 20.53 19.44C20.7 19.16 20.83 18.84 20.9 18.53C20.97 18.27 21 18.02 21 17.76C21 16.96 20.7 16.19 20.16 15.59C19.56 14.89 18.68 14.5 17.75 14.5Z" fill="black"/>
<path d="M16.6694 19.5499C16.4794 19.5499 16.2894 19.4799 16.1394 19.3299C15.8494 19.0399 15.8494 18.5599 16.1394 18.2699L18.2494 16.1599C18.5394 15.8699 19.0194 15.8699 19.3094 16.1599C19.5994 16.4499 19.5994 16.9299 19.3094 17.2199L17.1994 19.3299C17.0494 19.4799 16.8594 19.5499 16.6694 19.5499Z" fill="black"/>
<path d="M18.8106 19.5699C18.6206 19.5699 18.4306 19.4999 18.2806 19.3499L16.1706 17.2399C15.8806 16.9499 15.8806 16.4699 16.1706 16.1799C16.4606 15.8899 16.9406 15.8899 17.2306 16.1799L19.3406 18.2899C19.6306 18.5799 19.6306 19.0599 19.3406 19.3499C19.1906 19.4999 19.0006 19.5699 18.8106 19.5699Z" fill="black"/>
</svg>
