<svg width="24" height="24" viewBox="0 0 24 24" fill="none" xmlns="http://www.w3.org/2000/svg">
<path d="M12.5 22.75H4.07997C2.50997 22.75 1.21997 21.49 1.21997 19.93V5.09C1.21997 3.56 1.78997 2.37 2.82997 1.72C3.87997 1.06 5.23997 1.08 6.64997 1.78L11.09 3.96C12.3 4.56 13.25 6.07 13.25 7.41V22C13.25 22.41 12.91 22.75 12.5 22.75ZM4.55997 2.75C4.20997 2.75 3.88997 2.83 3.61997 3C3.03997 3.36 2.71997 4.11 2.71997 5.09V19.93C2.71997 20.66 3.32997 21.25 4.07997 21.25H11.75V7.41C11.75 6.64 11.13 5.65 10.42 5.31L5.97997 3.13C5.46997 2.88 4.98997 2.75 4.55997 2.75Z" fill="black"/>
<path d="M18.81 22.75H12.5C12.09 22.75 11.75 22.41 11.75 22V10.42C11.75 10.19 11.85 9.98002 12.03 9.84002C12.21 9.70002 12.43 9.64002 12.66 9.69002L13.13 9.79002L19.67 11.25C21.66 11.69 22.66 12.86 22.72 14.85C22.73 14.85 22.73 14.95 22.73 15.06V18.84C22.72 21.4 21.37 22.75 18.81 22.75ZM13.25 21.25H18.81C20.57 21.25 21.22 20.6 21.22 18.84V14.98C21.17 13.61 20.65 13 19.34 12.71L13.25 11.35V21.25Z" fill="black"/>
<path d="M8.97 9.75H5.5C5.09 9.75 4.75 9.41 4.75 9C4.75 8.59 5.09 8.25 5.5 8.25H8.97C9.38 8.25 9.72 8.59 9.72 9C9.72 9.41 9.39 9.75 8.97 9.75Z" fill="black"/>
<path d="M8.97 13.75H5.5C5.09 13.75 4.75 13.41 4.75 13C4.75 12.59 5.09 12.25 5.5 12.25H8.97C9.38 12.25 9.72 12.59 9.72 13C9.72 13.41 9.39 13.75 8.97 13.75Z" fill="black"/>
<path d="M18 22.75C16.82 22.75 15.7 22.31 14.83 21.52C14.48 21.22 14.17 20.85 13.93 20.44C13.49 19.72 13.25 18.87 13.25 18C13.25 16.75 13.73 15.58 14.59 14.69C15.49 13.76 16.7 13.25 18 13.25C19.36 13.25 20.65 13.83 21.53 14.83C22.31 15.7 22.75 16.82 22.75 18C22.75 18.38 22.7 18.76 22.6 19.12C22.5 19.57 22.31 20.04 22.05 20.45C21.22 21.87 19.66 22.75 18 22.75ZM18 14.75C17.11 14.75 16.29 15.1 15.67 15.73C15.08 16.34 14.75 17.14 14.75 18C14.75 18.59 14.91 19.17 15.22 19.67C15.38 19.95 15.59 20.2 15.83 20.41C16.43 20.96 17.2 21.26 18 21.26C19.13 21.26 20.2 20.66 20.78 19.69C20.95 19.41 21.08 19.09 21.15 18.78C21.22 18.52 21.25 18.27 21.25 18.01C21.25 17.21 20.95 16.44 20.41 15.84C19.81 15.14 18.93 14.75 18 14.75Z" fill="black"/>
<path d="M16.9194 19.7999C16.7294 19.7999 16.5394 19.7299 16.3894 19.5799C16.0994 19.2899 16.0994 18.8099 16.3894 18.5199L18.4994 16.4099C18.7894 16.1199 19.2694 16.1199 19.5594 16.4099C19.8494 16.6999 19.8494 17.1799 19.5594 17.4699L17.4494 19.5799C17.2994 19.7299 17.1094 19.7999 16.9194 19.7999Z" fill="black"/>
<path d="M19.0606 19.8199C18.8706 19.8199 18.6806 19.7499 18.5306 19.5999L16.4206 17.4899C16.1306 17.1999 16.1306 16.7199 16.4206 16.4299C16.7106 16.1399 17.1906 16.1399 17.4806 16.4299L19.5906 18.5399C19.8806 18.8299 19.8806 19.3099 19.5906 19.5999C19.4406 19.7499 19.2506 19.8199 19.0606 19.8199Z" fill="black"/>
<path fill-rule="evenodd" clip-rule="evenodd" d="M18.22 13.2538C18.1469 13.2504 18.0735 13.2487 18 13.2487C17.5602 13.2487 17.1307 13.3071 16.72 13.4204V12.1288L13.72 11.4588V14.7488C13.72 15.0356 13.8 15.3032 13.9389 15.5308C13.649 16.007 13.4455 16.5302 13.3382 17.0808C12.6572 16.5296 12.22 15.6878 12.22 14.7488V10.5188C12.22 10.2888 12.32 10.0788 12.5 9.92876C12.68 9.77876 12.91 9.72876 13.13 9.77876L17.63 10.7888C17.6672 10.7975 17.7034 10.8089 17.7383 10.8228L19.66 11.2488C21.65 11.6888 22.65 12.8588 22.71 14.8488V14.9088C22.6875 15.3556 22.5679 15.7756 22.3719 16.1486C22.1674 15.669 21.8836 15.2232 21.53 14.8288C21.4185 14.702 21.3004 14.5821 21.1764 14.4691C21.0371 13.4714 20.498 12.9671 19.34 12.7088L18.22 12.4588L18.22 13.2538Z" fill="black"/>
</svg>
