<svg width="58" height="60" viewBox="0 0 58 60" fill="none" xmlns="http://www.w3.org/2000/svg">
<path fill-rule="evenodd" clip-rule="evenodd" d="M23.3684 38.3684C24.7368 38.8948 28.5158 39.6316 32.6842 38.3684C34.8947 37.5789 35.5263 38.3684 35.5263 39.1579C35.5263 39.2476 35.5285 39.3334 35.5304 39.4171C35.5459 40.0692 35.5585 40.6004 34.5789 42C33.4736 43.5789 30.1579 44.2105 29.3684 44.2105H27C26 44.2105 23.7789 43.8947 22.8947 42.6316C22.421 42.3158 21.1579 39.4737 21.7895 38.6842C22.2947 38.0526 23.0526 38.2105 23.3684 38.3684ZM33.8974 39.5889C33.9609 39.5295 33.9644 39.4294 33.9047 39.3657C33.8453 39.3022 33.7452 39.2987 33.6814 39.3584C31.577 41.3264 29.4433 41.729 27.6317 41.4445C25.8115 41.1587 24.3055 40.1769 23.4793 39.3612C23.4172 39.3 23.3173 39.3006 23.256 39.3628C23.1948 39.4247 23.1954 39.5248 23.2574 39.5861C24.1212 40.4387 25.6851 41.4584 27.5827 41.7565C29.489 42.0559 31.7207 41.6245 33.8974 39.5889Z" fill="#FF7400"/>
<path d="M22.7369 37.2631C22.1053 36.7894 22.1053 35.6842 22.579 35.3684C22.4211 35.2105 26.8422 35.0526 27.7896 36.4737C28.7369 37.8947 29.5264 37.7368 29.6843 37.5789C29.8422 37.421 30.4738 35.0526 31.8947 34.8947C33.3158 34.7368 33 34.7368 33.1579 34.7368C34.5789 33.7894 34.7368 34.1052 34.8947 34.2631C35.0526 34.2631 35.6842 36.6316 33.6316 37.421C31.5789 38.2105 29.6843 38.3684 27.3159 38.3684C24.9475 38.3684 24.602 38.6618 22.7369 37.2631Z" fill="#FF7400"/>
<path d="M32.2913 30.6342C33.1645 30.1301 33.6322 29.3054 33.3359 28.7923C33.0397 28.2792 32.0916 28.2719 31.2185 28.776C30.3453 29.2801 29.8776 30.1048 30.1739 30.6179C30.4701 31.131 31.4181 31.1383 32.2913 30.6342Z" fill="#FF7400"/>
<path d="M22.556 31.7853C23.3282 32.162 24.1074 32.1533 24.2963 31.766C24.4852 31.3787 24.0123 30.7594 23.2401 30.3827C22.4679 30.0061 21.6888 30.0148 21.4999 30.4021C21.311 30.7894 21.7838 31.4087 22.556 31.7853Z" fill="#FF7400"/>
<path fill-rule="evenodd" clip-rule="evenodd" d="M21.9083 33.2628C23.6504 34.075 25.4972 33.8018 26.0331 32.6527C26.569 31.5034 25.5912 29.9132 23.849 29.1008C22.1068 28.2884 20.2601 28.5615 19.7241 29.7108C19.1882 30.8601 20.1661 32.4502 21.9083 33.2628ZM22.4966 32.2573C23.4868 32.719 24.5317 32.574 24.8304 31.9333C25.1291 31.2928 24.5686 30.3992 23.5783 29.9374C22.5881 29.4757 21.5432 29.6207 21.2445 30.2613C20.9458 30.9019 21.5064 31.7956 22.4966 32.2573Z" fill="#FF7400"/>
<path fill-rule="evenodd" clip-rule="evenodd" d="M29.4891 27.88C28.0819 29.019 27.7569 30.6674 28.7978 31.7024C29.9173 32.8159 32.1931 32.7982 33.8807 31.6629C35.2235 30.7598 35.7894 29.4216 35.4012 28.3515C34.943 28.6623 34.398 28.1097 34.1052 27.7895C33.7907 27.4455 33.1727 27.2006 32.6959 28.1888C33.0174 28.2287 33.2962 28.3442 33.491 28.5379C34.0424 29.0863 33.7118 30.0539 32.7524 30.6992C31.793 31.3445 30.5685 31.423 30.017 30.8746C29.4656 30.3262 29.7962 29.3586 30.7555 28.7133C30.7819 28.6956 30.8084 28.6783 30.8351 28.6615C30.7963 28.5896 30.7675 28.508 30.7509 28.4168C30.6326 27.77 29.7996 27.7832 29.4891 27.88ZM33.7449 26.9246C32.7846 26.6384 31.5913 26.7444 30.5219 27.2398C31.3847 27.0915 32.5948 26.9894 33.7449 26.9246Z" fill="#FF7400"/>
<path d="M21.7895 34.2632C21.4737 33.6316 20.3684 33.4737 19.579 33C18.9551 32.6258 19.3069 32.3233 19.5692 32.2146C20.191 32.0605 21.3158 33.3158 22.2631 33.7895C23.2105 34.2632 24 34.1053 24.6316 34.1053C25.2631 34.2632 26.3684 32.8421 26.5263 32.6842C26.6842 32.5263 26.8421 31.5789 26.3684 30.6316C25.8947 29.6842 25.1052 29.6842 24.9473 29.5263C24.7895 29.3684 25.1052 29.0526 25.421 29.0526C25.7368 29.0526 26.6842 28.8947 27.1579 28.5789C27.5368 28.3263 27.9473 28.7895 28.1052 29.0526C28.1579 29.1579 28.2 29.4 27.9473 29.5263C27.6316 29.6842 27.6316 30.6316 27.7895 31.421C27.9158 32.0526 28.7895 32.5263 29.2105 32.6842C29.3684 32.8421 31.8947 33 32.2105 32.8421C32.8421 32.6842 34.7368 31.5789 35.5263 31.2632C36.3158 30.9474 36.7895 32.5263 36.4737 32.8421C36.1579 33.1579 35.5263 33 35.0526 32.6842C34.5789 32.3684 33.1579 33.9474 33 34.2632C32.8737 34.5158 32.6315 34.3683 32.5263 34.2632C31.7684 33.8842 31.0526 34.5262 30.7895 34.8947C29.7789 36.5368 29.3158 37.0525 29.2105 37.1053C28.6316 36.7367 27.4737 35.9053 27.4737 35.5263C27.4737 35.1474 25.3684 35.0526 24.3158 35.0526C24.2631 34.9999 24.0316 34.8632 23.5263 34.7368C23.0526 34.7368 22.1052 34.8947 21.7895 34.2632Z" fill="#FF7400"/>
<path d="M22.1052 26.5263C22.6284 26.5263 23.0526 26.1729 23.0526 25.7369C23.0526 25.3008 22.6284 24.9474 22.1052 24.9474C21.582 24.9474 21.1578 25.3008 21.1578 25.7369C21.1578 26.1729 21.582 26.5263 22.1052 26.5263Z" fill="#FF7400"/>
<path d="M24 28.7369C24.6976 28.7369 25.2631 28.4541 25.2631 28.1053C25.2631 27.7565 24.6976 27.4737 24 27.4737C23.3024 27.4737 22.7368 27.7565 22.7368 28.1053C22.7368 28.4541 23.3024 28.7369 24 28.7369Z" fill="#FF7400"/>
<path d="M37.8947 29.3684C37.8947 28.8452 37.5413 28.4211 37.1053 28.4211C36.6693 28.4211 36.3158 28.8452 36.3158 29.3684C36.3158 29.8916 36.6693 30.3158 37.1053 30.3158C37.5413 30.3158 37.8947 29.8916 37.8947 29.3684Z" fill="#FF7400"/>
<path fill-rule="evenodd" clip-rule="evenodd" d="M23.5264 18.4737C24.4737 21.1579 26.7474 24.8842 32.6843 25.2631C38.6211 25.6421 36.6316 21 34.579 18.4737C32.6843 16.1417 25.4211 13.8947 23.5264 18.4737ZM29.2106 18C29.821 18 30.3158 17.8586 30.3158 17.6842C30.3158 17.5098 29.821 17.3684 29.2106 17.3684C28.6002 17.3684 28.1053 17.5098 28.1053 17.6842C28.1053 17.8586 28.6002 18 29.2106 18ZM30.3158 19.5789C30.3158 19.7533 29.8917 19.8947 29.3685 19.8947C28.8452 19.8947 28.4211 19.7533 28.4211 19.5789C28.4211 19.4045 28.8452 19.2631 29.3685 19.2631C29.8917 19.2631 30.3158 19.4045 30.3158 19.5789ZM32.8422 20.5263C33.3654 20.5263 33.7895 20.3142 33.7895 20.0526C33.7895 19.791 33.3654 19.5789 32.8422 19.5789C32.3189 19.5789 31.8948 19.791 31.8948 20.0526C31.8948 20.3142 32.3189 20.5263 32.8422 20.5263Z" fill="#FF7400"/>
<path d="M23.5395 19.2381C25.5606 25.1749 32.3816 25.817 35.5395 25.3959H35.6974C37.0869 25.1433 36.2763 26.6591 35.6974 27.4486C35.4868 27.6591 35.0027 27.9538 34.7501 27.4486C34.4343 26.817 33.6448 27.1328 33.4869 26.9749C33.329 26.817 33.0132 27.1328 33.0132 27.2907C33.0132 27.4486 32.3816 28.0802 31.9079 28.0802C31.4343 28.0802 30.8027 27.6065 30.329 27.1328C29.9501 26.7538 29.329 27.3959 29.0658 27.7644C29.0132 27.817 28.7501 27.9223 28.1185 27.9223C27.329 27.9223 26.6974 26.6591 26.5395 26.1854C26.4132 25.8065 26.1711 25.9223 26.0658 26.0275C25.9079 26.2381 25.4343 26.5959 24.8027 26.3433C24.1711 26.0907 23.5922 24.5538 23.3816 23.817C22.6237 23.9433 21.6448 23.1854 21.0132 22.7117C22.2764 21.2907 22.329 20.817 22.1185 20.6591C21.6974 20.5012 20.8869 20.0275 21.0132 19.3959C21.1395 18.7644 22.7501 19.0275 23.5395 19.2381Z" fill="#FF7400"/>
<path d="M20.0526 38.8421C16.7368 36 12.6316 28.7368 20.0526 21.1579" stroke="#FF7400" stroke-width="3" stroke-linecap="round"/>
<path d="M37.579 21.4737C40.8948 24.3158 45 31.579 37.579 39.1579" stroke="#FF7400" stroke-width="3" stroke-linecap="round"/>
</svg>
