<svg width="24" height="24" viewBox="0 0 24 24" fill="none" xmlns="http://www.w3.org/2000/svg">
<path fill-rule="evenodd" clip-rule="evenodd" d="M6.75736 6.75736C4.35621 9.15851 3.19156 11.8349 2.88504 14.1937C2.58607 16.4945 3.09549 18.6518 4.28249 19.8388C5.07323 20.6296 5.99325 21.0191 7.00196 20.9999C7.96337 20.9815 8.89623 20.5936 9.76635 20.061C11.4631 19.0224 13.2983 17.1871 15.1669 15.3183L15.3183 15.1669C17.1871 13.2983 19.0224 11.4631 20.061 9.76635C20.5936 8.89623 20.9815 7.96337 20.9999 7.00196C21.0191 5.99325 20.6296 5.07323 19.8388 4.28249C18.6518 3.09549 16.4945 2.58607 14.1937 2.88504C11.8349 3.19156 9.15851 4.35621 6.75736 6.75736ZM5.69082 11.6643C5.32708 12.4508 5.08706 13.2212 4.94891 13.948C5.36839 14.3077 5.86757 14.5859 6.44114 14.7771C6.96508 14.9517 7.5314 14.6685 7.70604 14.1446C7.88068 13.6206 7.59751 13.0543 7.07357 12.8797C6.40714 12.6576 5.96194 12.2681 5.69082 11.6643ZM13.1113 5.14906C12.4928 5.32735 11.852 5.57939 11.2039 5.91717C11.7236 6.7636 12.5026 7.36948 13.5122 7.70599C14.0362 7.88063 14.6025 7.59746 14.7771 7.07352C14.9517 6.54957 14.6686 5.98326 14.1446 5.80862C13.7108 5.664 13.3707 5.44849 13.1113 5.14906ZM9.3206 8.4367C9.06213 8.17823 8.8487 7.91603 8.69033 7.67865C8.51641 7.83544 8.34337 7.99965 8.1715 8.17152C7.84969 8.49333 7.55473 8.81926 7.28506 9.14734C7.47926 9.39831 7.69121 9.63574 7.90638 9.85091C8.49063 10.4352 9.23896 10.9956 9.97666 11.2415C10.5006 11.4162 11.0669 11.133 11.2416 10.6091C11.4162 10.0851 11.133 9.5188 10.6091 9.34416C10.2861 9.2365 9.79701 8.91311 9.3206 8.4367Z" fill="black"/>
</svg>
