<svg width="24" height="24" viewBox="0 0 24 24" fill="none" xmlns="http://www.w3.org/2000/svg">
<path d="M9.93715 12.3918C9.94382 11.4583 10.1407 10.543 10.5085 9.73551C10.8762 8.92803 11.4023 8.25607 12.0352 7.7854C12.1612 7.65861 12.3108 7.57553 12.4694 7.54429C12.6281 7.51305 12.7904 7.5347 12.9405 7.60713C13.0907 7.67956 13.2235 7.80031 13.3261 7.95759C13.4287 8.11488 13.4976 8.30332 13.5261 8.50461C13.6809 9.08374 13.8684 9.64909 14.0186 10.2302C14.0587 10.4046 14.1342 10.5625 14.2376 10.6877C14.3409 10.813 14.4685 10.9012 14.6072 10.9435C15.0673 11.1122 15.5273 11.2789 15.985 11.4546C16.0452 11.469 16.1024 11.4987 16.1535 11.5417C16.2045 11.5847 16.2483 11.6403 16.2823 11.7052C16.3163 11.7701 16.3398 11.8429 16.3514 11.9195C16.3629 11.996 16.3624 12.0748 16.3498 12.1511C16.3428 12.2334 16.322 12.3129 16.2889 12.3842C16.2557 12.4554 16.2109 12.5168 16.1575 12.5641C16.1042 12.6114 16.0434 12.6436 15.9795 12.6585C15.9155 12.6733 15.8498 12.6706 15.7868 12.6503C15.3259 12.5684 14.8667 12.4767 14.4097 12.3642C14.0671 12.2988 13.7422 12.1277 13.4633 11.8658C13.1845 11.6039 12.9601 11.2592 12.8097 10.8616C12.7322 10.6643 12.6377 10.4759 12.5363 10.2509C12.1801 10.693 11.9408 11.2654 11.8516 11.8887C11.7951 12.1748 11.8516 12.3109 12.0747 12.4086C12.7376 12.6977 13.3959 13.0065 14.0511 13.3242C14.1816 13.3641 14.3022 13.4453 14.4015 13.5602C14.5009 13.6751 14.576 13.8201 14.6198 13.9817C14.6637 14.1433 14.6748 14.3164 14.6523 14.4849C14.6298 14.6535 14.5743 14.8121 14.491 14.9461C14.1627 15.6368 13.8111 16.3096 13.4633 16.9854C13.217 17.4639 13.2124 17.46 13.4633 17.9454C13.4788 17.975 13.5059 18.0056 13.5059 18.0352C13.5059 18.194 13.5439 18.4032 13.4803 18.4979C13.4336 18.5566 13.3769 18.6007 13.3145 18.6267C13.2522 18.6527 13.1859 18.6599 13.121 18.6479C12.7868 18.5273 12.4597 18.377 12.1421 18.198C12.0803 18.1723 12.0238 18.1292 11.9769 18.072C11.9299 18.0148 11.8936 17.9449 11.8707 17.8674C11.8478 17.7899 11.8389 17.7069 11.8446 17.6244C11.8502 17.5419 11.8704 17.4622 11.9035 17.3909C12.1467 16.6457 12.3907 15.9005 12.6354 15.1553C12.6555 15.0932 12.6703 15.029 12.6912 14.958C12.173 14.7607 11.6666 14.5693 11.1655 14.366C10.9449 14.288 10.7325 14.1767 10.5327 14.0345C10.322 13.8601 10.1542 13.6133 10.0488 13.3227C9.94347 13.032 9.90475 12.7093 9.93715 12.3918V12.3918Z" fill="black"/>
<path d="M8.74651 13.2857C8.29499 13.2926 7.8427 13.2798 7.39118 13.2916C7.20405 13.2968 7.01777 13.3255 6.83509 13.3775C6.45108 13.4808 6.09703 13.7175 5.81216 14.0615C5.52728 14.4054 5.32271 14.8431 5.22109 15.326L5.05848 15.9466L4.96091 15.9318C4.81733 15.5057 4.76398 15.0391 4.80624 14.5786C4.84851 14.1181 4.98485 13.6798 5.20171 13.3074C4.76645 13.188 4.55041 12.9266 4.54266 12.4767C4.52201 11.3132 4.50811 10.1493 4.50088 8.98511C4.4963 8.87566 4.50965 8.7662 4.54011 8.6637C4.57058 8.5612 4.61744 8.46789 4.67776 8.38974C4.73809 8.31159 4.81054 8.2503 4.89048 8.20978C4.97042 8.16926 5.05607 8.15039 5.14205 8.15438C6.09414 8.1432 7.04632 8.1432 7.99841 8.15438C8.18549 8.15428 8.36624 8.24046 8.50732 8.39697C8.64841 8.55348 8.74026 8.76975 8.76589 9.00583C8.93937 10.1555 9.11051 11.3066 9.27934 12.4589C9.30225 12.5601 9.30548 12.6668 9.2888 12.7699C9.27211 12.873 9.23601 12.9694 9.18357 13.0508C9.13113 13.1321 9.06392 13.196 8.98778 13.237C8.91164 13.2779 8.82885 13.2946 8.74651 13.2857V13.2857Z" fill="black"/>
<path d="M16.1834 14.3814C16.3267 14.2896 16.3848 14.2018 16.3236 13.9976C16.28 13.8369 16.2469 13.6719 16.2245 13.5043C16.1826 13.2419 16.2523 13.0623 16.4072 13.011C16.5768 12.9528 16.7116 13.0712 16.7681 13.3356C16.8192 13.5734 16.8649 13.8141 16.9176 14.0795C17.1059 14.0661 17.2947 14.0661 17.483 14.0795C17.9491 14.1529 18.3864 14.4062 18.7361 14.8055C19.0858 15.2048 19.3312 15.731 19.4393 16.3132C19.5465 16.8966 19.5116 17.5078 19.3392 18.0653C19.1668 18.6228 18.8651 19.1002 18.4743 19.4338C18.0834 19.763 17.6228 19.932 17.1543 19.918C16.6858 19.9041 16.2319 19.7079 15.8535 19.3558C15.5378 19.0582 15.2872 18.6626 15.1254 18.2067C14.9636 17.7509 14.896 17.2499 14.9291 16.7514C14.9621 16.2528 15.0947 15.7734 15.3143 15.3586C15.5338 14.9437 15.833 14.6074 16.1834 14.3814V14.3814ZM15.9178 17.6076C16.038 18.0176 16.2738 18.356 16.5792 18.5566C16.8846 18.7573 17.2378 18.8058 17.5697 18.6928C17.9093 18.5728 18.2002 18.2927 18.3835 17.9094C18.5669 17.5261 18.629 17.0683 18.5572 16.6288C18.4918 16.2202 18.3122 15.8557 18.0516 15.6032C17.791 15.3508 17.4673 15.2275 17.1407 15.2565C17.2018 15.5584 17.2568 15.8554 17.3265 16.1444C17.3381 16.1947 17.404 16.2293 17.4535 16.2609C17.534 16.3049 17.6062 16.3702 17.6654 16.4525C17.7245 16.5347 17.7694 16.632 17.7969 16.7379C17.8244 16.8438 17.834 16.9559 17.825 17.0669C17.816 17.1778 17.7886 17.2851 17.7447 17.3816C17.7031 17.4739 17.6472 17.5544 17.5805 17.6184C17.5137 17.6824 17.4375 17.7286 17.3564 17.7541C17.2753 17.7797 17.191 17.784 17.1085 17.767C17.0261 17.7499 16.9472 17.7118 16.8766 17.6549C16.8037 17.5937 16.7416 17.5138 16.6942 17.4205C16.6468 17.3271 16.615 17.2223 16.601 17.1126C16.5869 17.0028 16.5909 16.8906 16.6126 16.7829C16.6343 16.6752 16.6733 16.5744 16.7271 16.4868C16.767 16.4021 16.7821 16.3021 16.7697 16.2046C16.7317 15.9451 16.6729 15.6916 16.6148 15.4153C16.3048 15.604 16.0614 15.9335 15.9324 16.3392C15.8034 16.7448 15.7982 17.1973 15.9178 17.6076V17.6076Z" fill="black"/>
<path d="M7.89875 14.0714C8.20062 14.0664 8.50022 14.1382 8.78005 14.2825C9.05989 14.4268 9.31431 14.6408 9.52844 14.9119C9.74256 15.183 9.91215 15.5058 10.0271 15.8614C10.1421 16.217 10.2003 16.5983 10.1982 16.9829C10.2008 17.3672 10.1438 17.7485 10.0303 18.1047C9.91677 18.4609 9.74907 18.7849 9.53685 19.0582C9.32464 19.3314 9.07211 19.5485 8.79376 19.6969C8.51541 19.8454 8.21676 19.9222 7.91501 19.9229C7.61319 19.9235 7.31432 19.848 7.03549 19.7008C6.75667 19.5536 6.50338 19.3376 6.29033 19.0653C6.07727 18.7929 5.90859 18.4696 5.79399 18.1139C5.67938 17.7582 5.62115 17.3772 5.62258 16.9927C5.62114 16.2211 5.85995 15.4803 6.28664 14.9327C6.71333 14.385 7.29306 14.0753 7.89875 14.0714ZM7.91576 18.7558C8.28133 18.7506 8.63073 18.5627 8.88859 18.2326C9.14644 17.9024 9.29214 17.4565 9.29436 16.9907C9.29172 16.5242 9.14501 16.0777 8.88603 15.7478C8.62705 15.4179 8.27662 15.2311 7.91037 15.2277C7.72927 15.2286 7.55008 15.2752 7.38322 15.3648C7.21635 15.4545 7.06511 15.5854 6.93821 15.75C6.81131 15.9146 6.71127 16.1096 6.64391 16.3238C6.57654 16.5379 6.54321 16.767 6.54577 16.9976C6.5433 17.2281 6.57686 17.4568 6.64457 17.6705C6.71227 17.8842 6.81277 18.0786 6.9401 18.2422C7.06744 18.4059 7.21902 18.5356 7.38615 18.6238C7.55328 18.712 7.7326 18.7569 7.91349 18.7558H7.91576Z" fill="black"/>
<path d="M15.9429 6.07769C15.4885 5.96642 15.0398 5.82047 14.5992 5.64064C14.3095 5.53112 14.1546 5.64755 14.1957 6.02838C14.2393 6.35153 14.2959 6.67159 14.3653 6.98734C14.3839 7.11045 14.4297 7.22428 14.4973 7.31534C14.565 7.4064 14.6517 7.47097 14.7471 7.50141C15.1413 7.63559 15.5363 7.76582 15.9344 7.87928C16.1202 7.93157 16.1667 8.01148 16.0482 8.21077C15.9746 8.35875 15.8661 8.47326 15.7382 8.53793C15.6104 8.60261 15.4698 8.61414 15.3365 8.57087C14.8512 8.42536 14.3747 8.23576 13.9107 8.00357C13.606 7.84011 13.349 7.55952 13.1756 7.20099C13.0022 6.84246 12.921 6.42391 12.9433 6.00375C12.9772 5.76049 13.0278 5.52148 13.0944 5.28945C13.2222 4.90825 13.44 4.58716 13.7176 4.37077C13.9951 4.15438 14.3187 4.05343 14.6433 4.08185C14.9927 4.1059 15.3287 4.26044 15.6096 4.52625C15.8904 4.79207 16.1036 5.15734 16.2225 5.5765C16.3379 5.97904 16.2674 6.1438 15.9429 6.07769Z" fill="black"/>
<path d="M18.0367 13.4568C17.8434 13.39 17.6568 13.295 17.4806 13.1736C17.3345 13.0765 17.2125 12.9296 17.1281 12.7493C17.0437 12.569 17.0003 12.3623 17.0028 12.1524C17.0011 11.8352 17.0766 11.5251 17.2187 11.2646C17.3608 11.004 17.5626 10.8059 17.7966 10.6972C17.8484 10.6459 17.9089 10.6105 17.9732 10.5938C18.0376 10.5771 18.1041 10.5796 18.1675 10.6009C18.231 10.6223 18.2897 10.6621 18.3392 10.7171C18.3886 10.7721 18.4275 10.841 18.4526 10.9182C18.6574 11.3413 18.7562 11.8337 18.736 12.3301C18.6914 12.6095 18.6319 12.8847 18.5579 13.1539C18.5441 13.2215 18.5185 13.2843 18.4832 13.3378C18.4479 13.3913 18.4037 13.4341 18.3538 13.4631C18.3039 13.4921 18.2496 13.5066 18.1947 13.5055C18.1399 13.5044 18.0859 13.4877 18.0367 13.4568V13.4568Z" fill="black"/>
<path d="M14.515 5.81645C14.5475 5.80362 14.6451 5.9151 14.6505 5.9812C14.6559 6.0473 14.5947 6.14005 14.5312 6.29692C14.4437 6.15189 14.3601 6.07294 14.3655 6.00092C14.3709 5.9289 14.4522 5.83618 14.515 5.81645Z" fill="black"/>
<path d="M7.87857 16.2C7.96361 16.1933 8.04885 16.2087 8.1291 16.2452C8.20934 16.2817 8.28292 16.3385 8.34541 16.4123C8.4079 16.4861 8.45797 16.5753 8.49261 16.6745C8.52725 16.7737 8.54577 16.8807 8.54697 16.9893C8.54663 17.1996 8.48313 17.4018 8.36952 17.5544C8.2559 17.7071 8.10072 17.7985 7.93586 17.8101C7.8523 17.8131 7.76906 17.7951 7.691 17.757C7.61293 17.7189 7.54162 17.6616 7.48102 17.5882C7.42042 17.5149 7.37174 17.427 7.33789 17.3296C7.30404 17.2323 7.28562 17.1273 7.28372 17.0209C7.27966 16.917 7.2919 16.8131 7.31974 16.7153C7.34757 16.6175 7.39047 16.5278 7.44585 16.4514C7.50124 16.3749 7.56802 16.3133 7.64231 16.2702C7.7166 16.227 7.79695 16.2032 7.87857 16.2V16.2Z" fill="black"/>
</svg>
