<svg width="24" height="24" viewBox="0 0 24 24" fill="none" xmlns="http://www.w3.org/2000/svg">
<circle cx="12" cy="12" r="8" fill="black"/>
<path d="M17.3333 12.2945C17.3119 10.9192 16.7959 9.74067 15.7814 8.76442C15.7523 8.73658 15.7251 8.70503 15.696 8.67533C15.343 8.3097 14.7513 8.24289 14.3265 8.52314C13.892 8.80896 13.7426 9.34163 13.9871 9.78522C14.0452 9.89286 14.1325 9.99123 14.2237 10.0748C15.116 10.9025 15.4652 11.8955 15.1509 13.0555C14.8503 14.1635 14.086 14.8892 12.9492 15.2196C11.8455 15.5388 10.8154 15.3383 9.91924 14.6479C9.15107 14.0577 8.75728 13.2671 8.7437 12.3224C8.73207 11.5762 9.00364 10.9174 9.50994 10.3494C9.57395 10.2771 9.66124 10.2232 9.72914 10.1546C10.0143 9.87245 10.0919 9.53651 9.96967 9.16903C9.84359 8.79783 9.56037 8.57511 9.16077 8.50087C8.84846 8.44333 8.56718 8.52129 8.315 8.70688C7.87272 9.02983 7.57205 9.46042 7.30629 9.91514C6.84461 10.7058 6.63705 11.5595 6.67003 12.4634C6.70883 13.5659 7.09097 14.5495 7.81065 15.4107C8.49153 16.2237 9.34893 16.8009 10.3906 17.0923C12.15 17.5859 13.7911 17.3261 15.2654 16.2682C16.2237 15.5815 16.8522 14.6683 17.1625 13.5622C17.2809 13.1483 17.3313 12.7251 17.3333 12.2945Z" fill="white" stroke="black"/>
<path d="M13.0462 9.27291C13.0462 8.5899 13.0481 8.35137 13.0462 7.66836C13.0442 7.2786 12.8541 6.9835 12.5011 6.7979C12.1558 6.61601 11.795 6.62343 11.4575 6.81831C11.1335 7.00391 10.9531 7.28788 10.9531 7.65351C10.9492 9.02695 10.9492 9.50959 10.9531 10.883C10.955 11.3934 11.3605 11.8166 11.8881 11.8649C12.4351 11.9168 12.924 11.579 13.0326 11.0705C13.0481 10.9981 13.05 10.9239 13.05 10.8496C13.0462 10.1759 13.0462 9.94664 13.0462 9.27291Z" fill="white" stroke="black"/>
</svg>
