<svg width="28" height="24" viewBox="0 0 28 24" fill="none" xmlns="http://www.w3.org/2000/svg">
<g filter="url(#filter0_d_567_7669)">
<path d="M7 14.75C5.48 14.75 4.25 13.52 4.25 12C4.25 10.48 5.48 9.25 7 9.25C8.52 9.25 9.75 10.48 9.75 12C9.75 13.52 8.52 14.75 7 14.75ZM7 10.75C6.31 10.75 5.75 11.31 5.75 12C5.75 12.69 6.31 13.25 7 13.25C7.69 13.25 8.25 12.69 8.25 12C8.25 11.31 7.69 10.75 7 10.75Z" fill="#292D32"/>
<path d="M21 14.75C19.48 14.75 18.25 13.52 18.25 12C18.25 10.48 19.48 9.25 21 9.25C22.52 9.25 23.75 10.48 23.75 12C23.75 13.52 22.52 14.75 21 14.75ZM21 10.75C20.31 10.75 19.75 11.31 19.75 12C19.75 12.69 20.31 13.25 21 13.25C21.69 13.25 22.25 12.69 22.25 12C22.25 11.31 21.69 10.75 21 10.75Z" fill="#292D32"/>
<path d="M14 14.75C12.48 14.75 11.25 13.52 11.25 12C11.25 10.48 12.48 9.25 14 9.25C15.52 9.25 16.75 10.48 16.75 12C16.75 13.52 15.52 14.75 14 14.75ZM14 10.75C13.31 10.75 12.75 11.31 12.75 12C12.75 12.69 13.31 13.25 14 13.25C14.69 13.25 15.25 12.69 15.25 12C15.25 11.31 14.69 10.75 14 10.75Z" fill="#292D32"/>
</g>
<defs>
<filter id="filter0_d_567_7669" x="0.25" y="9.25" width="27.5" height="13.5" filterUnits="userSpaceOnUse" color-interpolation-filters="sRGB">
<feFlood flood-opacity="0" result="BackgroundImageFix"/>
<feColorMatrix in="SourceAlpha" type="matrix" values="0 0 0 0 0 0 0 0 0 0 0 0 0 0 0 0 0 0 127 0" result="hardAlpha"/>
<feOffset dy="4"/>
<feGaussianBlur stdDeviation="2"/>
<feComposite in2="hardAlpha" operator="out"/>
<feColorMatrix type="matrix" values="0 0 0 0 0 0 0 0 0 0 0 0 0 0 0 0 0 0 0.25 0"/>
<feBlend mode="normal" in2="BackgroundImageFix" result="effect1_dropShadow_567_7669"/>
<feBlend mode="normal" in="SourceGraphic" in2="effect1_dropShadow_567_7669" result="shape"/>
</filter>
</defs>
</svg>
