<svg width="24" height="24" viewBox="0 0 24 24" fill="none" xmlns="http://www.w3.org/2000/svg">
<path fill-rule="evenodd" clip-rule="evenodd" d="M10.7526 2.19676C10.1987 2.01213 9.59176 2.07875 9.09111 2.37914L4.97101 4.8512C4.3686 5.21265 4 5.86366 4 6.56619V20H3C2.44772 20 2 20.4477 2 21C2 21.5523 2.44772 22 3 22H21C21.5523 22 22 21.5523 22 21C22 20.4477 21.5523 20 21 20H20V6.72075C20 5.85989 19.4491 5.09562 18.6325 4.82339L10.7526 2.19676ZM9 4.76619L6 6.56618V20H9V4.76619Z" fill="black"/>
</svg>
