<svg width="24" height="24" viewBox="0 0 24 24" fill="none" xmlns="http://www.w3.org/2000/svg">
<path d="M13 4C13 4.55228 12.5523 5 12 5C11.4477 5 11 4.55228 11 4C11 3.44772 11.5 2.5 12.5 2C12.1812 2.63761 12.4722 3.05069 12.725 3.40951C12.8687 3.61345 13 3.79986 13 4Z" fill="black"/>
<path d="M13 7C13 6.44772 12.5523 6 12 6C11.4477 6 11 6.44772 11 7V9H9V7C9 6.44772 8.55228 6 8 6C7.44772 6 7 6.44772 7 7V9H6C4.34315 9 3 10.3431 3 12V13.5858L3.70711 14.2929C3.86887 14.4547 4.13113 14.4547 4.29289 14.2929C5.2357 13.3501 6.7643 13.3501 7.70711 14.2929C7.86887 14.4547 8.13113 14.4547 8.29289 14.2929C9.2357 13.3501 10.7643 13.3501 11.7071 14.2929C11.8689 14.4547 12.1311 14.4547 12.2929 14.2929C13.2357 13.3501 14.7643 13.3501 15.7071 14.2929C15.8689 14.4547 16.1311 14.4547 16.2929 14.2929C17.2357 13.3501 18.7643 13.3501 19.7071 14.2929C19.8689 14.4547 20.1311 14.4547 20.2929 14.2929L21 13.5858V12C21 10.3431 19.6569 9 18 9H17V7C17 6.44772 16.5523 6 16 6C15.4477 6 15 6.44772 15 7V9H13V7Z" fill="black"/>
<path d="M3 20C2.44772 20 2 20.4477 2 21C2 21.5523 2.44772 22 3 22H21C21.5523 22 22 21.5523 22 21C22 20.4477 21.5523 20 21 20V16.1981C20.1101 16.6028 19.0249 16.4391 18.2929 15.7071C18.1311 15.5453 17.8689 15.5453 17.7071 15.7071C16.7643 16.6499 15.2357 16.6499 14.2929 15.7071C14.1311 15.5453 13.8689 15.5453 13.7071 15.7071C12.7643 16.6499 11.2357 16.6499 10.2929 15.7071C10.1311 15.5453 9.86887 15.5453 9.70711 15.7071C8.7643 16.6499 7.2357 16.6499 6.29289 15.7071C6.13113 15.5453 5.86887 15.5453 5.70711 15.7071C4.97508 16.4391 3.88993 16.6028 3 16.1981V20Z" fill="black"/>
<path d="M8 5C8.55228 5 9 4.55228 9 4C9 3.79986 8.86867 3.61345 8.725 3.40951C8.47221 3.05069 8.18119 2.63761 8.5 2C7.5 2.5 7 3.44772 7 4C7 4.55228 7.44772 5 8 5Z" fill="black"/>
<path d="M17 4C17 4.55228 16.5523 5 16 5C15.4477 5 15 4.55228 15 4C15 3.44772 15.5 2.5 16.5 2C16.1812 2.63761 16.4722 3.05069 16.725 3.40951C16.8687 3.61345 17 3.79986 17 4Z" fill="black"/>
</svg>
