<svg width="26" height="26" viewBox="0 0 26 26" fill="none" xmlns="http://www.w3.org/2000/svg">
<rect width="24" height="24" transform="matrix(-1 0 0 1 25 1)" fill="white" fill-opacity="0.01"/>
<path d="M25 1H1M25 1V25M25 1L1 25M1 1V25M1 1L25 25M1 25H25" stroke="white" stroke-width="0.13"/>
<circle cx="10" cy="10" r="10" transform="matrix(-1 0 0 1 23 3)" stroke="white" stroke-width="0.13"/>
<rect width="20" height="16" rx="1" transform="matrix(-1 0 0 1 23 5)" stroke="white" stroke-width="0.13"/>
<rect width="16" height="20" rx="1" transform="matrix(-1 0 0 1 21 3)" stroke="white" stroke-width="0.13"/>
<rect width="18" height="18" rx="1" transform="matrix(-1 0 0 1 22 4)" stroke="white" stroke-width="0.13"/>
<circle cx="4" cy="4" r="4" transform="matrix(-1 0 0 1 17 9)" stroke="white" stroke-width="0.13"/>
<path fill-rule="evenodd" clip-rule="evenodd" d="M10 6.05415C9.93535 7.69646 10 18.0271 10 18.0271C10.1602 18.0271 10.3204 18.0528 10.4743 18.1041L16 19.946V7.97301C15.8398 7.97301 15.6796 7.94735 15.5257 7.89603L10 6.05415ZM9.52566 4.10407C9.83356 4.00144 10.1664 4.00144 10.4743 4.10407L16 5.94596L21.2889 4.18299C22.1307 3.9024 23 4.52896 23 5.41628V18.6397C23 19.2853 22.5869 19.8585 21.9743 20.0627L16.4743 21.896C16.1664 21.9987 15.8336 21.9987 15.5257 21.896L10 20.0541L4.7111 21.8171C3.86931 22.0977 3 21.4712 3 20.5838V7.36043C3 6.71479 3.41315 6.14158 4.02566 5.93741L9.52566 4.10407Z" fill="black"/>
</svg>
