<svg width="24" height="24" viewBox="0 0 24 24" fill="none" xmlns="http://www.w3.org/2000/svg">
<path d="M10.921 21.0543C10.4525 21.0544 9.98519 21.0073 9.52615 20.9137C8.64096 20.7324 7.80014 20.3786 7.05166 19.8724C5.93891 19.1212 5.0679 18.0634 4.54416 16.8272C4.36711 16.4086 4.23193 15.9735 4.14062 15.5282C3.95313 14.6078 3.95313 13.659 4.14062 12.7386C4.32194 11.8534 4.67578 11.0125 5.18195 10.2641C5.93315 9.15131 6.99094 8.2803 8.22715 7.75657C8.64577 7.57951 9.08089 7.44434 9.52615 7.35302C10.4466 7.16553 11.3954 7.16553 12.3158 7.35302C13.201 7.53434 14.0418 7.88818 14.7903 8.39435C15.903 9.14555 16.7741 10.2033 17.2978 11.4396C17.4748 11.8582 17.61 12.2933 17.7013 12.7386C17.8857 13.6443 17.8886 14.5777 17.7099 15.4846C17.5565 16.2646 17.2683 17.0119 16.858 17.6929C16.2437 18.7188 15.3737 19.5678 14.333 20.157C13.2924 20.7461 12.1168 21.0553 10.921 21.0543V21.0543ZM13.305 10.8912C13.1928 10.8911 13.0818 10.9132 12.9782 10.9561C12.8746 10.999 12.7805 11.062 12.7012 11.1414L10.2821 13.5573C10.1219 13.7179 10.0319 13.9355 10.0321 14.1623C10.0323 14.3892 10.1227 14.6067 10.2832 14.7669C10.4437 14.9272 10.6614 15.0171 10.8882 15.0169C11.115 15.0167 11.3325 14.9264 11.4928 14.7658L12.7012 13.5573L13.9097 12.3499C14.0305 12.231 14.1131 12.0787 14.1468 11.9125C14.1806 11.7463 14.164 11.5739 14.0991 11.4172C14.0343 11.2606 13.9242 11.1268 13.7829 11.0331C13.6416 10.9394 13.4756 10.89 13.306 10.8912H13.305Z" fill="black"/>
<path d="M7.5332 3.8507C7.5332 3.61066 7.62856 3.38046 7.79828 3.21074C7.96801 3.04101 8.19821 2.94566 8.43824 2.94566L13.8685 2.94566C14.1085 2.94566 14.3387 3.04101 14.5085 3.21074C14.6782 3.38046 14.7735 3.61066 14.7735 3.8507C14.7735 4.09073 14.6782 4.32093 14.5085 4.49066C14.3387 4.66039 14.1085 4.75574 13.8685 4.75574H8.43824C8.19821 4.75574 7.96801 4.66039 7.79828 4.49066C7.62856 4.32093 7.5332 4.09073 7.5332 3.8507V3.8507Z" fill="black"/>
<path d="M16.8229 5.54098C16.9982 5.36567 17.236 5.26717 17.4839 5.26717C17.7319 5.26717 17.9697 5.36567 18.145 5.54098L19.3391 6.73508C19.5144 6.91039 19.6129 7.14818 19.6129 7.39612C19.6129 7.64406 19.5144 7.88184 19.3391 8.05716C19.1638 8.23248 18.926 8.33097 18.678 8.33097C18.4301 8.33097 18.1923 8.23248 18.017 8.05716L16.8229 6.86307C16.6476 6.68775 16.5491 6.44997 16.5491 6.20203C16.5491 5.95409 16.6476 5.7163 16.8229 5.54098V5.54098Z" fill="black"/>
</svg>
