<svg width="500" height="500" viewBox="0 0 500 500" fill="none" xmlns="http://www.w3.org/2000/svg">
<path d="M340.25 376.18C420.53 356.57 453.13 264 427.19 182.63C420.59 161.89 410.19 142.44 395.96 126.92C373.57 102.51 340.65 93.58 309.87 93.02C285.29 92.57 261.59 100.57 239.07 110.7C202.61 127.09 163.5 131.97 127.07 147.56C90.12 163.36 66.46 198 61.38 241.31C58.78 263.47 61.57 286.49 70.48 306.68C84.29 337.96 111.8 356.58 141.2 366.68C203.58 388.23 276.32 391.8 340.25 376.18Z" fill="#FF7400"/>
<path opacity="0.7" d="M340.25 376.18C420.53 356.57 453.13 264 427.19 182.63C420.59 161.89 410.19 142.44 395.96 126.92C373.57 102.51 340.65 93.58 309.87 93.02C285.29 92.57 261.59 100.57 239.07 110.7C202.61 127.09 163.5 131.97 127.07 147.56C90.12 163.36 66.46 198 61.38 241.31C58.78 263.47 61.57 286.49 70.48 306.68C84.29 337.96 111.8 356.58 141.2 366.68C203.58 388.23 276.32 391.8 340.25 376.18Z" fill="white"/>
<path d="M415.09 156.88C412.09 155.25 410.74 156.61 409.65 155.25C408.56 153.89 412.65 150.35 404.48 146.81C404.48 146.81 403.94 139.2 392.78 138.92C381.62 138.64 384.62 146.54 381.63 148.45C378.64 150.36 377.82 147.36 374.83 149.26C371.84 151.16 373.19 154.97 370.75 155.52C368.31 156.07 365 153.07 362 155C359 156.93 359 158.54 357.65 158.54C356.3 158.54 353.57 157.45 351.94 158.54C350.31 159.63 348.4 160.99 348.4 160.99H417.23C417.23 160.99 418.08 158.51 415.09 156.88Z" fill="white"/>
<path d="M372.63 179.54C371.04 178.67 370.32 179.39 369.75 178.67C369.18 177.95 371.33 176.08 367.01 174.2C367.01 174.2 366.72 170.2 360.81 170.03C354.9 169.86 356.49 174.03 354.91 175.03C353.33 176.03 352.91 174.45 351.31 175.46C349.71 176.47 350.44 178.46 349.14 178.77C347.84 179.08 346.14 177.48 344.53 178.49C342.92 179.5 342.95 180.36 342.23 180.36C341.51 180.36 340.07 179.78 339.23 180.36C338.39 180.94 337.36 181.66 337.36 181.66H373.81C373.9 181.224 373.83 180.77 373.613 180.381C373.397 179.992 373.048 179.694 372.63 179.54Z" fill="white"/>
<path d="M126.17 177.86C124.59 177 123.86 177.72 123.29 177C122.72 176.28 124.87 174.41 120.55 172.53C120.55 172.53 120.26 168.53 114.36 168.36C108.46 168.19 110.03 172.36 108.45 173.36C106.87 174.36 106.45 172.78 104.85 173.79C103.25 174.8 103.98 176.79 102.69 177.1C101.4 177.41 99.69 175.81 98.08 176.82C96.47 177.83 96.49 178.69 95.77 178.69C95.05 178.69 93.61 178.11 92.77 178.69C91.93 179.27 90.9 179.99 90.9 179.99H127.35C127.44 179.553 127.371 179.097 127.154 178.707C126.938 178.316 126.589 178.016 126.17 177.86Z" fill="white"/>
<path d="M295.74 129.53C291.56 127.25 289.66 129.15 288.14 127.25C286.62 125.35 292.32 120.41 280.92 115.47C280.92 115.47 280.16 104.83 264.58 104.47C249 104.11 253.18 115.11 249 117.77C244.82 120.43 243.68 116.25 239.5 118.91C235.32 121.57 237.22 126.91 233.8 127.65C230.38 128.39 225.8 124.23 221.64 126.89C217.48 129.55 217.46 131.83 215.56 131.83C213.66 131.83 209.86 130.31 207.56 131.83C205.26 133.35 202.62 135.25 202.62 135.25H298.76C298.76 135.25 299.92 131.81 295.74 129.53Z" fill="white"/>
<path d="M79.3 329.75H273.78" stroke="#263238" stroke-linecap="round" stroke-linejoin="round"/>
<path d="M79.3 329.75H273.78" stroke="black" stroke-opacity="0.2" stroke-linecap="round" stroke-linejoin="round"/>
<path d="M119.45 330.35V337.84H76.3" stroke="#263238" stroke-linecap="round" stroke-linejoin="round"/>
<path d="M119.45 330.35V337.84H76.3" stroke="black" stroke-opacity="0.2" stroke-linecap="round" stroke-linejoin="round"/>
<path d="M147.91 341.14H85.5901" stroke="#263238" stroke-linecap="round" stroke-linejoin="round"/>
<path d="M147.91 341.14H85.5901" stroke="black" stroke-opacity="0.2" stroke-linecap="round" stroke-linejoin="round"/>
<path d="M280.65 329.75H440" stroke="#263238" stroke-linecap="round" stroke-linejoin="round"/>
<path d="M280.65 329.75H440" stroke="black" stroke-opacity="0.2" stroke-linecap="round" stroke-linejoin="round"/>
<path d="M321.4 330.35V337.84H148.06" stroke="#263238" stroke-linecap="round" stroke-linejoin="round"/>
<path d="M321.4 330.35V337.84H148.06" stroke="black" stroke-opacity="0.2" stroke-linecap="round" stroke-linejoin="round"/>
<path d="M435 341.14H168.1" stroke="#263238" stroke-linecap="round" stroke-linejoin="round"/>
<path d="M435 341.14H168.1" stroke="black" stroke-opacity="0.2" stroke-linecap="round" stroke-linejoin="round"/>
<path d="M292.64 327.65V280.31H349.27V327.65" stroke="#263238" stroke-linecap="round" stroke-linejoin="round"/>
<path d="M292.64 327.65V280.31H349.27V327.65" stroke="black" stroke-opacity="0.2" stroke-linecap="round" stroke-linejoin="round"/>
<path d="M325.89 279.71V233.27H296.83V280.01" stroke="#263238" stroke-linecap="round" stroke-linejoin="round"/>
<path d="M325.89 279.71V233.27H296.83V280.01" stroke="black" stroke-opacity="0.2" stroke-linecap="round" stroke-linejoin="round"/>
<path d="M301.33 233.27C301.33 233.27 303.12 225.78 312.11 225.78C321.1 225.78 323.2 233 323.2 233" stroke="#263238" stroke-linecap="round" stroke-linejoin="round"/>
<path d="M301.33 233.27C301.33 233.27 303.12 225.78 312.11 225.78C321.1 225.78 323.2 233 323.2 233" stroke="black" stroke-opacity="0.2" stroke-linecap="round" stroke-linejoin="round"/>
<path d="M307.92 225.78V138.28H323.5L335.48 257.84H354.36V283.61H369.34V294.09H395.11V329.75" stroke="#263238" stroke-linecap="round" stroke-linejoin="round"/>
<path d="M307.92 225.78V138.28H323.5L335.48 257.84H354.36V283.61H369.34V294.09H395.11V329.75" stroke="black" stroke-opacity="0.2" stroke-linecap="round" stroke-linejoin="round"/>
<path d="M323.5 138.28L322.9 226.68" stroke="#263238" stroke-linecap="round" stroke-linejoin="round"/>
<path d="M323.5 138.28L322.9 226.68" stroke="black" stroke-opacity="0.2" stroke-linecap="round" stroke-linejoin="round"/>
<path d="M315.41 137.98V106.82" stroke="#263238" stroke-linecap="round" stroke-linejoin="round"/>
<path d="M315.41 137.98V106.82" stroke="black" stroke-opacity="0.2" stroke-linecap="round" stroke-linejoin="round"/>
<path d="M362.75 283.61V242.86H383.43V271.32H390.62" stroke="#263238" stroke-linecap="round" stroke-linejoin="round"/>
<path d="M362.75 283.61V242.86H383.43V271.32H390.62" stroke="black" stroke-opacity="0.2" stroke-linecap="round" stroke-linejoin="round"/>
<path d="M392.11 293.49V265.63H411.29V326.45" stroke="#263238" stroke-linecap="round" stroke-linejoin="round"/>
<path d="M392.11 293.49V265.63H411.29V326.45" stroke="black" stroke-opacity="0.2" stroke-linecap="round" stroke-linejoin="round"/>
<path d="M405.9 266.53V326.75" stroke="#263238" stroke-linecap="round" stroke-linejoin="round"/>
<path d="M405.9 266.53V326.75" stroke="black" stroke-opacity="0.2" stroke-linecap="round" stroke-linejoin="round"/>
<path d="M394.51 265.93V259.94H405.6V264.73" stroke="#263238" stroke-linecap="round" stroke-linejoin="round"/>
<path d="M394.51 265.93V259.94H405.6V264.73" stroke="black" stroke-opacity="0.2" stroke-linecap="round" stroke-linejoin="round"/>
<path d="M399.61 259.04V204.5H411.29V217.99H424.47V248.25" stroke="#263238" stroke-linecap="round" stroke-linejoin="round"/>
<path d="M399.61 259.04V204.5H411.29V217.99H424.47V248.25" stroke="black" stroke-opacity="0.2" stroke-linecap="round" stroke-linejoin="round"/>
<path d="M420.28 325.56V249.15H429.27V324.96" stroke="#263238" stroke-linecap="round" stroke-linejoin="round"/>
<path d="M420.28 325.56V249.15H429.27V324.96" stroke="black" stroke-opacity="0.2" stroke-linecap="round" stroke-linejoin="round"/>
<path d="M411.29 217.99V254.54" stroke="#263238" stroke-linecap="round" stroke-linejoin="round"/>
<path d="M411.29 217.99V254.54" stroke="black" stroke-opacity="0.2" stroke-linecap="round" stroke-linejoin="round"/>
<path d="M400.8 204.2V200.91H407.69V204.2" stroke="#263238" stroke-linecap="round" stroke-linejoin="round"/>
<path d="M400.8 204.2V200.91H407.69V204.2" stroke="black" stroke-opacity="0.2" stroke-linecap="round" stroke-linejoin="round"/>
<path d="M402.9 200.61C402.9 200.61 402 198.21 402.9 198.21H406.2V200.91" stroke="#263238" stroke-linecap="round" stroke-linejoin="round"/>
<path d="M402.9 200.61C402.9 200.61 402 198.21 402.9 198.21H406.2V200.91" stroke="black" stroke-opacity="0.2" stroke-linecap="round" stroke-linejoin="round"/>
<path d="M129.34 258.44H90.38V327.65" stroke="#263238" stroke-linecap="round" stroke-linejoin="round"/>
<path d="M129.34 258.44H90.38V327.65" stroke="black" stroke-opacity="0.2" stroke-linecap="round" stroke-linejoin="round"/>
<path d="M126.94 247.95H96.38V258.74" stroke="#263238" stroke-linecap="round" stroke-linejoin="round"/>
<path d="M126.94 247.95H96.38V258.74" stroke="black" stroke-opacity="0.2" stroke-linecap="round" stroke-linejoin="round"/>
<path d="M102.07 247.35V235.07H127.95V244.79" stroke="#263238" stroke-linecap="round" stroke-linejoin="round"/>
<path d="M102.07 247.35V235.07H127.95V244.79" stroke="black" stroke-opacity="0.2" stroke-linecap="round" stroke-linejoin="round"/>
<path d="M108.66 234.77V197.31H122.75V234.98" stroke="#263238" stroke-linecap="round" stroke-linejoin="round"/>
<path d="M108.66 234.77V197.31H122.75V234.98" stroke="black" stroke-opacity="0.2" stroke-linecap="round" stroke-linejoin="round"/>
<path d="M412.79 351.62H351.06" stroke="#263238" stroke-linecap="round" stroke-linejoin="round"/>
<path d="M412.79 351.62H351.06" stroke="black" stroke-opacity="0.2" stroke-linecap="round" stroke-linejoin="round"/>
<path d="M374.74 363.01H322.6" stroke="#263238" stroke-linecap="round" stroke-linejoin="round"/>
<path d="M374.74 363.01H322.6" stroke="black" stroke-opacity="0.2" stroke-linecap="round" stroke-linejoin="round"/>
<path d="M342.97 354.92H313.91" stroke="#263238" stroke-linecap="round" stroke-linejoin="round"/>
<path d="M342.97 354.92H313.91" stroke="black" stroke-opacity="0.2" stroke-linecap="round" stroke-linejoin="round"/>
<path d="M359.45 346.83H348.97" stroke="#263238" stroke-linecap="round" stroke-linejoin="round"/>
<path d="M359.45 346.83H348.97" stroke="black" stroke-opacity="0.2" stroke-linecap="round" stroke-linejoin="round"/>
<path d="M274.96 351.92H292.94" stroke="#263238" stroke-linecap="round" stroke-linejoin="round"/>
<path d="M274.96 351.92H292.94" stroke="black" stroke-opacity="0.2" stroke-linecap="round" stroke-linejoin="round"/>
<path d="M132.5 364.8H100.14" stroke="#263238" stroke-linecap="round" stroke-linejoin="round"/>
<path d="M132.5 364.8H100.14" stroke="black" stroke-opacity="0.2" stroke-linecap="round" stroke-linejoin="round"/>
<path d="M82.29 354.92H101.47" stroke="#263238" stroke-linecap="round" stroke-linejoin="round"/>
<path d="M82.29 354.92H101.47" stroke="black" stroke-opacity="0.2" stroke-linecap="round" stroke-linejoin="round"/>
<path d="M107.16 355.22H111.36" stroke="#263238" stroke-linecap="round" stroke-linejoin="round"/>
<path d="M107.16 355.22H111.36" stroke="black" stroke-opacity="0.2" stroke-linecap="round" stroke-linejoin="round"/>
<path d="M116.15 348.93H96.0801" stroke="#263238" stroke-linecap="round" stroke-linejoin="round"/>
<path d="M116.15 348.93H96.0801" stroke="black" stroke-opacity="0.2" stroke-linecap="round" stroke-linejoin="round"/>
<path d="M81.6901 372.3H97.1101" stroke="#263238" stroke-linecap="round" stroke-linejoin="round"/>
<path d="M81.6901 372.3H97.1101" stroke="black" stroke-opacity="0.2" stroke-linecap="round" stroke-linejoin="round"/>
<path d="M371.09 372.3H386.5" stroke="#263238" stroke-linecap="round" stroke-linejoin="round"/>
<path d="M371.09 372.3H386.5" stroke="black" stroke-opacity="0.2" stroke-linecap="round" stroke-linejoin="round"/>
<path d="M294.14 364.8H261.78" stroke="#263238" stroke-linecap="round" stroke-linejoin="round"/>
<path d="M294.14 364.8H261.78" stroke="black" stroke-opacity="0.2" stroke-linecap="round" stroke-linejoin="round"/>
<path d="M171.14 351.92H258.6" stroke="#263238" stroke-linecap="round" stroke-linejoin="round"/>
<path d="M171.14 351.92H258.6" stroke="black" stroke-opacity="0.2" stroke-linecap="round" stroke-linejoin="round"/>
<path d="M129.73 248.36H132.41V259.06H136.42V327.3" stroke="#263238" stroke-linecap="round" stroke-linejoin="round"/>
<path d="M129.73 248.36H132.41V259.06H136.42V327.3" stroke="black" stroke-opacity="0.2" stroke-linecap="round" stroke-linejoin="round"/>
<path d="M127.95 235.07V207.33H158.72V259.06" stroke="#263238" stroke-linecap="round" stroke-linejoin="round"/>
<path d="M127.95 235.07V207.33H158.72V259.06" stroke="black" stroke-opacity="0.2" stroke-linecap="round" stroke-linejoin="round"/>
<path d="M137.31 264.86H170.31V328.19" stroke="#263238" stroke-linecap="round" stroke-linejoin="round"/>
<path d="M137.31 264.86H170.31V328.19" stroke="black" stroke-opacity="0.2" stroke-linecap="round" stroke-linejoin="round"/>
<path d="M159.16 234.09H177.45V328.63" stroke="#263238" stroke-linecap="round" stroke-linejoin="round"/>
<path d="M159.16 234.09H177.45V328.63" stroke="black" stroke-opacity="0.2" stroke-linecap="round" stroke-linejoin="round"/>
<path d="M177.45 234.09V197.97H199.3V328.19" stroke="#263238" stroke-linecap="round" stroke-linejoin="round"/>
<path d="M177.45 234.09V197.97H199.3V328.19" stroke="black" stroke-opacity="0.2" stroke-linecap="round" stroke-linejoin="round"/>
<path d="M182.8 197.78V194.84H194.4V197.55" stroke="#263238" stroke-linecap="round" stroke-linejoin="round"/>
<path d="M182.8 197.78V194.84H194.4V197.55" stroke="black" stroke-opacity="0.2" stroke-linecap="round" stroke-linejoin="round"/>
<path d="M185.33 194.67V191H191.33V194.67" stroke="#263238" stroke-linecap="round" stroke-linejoin="round"/>
<path d="M185.33 194.67V191H191.33V194.67" stroke="black" stroke-opacity="0.2" stroke-linecap="round" stroke-linejoin="round"/>
<path d="M199 217.67H219.33V260.67H247V329" stroke="#263238" stroke-linecap="round" stroke-linejoin="round"/>
<path d="M199 217.67H219.33V260.67H247V329" stroke="black" stroke-opacity="0.2" stroke-linecap="round" stroke-linejoin="round"/>
<path d="M246.67 297H205.67V328.67" stroke="#263238" stroke-linecap="round" stroke-linejoin="round"/>
<path d="M246.67 297H205.67V328.67" stroke="black" stroke-opacity="0.2" stroke-linecap="round" stroke-linejoin="round"/>
<path d="M247 318H269.33V225.67H282.67H301.33" stroke="#263238" stroke-linecap="round" stroke-linejoin="round"/>
<path d="M247 318H269.33V225.67H282.67H301.33" stroke="black" stroke-opacity="0.2" stroke-linecap="round" stroke-linejoin="round"/>
<path d="M269.67 233.67H241V260.33" stroke="#263238" stroke-linecap="round" stroke-linejoin="round"/>
<path d="M269.67 233.67H241V260.33" stroke="black" stroke-opacity="0.2" stroke-linecap="round" stroke-linejoin="round"/>
<path d="M243.33 233.67V229.33H249.33V225H265.33V229H267.67" stroke="#263238" stroke-linecap="round" stroke-linejoin="round"/>
<path d="M243.33 233.67V229.33H249.33V225H265.33V229H267.67" stroke="black" stroke-opacity="0.2" stroke-linecap="round" stroke-linejoin="round"/>
<path d="M263.4 191.17C268.48 188.68 274.04 183.79 276.78 174.17C279.05 166.25 278.1 159.11 274.04 153.51C271.996 150.767 269.384 148.498 266.383 146.857C263.382 145.216 260.062 144.241 256.65 144C256.577 143.995 256.503 144.004 256.433 144.028C256.364 144.052 256.3 144.09 256.246 144.14C256.191 144.19 256.148 144.25 256.118 144.317C256.087 144.384 256.071 144.456 256.07 144.53C256.067 144.604 256.079 144.677 256.105 144.746C256.131 144.815 256.17 144.878 256.22 144.932C256.27 144.986 256.33 145.029 256.397 145.06C256.464 145.09 256.536 145.107 256.61 145.11C259.854 145.342 263.009 146.271 265.862 147.832C268.714 149.394 271.197 151.552 273.14 154.16C276.99 159.47 277.88 166.28 275.72 173.87C274.526 178.436 272.17 182.615 268.88 186C271.17 182.916 272.67 179.318 273.25 175.52C274.47 168.52 273.2 162.76 269.48 158.34C268.036 156.654 266.327 155.215 264.42 154.08C253.63 143.89 232.84 143.81 220.21 153.44C205.31 164.79 201.76 178.98 186.16 198.84C170.56 218.7 154.24 232.84 129.41 232.84C104.58 232.84 92.99 276.46 122.31 289.59C151.63 302.72 205.31 306.59 230.14 295.27C254.97 283.95 268.45 282.5 287.6 251.27C304.3 224.15 283.57 193.16 263.4 191.17ZM268.63 159.09C272.13 163.24 273.31 168.72 272.16 175.36C270.8 183.13 266.99 187.36 263.28 189.77C266.66 185.92 275.57 173.96 269.16 160.56C268.762 159.755 268.318 158.974 267.83 158.22C268.1 158.5 268.37 158.78 268.63 159.09Z" fill="#263238"/>
<path d="M123 286.48C125.372 287.597 127.875 288.414 130.45 288.91" stroke="white" stroke-linecap="round" stroke-linejoin="round"/>
<path d="M249.45 193.56C249.45 193.56 257.45 174.16 244.8 165.72C234.48 158.84 222.02 171.63 218.23 182.17C214.44 192.71 207.23 211.28 186.17 222.25C165.11 233.22 112.34 238.7 109.39 261.91C107.88 273.75 113.39 280.53 119.17 284.34" stroke="white" stroke-linecap="round" stroke-linejoin="round"/>
<path d="M262.42 172.07C262.525 170.065 262.275 168.057 261.68 166.14" stroke="white" stroke-linecap="round" stroke-linejoin="round"/>
<path d="M249.45 193.56C253.03 189.45 258.9 184.03 261.33 177.29" stroke="white" stroke-linecap="round" stroke-linejoin="round"/>
<path d="M247.76 192.72C247.76 192.72 244.38 174.58 234.68 176.27C224.98 177.96 230.46 188.08 230.46 188.08" stroke="white" stroke-linecap="round" stroke-linejoin="round"/>
<path d="M260 199.05C260 199.05 295 214.66 292.49 235.75" stroke="white" stroke-linecap="round" stroke-linejoin="round"/>
<path d="M277.4 257C275.858 259.063 274.127 260.978 272.23 262.72" stroke="white" stroke-linecap="round" stroke-linejoin="round"/>
<path d="M270.54 205C270.54 205 292.11 229.75 280.23 252.56" stroke="white" stroke-linecap="round" stroke-linejoin="round"/>
<path d="M214.46 226.3C214.46 226.3 211.67 221.49 209.64 226.05C207.61 230.61 215.72 241.24 217.24 239.47C218.76 237.7 214.46 226.3 214.46 226.3Z" fill="#FF7400"/>
<mask id="mask0_27_12682" style="mask-type:luminance" maskUnits="userSpaceOnUse" x="209" y="224" width="9" height="16">
<path d="M214.46 226.3C214.46 226.3 211.67 221.49 209.64 226.05C207.61 230.61 215.72 241.24 217.24 239.47C218.76 237.7 214.46 226.3 214.46 226.3Z" fill="white"/>
</mask>
<g mask="url(#mask0_27_12682)">
<path opacity="0.5" d="M214.46 226.3C214.46 226.3 211.67 221.49 209.64 226.05C207.61 230.61 215.72 241.24 217.24 239.47C218.76 237.7 214.46 226.3 214.46 226.3Z" fill="white"/>
</g>
<path d="M214.46 226.3C214.46 226.3 211.67 221.49 209.64 226.05C207.61 230.61 215.72 241.24 217.24 239.47C218.76 237.7 214.46 226.3 214.46 226.3Z" stroke="#263238" stroke-linecap="round" stroke-linejoin="round"/>
<path d="M129.74 409.53C129.74 409.53 132.13 400.59 135.93 385.64C139.73 370.69 163 277.47 177 262C191 246.53 196.75 261.49 211.45 267.32C226.15 273.15 229.69 273.9 229.69 273.9C229.69 273.9 232.69 274.41 242.1 279.48C251.51 284.55 255.53 286.32 263.89 288.85C272.25 291.38 283.14 297.21 277.82 314.69C272.5 332.17 258 358.79 257 377.54C256 396.29 261.07 409.54 261.07 409.54" fill="white"/>
<mask id="mask1_27_12682" style="mask-type:luminance" maskUnits="userSpaceOnUse" x="129" y="255" width="151" height="155">
<path d="M129.74 409.53C129.74 409.53 132.13 400.59 135.93 385.64C139.73 370.69 163 277.47 177 262C191 246.53 196.75 261.49 211.45 267.32C226.15 273.15 229.69 273.9 229.69 273.9C229.69 273.9 232.69 274.41 242.1 279.48C251.51 284.55 255.53 286.32 263.89 288.85C272.25 291.38 283.14 297.21 277.82 314.69C272.5 332.17 258 358.79 257 377.54C256 396.29 261.07 409.54 261.07 409.54" fill="white"/>
</mask>
<g mask="url(#mask1_27_12682)">
<path d="M186 273.81C202 277.23 214.94 304.27 214.94 304.27L238.55 285.61C238.66 285.27 238.55 281.94 238.22 277.47C231.89 274.3 229.7 273.92 229.7 273.92C229.7 273.92 226.15 273.16 211.46 267.34C196.77 261.52 190.9 246.56 177 262C174.67 264.58 172.08 269.34 169.36 275.54C174.554 273.108 180.417 272.498 186 273.81Z" fill="#FF7400"/>
<path opacity="0.5" d="M186 273.81C202 277.23 214.94 304.27 214.94 304.27L238.55 285.61C238.66 285.27 238.55 281.94 238.22 277.47C231.89 274.3 229.7 273.92 229.7 273.92C229.7 273.92 226.15 273.16 211.46 267.34C196.77 261.52 190.9 246.56 177 262C174.67 264.58 172.08 269.34 169.36 275.54C174.554 273.108 180.417 272.498 186 273.81Z" fill="white"/>
<path d="M180.65 303.87C180.65 303.87 181.65 308.09 170.11 338.12C158.57 368.15 184.86 346.03 173.8 363.42C162.74 380.81 130.06 399.78 126.9 399.78C123.74 399.78 120.05 340.78 122.68 337.6C125.31 334.42 141.22 308.89 156.19 299C171.16 289.11 180.65 303.87 180.65 303.87Z" fill="#FF7400"/>
<path opacity="0.5" d="M180.65 303.87C180.65 303.87 181.65 308.09 170.11 338.12C158.57 368.15 184.86 346.03 173.8 363.42C162.74 380.81 130.06 399.78 126.9 399.78C123.74 399.78 120.05 340.78 122.68 337.6C125.31 334.42 141.22 308.89 156.19 299C171.16 289.11 180.65 303.87 180.65 303.87Z" fill="white"/>
<path d="M264.43 319.15C264.43 319.15 265.48 326 262.85 340.23C260.22 354.46 254.42 376.06 247.04 387.66C239.66 399.26 236.5 397.66 236.5 397.66C236.5 397.66 241.24 375 248.09 362.88C254.94 350.76 263.38 327.59 264.43 319.15Z" fill="#FF7400"/>
<path opacity="0.5" d="M264.43 319.15C264.43 319.15 265.48 326 262.85 340.23C260.22 354.46 254.42 376.06 247.04 387.66C239.66 399.26 236.5 397.66 236.5 397.66C236.5 397.66 241.24 375 248.09 362.88C254.94 350.76 263.38 327.59 264.43 319.15Z" fill="white"/>
</g>
<path d="M129.74 409.53C129.74 409.53 132.13 400.59 135.93 385.64C139.73 370.69 163 277.47 177 262C191 246.53 196.75 261.49 211.45 267.32C226.15 273.15 229.69 273.9 229.69 273.9C229.69 273.9 232.69 274.41 242.1 279.48C251.51 284.55 255.53 286.32 263.89 288.85C272.25 291.38 283.14 297.21 277.82 314.69C272.5 332.17 258 358.79 257 377.54C256 396.29 261.07 409.54 261.07 409.54" stroke="#263238" stroke-linecap="round" stroke-linejoin="round"/>
<path d="M160.71 410.08C160.71 410.08 177.22 384.63 188.62 366.39C200.02 348.15 203.56 327.12 207.62 302.55C211.68 277.98 220.03 272.15 225.62 272.91C231.21 273.67 246.4 280.26 248.42 283.04C250.44 285.82 253.24 288.11 252.73 303.56C252.22 319.01 247.16 338.78 238.54 356.76C229.92 374.74 219 386.4 215 395C211 403.6 210.19 409.19 210.19 409.19" fill="#FF7400"/>
<mask id="mask2_27_12682" style="mask-type:luminance" maskUnits="userSpaceOnUse" x="160" y="272" width="93" height="139">
<path d="M160.71 410.08C160.71 410.08 177.22 384.63 188.62 366.39C200.02 348.15 203.56 327.12 207.62 302.55C211.68 277.98 220.03 272.15 225.62 272.91C231.21 273.67 246.4 280.26 248.42 283.04C250.44 285.82 253.24 288.11 252.73 303.56C252.22 319.01 247.16 338.78 238.54 356.76C229.92 374.74 219 386.4 215 395C211 403.6 210.19 409.19 210.19 409.19" fill="white"/>
</mask>
<g mask="url(#mask2_27_12682)">
<path d="M214.9 304.27L238.51 285.61C238.62 285.26 238.45 281.78 238.16 277.14C233.45 275.08 228.36 273.29 225.6 272.91C220.7 272.24 213.65 276.67 209.26 294.45C211.327 297.612 213.211 300.891 214.9 304.27Z" fill="#FF7400"/>
<path opacity="0.3" d="M214.9 304.27L238.51 285.61C238.62 285.26 238.45 281.78 238.16 277.14C233.45 275.08 228.36 273.29 225.6 272.91C220.7 272.24 213.65 276.67 209.26 294.45C211.327 297.612 213.211 300.891 214.9 304.27Z" fill="black"/>
</g>
<path d="M160.71 410.08C160.71 410.08 177.22 384.63 188.62 366.39C200.02 348.15 203.56 327.12 207.62 302.55C211.68 277.98 220.03 272.15 225.62 272.91C231.21 273.67 246.4 280.26 248.42 283.04C250.44 285.82 253.24 288.11 252.73 303.56C252.22 319.01 247.16 338.78 238.54 356.76C229.92 374.74 219 386.4 215 395C211 403.6 210.19 409.19 210.19 409.19" stroke="#263238" stroke-linecap="round" stroke-linejoin="round"/>
<path d="M265.12 314C263.8 339.56 248 360.51 240.3 384.2C237.906 391.282 236.185 398.575 235.16 405.98" stroke="#263238" stroke-linecap="round" stroke-linejoin="round"/>
<path d="M258.28 369.68C258.28 369.68 255.5 374 244.6 373" stroke="#263238" stroke-linecap="round" stroke-linejoin="round"/>
<path d="M222.56 252.9C222.56 252.9 225.56 258.22 222.56 269.62C219.56 281.02 210.4 308.12 214.46 326.36C218.52 344.6 225.6 348.15 234.46 341.82C243.32 335.49 249.15 320.54 251.46 303.06C253.77 285.58 246.14 284.06 249.69 273.16C253.24 262.26 254 246.56 254 246.56C254 246.56 243.1 252.9 235.25 253.91C227.4 254.92 222.56 252.9 222.56 252.9Z" fill="white"/>
<mask id="mask3_27_12682" style="mask-type:luminance" maskUnits="userSpaceOnUse" x="213" y="246" width="41" height="99">
<path d="M222.56 252.9C222.56 252.9 225.56 258.22 222.56 269.62C219.56 281.02 210.4 308.12 214.46 326.36C218.52 344.6 225.6 348.15 234.46 341.82C243.32 335.49 249.15 320.54 251.46 303.06C253.77 285.58 246.14 284.06 249.69 273.16C253.24 262.26 254 246.56 254 246.56C254 246.56 243.1 252.9 235.25 253.91C227.4 254.92 222.56 252.9 222.56 252.9Z" fill="white"/>
</mask>
<g mask="url(#mask3_27_12682)">
<path d="M252.52 247.37C249.3 249.11 241.35 253.12 235.23 253.91C227.38 254.91 222.56 252.91 222.56 252.91C222.56 252.91 225.56 258.23 222.56 269.63C220.21 278.47 214.2 296.75 213.51 313.01C214.74 304.86 217.12 297.51 219.34 297.51C223.01 297.51 230.8 304.38 230.8 302.51C230.8 300.64 227.59 297.92 226.22 296.51C224.85 295.1 235.39 285.96 242.22 275.42C246.414 268.775 250.091 261.818 253.22 254.61C253.38 253.22 253.5 251.95 253.6 250.85L252.52 247.37Z" fill="#FF7400"/>
<path d="M224.3 344.19C226.52 345.08 228.97 344.81 231.61 343.54C232.41 339.88 231.71 336.43 230.34 332.34C228.6 327.11 226.85 338.6 224.3 344.19Z" fill="#FF7400"/>
<g opacity="0.5">
<path d="M252.52 247.37C249.3 249.11 241.35 253.12 235.23 253.91C227.38 254.91 222.56 252.91 222.56 252.91C222.56 252.91 225.56 258.23 222.56 269.63C220.21 278.47 214.2 296.75 213.51 313.01C214.74 304.86 217.12 297.51 219.34 297.51C223.01 297.51 230.8 304.38 230.8 302.51C230.8 300.64 227.59 297.92 226.22 296.51C224.85 295.1 235.39 285.96 242.22 275.42C246.414 268.775 250.091 261.818 253.22 254.61C253.38 253.22 253.5 251.95 253.6 250.85L252.52 247.37Z" fill="white"/>
<path d="M224.3 344.19C226.52 345.08 228.97 344.81 231.61 343.54C232.41 339.88 231.71 336.43 230.34 332.34C228.6 327.11 226.85 338.6 224.3 344.19Z" fill="white"/>
</g>
</g>
<path d="M222.56 252.9C222.56 252.9 225.56 258.22 222.56 269.62C219.56 281.02 210.4 308.12 214.46 326.36C218.52 344.6 225.6 348.15 234.46 341.82C243.32 335.49 249.15 320.54 251.46 303.06C253.77 285.58 246.14 284.06 249.69 273.16C253.24 262.26 254 246.56 254 246.56C254 246.56 243.1 252.9 235.25 253.91C227.4 254.92 222.56 252.9 222.56 252.9Z" stroke="#263238" stroke-linecap="round" stroke-linejoin="round"/>
<path d="M261.58 222.25C261.58 222.25 262.58 210.59 256.26 201.98C249.94 193.37 239.03 189.82 226.87 194.63C214.71 199.44 213.44 211.63 213.7 220.98C213.96 230.33 216.99 247.07 220.28 252.9C223.57 258.73 229.4 265.56 238.02 263.79C246.64 262.02 256.02 250.11 258.28 244.79C259.477 242.186 260.412 239.469 261.07 236.68C261.07 236.68 269.43 231.87 269.68 225.79C269.93 219.71 266.14 213.13 261.58 222.25Z" fill="white"/>
<path d="M239.59 261.53C234.32 262.74 230.27 256.26 234.73 251.8C239.19 247.34 240 246.12 240.81 242.88C241.62 239.64 237.57 244.5 233.92 244.5C230.27 244.5 229.05 240.45 229.05 240.45C229.05 240.45 227.05 231.93 231.43 225.54C235.81 219.15 231.43 220.99 228.65 218.06C225.87 215.13 228.65 216.93 232.65 213C236.65 209.07 231.43 204 237.52 199.91C243.61 195.82 251.7 198.29 251.7 198.29L251.95 197.51C245.52 192.3 236.58 190.77 226.82 194.63C214.66 199.45 213.39 211.63 213.65 220.98C213.91 230.33 216.94 247.07 220.23 252.9C223.52 258.73 229.35 265.56 237.97 263.79C243.33 262.69 248.97 257.65 253.05 252.72C249.2 255.73 243.58 260.6 239.59 261.53Z" fill="#FF7400"/>
<path opacity="0.5" d="M239.59 261.53C234.32 262.74 230.27 256.26 234.73 251.8C239.19 247.34 240 246.12 240.81 242.88C241.62 239.64 237.57 244.5 233.92 244.5C230.27 244.5 229.05 240.45 229.05 240.45C229.05 240.45 227.05 231.93 231.43 225.54C235.81 219.15 231.43 220.99 228.65 218.06C225.87 215.13 228.65 216.93 232.65 213C236.65 209.07 231.43 204 237.52 199.91C243.61 195.82 251.7 198.29 251.7 198.29L251.95 197.51C245.52 192.3 236.58 190.77 226.82 194.63C214.66 199.45 213.39 211.63 213.65 220.98C213.91 230.33 216.94 247.07 220.23 252.9C223.52 258.73 229.35 265.56 237.97 263.79C243.33 262.69 248.97 257.65 253.05 252.72C249.2 255.73 243.58 260.6 239.59 261.53Z" fill="white"/>
<path d="M261.58 222.25C261.58 222.25 262.58 210.59 256.26 201.98C249.94 193.37 239.03 189.82 226.87 194.63C214.71 199.44 213.44 211.63 213.7 220.98C213.96 230.33 216.99 247.07 220.28 252.9C223.57 258.73 229.4 265.56 238.02 263.79C246.64 262.02 256.02 250.11 258.28 244.79C259.477 242.186 260.412 239.469 261.07 236.68C261.07 236.68 269.43 231.87 269.68 225.79C269.93 219.71 266.14 213.13 261.58 222.25Z" stroke="#263238" stroke-linecap="round" stroke-linejoin="round"/>
<path d="M229.4 210.59C229.4 210.59 228.64 219.97 225.6 221.74C222.56 223.51 214.71 226.05 211.42 223.51C208.13 220.97 204.58 212.37 207.11 210.34C209.64 208.31 223.32 205.78 225.6 205.78C227.88 205.78 229.4 207.81 229.4 210.59Z" fill="white"/>
<mask id="mask4_27_12682" style="mask-type:luminance" maskUnits="userSpaceOnUse" x="206" y="205" width="24" height="20">
<path d="M229.4 210.59C229.4 210.59 228.64 219.97 225.6 221.74C222.56 223.51 214.71 226.05 211.42 223.51C208.13 220.97 204.58 212.37 207.11 210.34C209.64 208.31 223.32 205.78 225.6 205.78C227.88 205.78 229.4 207.81 229.4 210.59Z" fill="white"/>
</mask>
<g mask="url(#mask4_27_12682)">
<path d="M210.6 222.75C210.853 223.024 211.127 223.279 211.42 223.51C214.71 226.04 222.56 223.51 225.6 221.74C228.64 219.97 229.4 210.59 229.4 210.59C229.405 209.944 229.317 209.301 229.14 208.68C216.81 212.64 212.27 218.93 210.6 222.75Z" fill="#FF7400"/>
</g>
<path d="M229.4 210.59C229.4 210.59 228.64 219.97 225.6 221.74C222.56 223.51 214.71 226.05 211.42 223.51C208.13 220.97 204.58 212.37 207.11 210.34C209.64 208.31 223.32 205.78 225.6 205.78C227.88 205.78 229.4 207.81 229.4 210.59Z" stroke="#263238" stroke-linecap="round" stroke-linejoin="round"/>
<path d="M238.46 209.25C238.46 209.25 241.13 218.25 244.46 219.38C247.79 220.51 256 221.38 258.7 218.2C261.4 215.02 263.11 205.89 260.22 204.42C257.33 202.95 243.41 203.29 241.22 203.76C239.03 204.23 237.89 206.52 238.46 209.25Z" fill="white"/>
<mask id="mask5_27_12682" style="mask-type:luminance" maskUnits="userSpaceOnUse" x="238" y="203" width="24" height="18">
<path d="M238.46 209.25C238.46 209.25 241.13 218.25 244.46 219.38C247.79 220.51 256 221.38 258.7 218.2C261.4 215.02 263.11 205.89 260.22 204.42C257.33 202.95 243.41 203.29 241.22 203.76C239.03 204.23 237.89 206.52 238.46 209.25Z" fill="white"/>
</mask>
<g mask="url(#mask5_27_12682)">
<path d="M258.71 218.2C260.89 215.66 262.42 209.2 261.42 206.06C250.24 206.16 243.25 210.51 239.94 213.26C241.03 215.83 242.65 218.77 244.47 219.38C247.81 220.49 256 221.36 258.71 218.2Z" fill="#FF7400"/>
</g>
<path d="M238.46 209.25C238.46 209.25 241.13 218.25 244.46 219.38C247.79 220.51 256 221.38 258.7 218.2C261.4 215.02 263.11 205.89 260.22 204.42C257.33 202.95 243.41 203.29 241.22 203.76C239.03 204.23 237.89 206.52 238.46 209.25Z" stroke="#263238" stroke-linecap="round" stroke-linejoin="round"/>
<path d="M229.66 208.57C230.638 207.276 232.069 206.4 233.666 206.118C235.264 205.836 236.908 206.169 238.27 207.05" stroke="#263238" stroke-linecap="round" stroke-linejoin="round"/>
<path d="M233.46 209.2C233.46 209.2 234.98 210.46 232.7 213C230.42 215.54 227.89 216.29 228.7 218.06C229.51 219.83 233.01 221.06 233.77 221.86" stroke="#263238" stroke-linecap="round" stroke-linejoin="round"/>
<path d="M250.94 227.56C250.94 227.56 250.68 228.83 244.6 227.82C238.52 226.81 236.75 223.82 231.43 225.54C226.11 227.26 224.34 230.1 223.07 230.6L221.8 231.11C221.8 231.11 226.62 237.7 229.4 242.26C232.18 246.82 236 246.82 239 245C242 243.18 247.61 234.11 248.63 232.08L250.94 227.56Z" fill="#263238" stroke="#263238" stroke-linecap="round" stroke-linejoin="round"/>
<path d="M249.16 229.08C249.16 229.08 246.91 230.61 242.43 229.86C237.95 229.11 236.65 226.86 232.73 228.18C228.81 229.5 226.79 230.49 225.86 230.86C225.144 231.195 224.472 231.618 223.86 232.12C225.735 234.168 227.431 236.372 228.93 238.71C230.93 242.07 235.8 242.83 238.04 241.52C240.28 240.21 244.7 234.52 245.45 233.03C246.2 231.54 249.16 229.08 249.16 229.08Z" fill="white" stroke="#263238" stroke-linecap="round" stroke-linejoin="round"/>
<path d="M205.34 266.58C204.58 266.32 201.79 258.22 190.64 254.42C179.49 250.62 173.16 257.42 167.64 267.08C162.12 276.74 155.99 294.19 151.64 302.8C147.29 311.41 139 317 138.71 328.14C138.42 339.28 143.53 346.14 149.86 345.62C156.19 345.1 161.26 338.02 170.63 325.1C180 312.18 189.12 289.38 189.12 289.38" fill="white"/>
<mask id="mask6_27_12682" style="mask-type:luminance" maskUnits="userSpaceOnUse" x="138" y="253" width="68" height="93">
<path d="M205.34 266.58C204.58 266.32 201.79 258.22 190.64 254.42C179.49 250.62 173.16 257.42 167.64 267.08C162.12 276.74 155.99 294.19 151.64 302.8C147.29 311.41 139 317 138.71 328.14C138.42 339.28 143.53 346.14 149.86 345.62C156.19 345.1 161.26 338.02 170.63 325.1C180 312.18 189.12 289.38 189.12 289.38" fill="white"/>
</mask>
<g mask="url(#mask6_27_12682)">
<path d="M205.34 266.58C204.58 266.32 201.79 258.22 190.64 254.42C179.49 250.62 173.17 257.42 167.64 267.08C165.123 271.675 162.87 276.409 160.89 281.26C168.48 274.57 176.5 271.77 186.01 273.81C189.846 274.781 193.397 276.649 196.37 279.26L205.34 266.58Z" fill="#FF7400"/>
<path opacity="0.5" d="M205.34 266.58C204.58 266.32 201.79 258.22 190.64 254.42C179.49 250.62 173.17 257.42 167.64 267.08C165.123 271.675 162.87 276.409 160.89 281.26C168.48 274.57 176.5 271.77 186.01 273.81C189.846 274.781 193.397 276.649 196.37 279.26L205.34 266.58Z" fill="white"/>
</g>
<path d="M205.34 266.58C204.58 266.32 201.79 258.22 190.64 254.42C179.49 250.62 173.16 257.42 167.64 267.08C162.12 276.74 155.99 294.19 151.64 302.8C147.29 311.41 139 317 138.71 328.14C138.42 339.28 143.53 346.14 149.86 345.62C156.19 345.1 161.26 338.02 170.63 325.1C180 312.18 189.12 289.38 189.12 289.38" stroke="#263238" stroke-linecap="round" stroke-linejoin="round"/>
<path d="M172 323.14C170.186 319.92 168.123 316.848 165.83 313.95C162.105 309.104 156.897 305.609 151 304C146.56 311.93 139 317.5 138.74 328.11C138.49 339.25 143.56 346.11 149.89 345.59C156.22 345.07 161.29 337.99 170.66 325.07C171.09 324.47 171.54 323.81 172 323.14Z" fill="white" stroke="#263238" stroke-linecap="round" stroke-linejoin="round"/>
<path d="M184.58 152.83H141.49C140.236 152.83 139.22 153.846 139.22 155.1V234.16C139.22 235.414 140.236 236.43 141.49 236.43H184.58C185.834 236.43 186.85 235.414 186.85 234.16V155.1C186.85 153.846 185.834 152.83 184.58 152.83Z" fill="#FF7400" stroke="#263238" stroke-linecap="round" stroke-linejoin="round"/>
<path d="M184.71 198.07V204.43" stroke="white" stroke-linecap="round" stroke-linejoin="round"/>
<path d="M178.34 154.85H182.44C183.042 154.85 183.619 155.089 184.045 155.515C184.471 155.941 184.71 156.518 184.71 157.12V193.52" stroke="white" stroke-linecap="round" stroke-linejoin="round"/>
<path d="M168.79 154.85H173.34" stroke="white" stroke-linecap="round" stroke-linejoin="round"/>
<path d="M152.39 162C152.388 161.197 152.147 160.413 151.699 159.748C151.251 159.082 150.614 158.564 149.871 158.261C149.128 157.957 148.312 157.882 147.525 158.043C146.739 158.205 146.018 158.596 145.455 159.168C144.892 159.74 144.511 160.466 144.361 161.255C144.211 162.043 144.299 162.859 144.614 163.597C144.928 164.336 145.455 164.964 146.128 165.403C146.8 165.841 147.587 166.07 148.39 166.06C148.92 166.06 149.445 165.955 149.935 165.75C150.424 165.545 150.868 165.245 151.24 164.867C151.612 164.49 151.905 164.041 152.103 163.549C152.3 163.057 152.398 162.53 152.39 162Z" fill="#263238"/>
<path d="M142.77 189.06C142.77 189.06 133.65 200.71 127.06 206.54C120.47 212.37 124.78 216.83 127.06 221.65C129.34 226.47 133.39 252.39 134.66 261.51C135.93 270.63 131.37 300.02 130.1 316.74C128.83 333.46 139.47 348.15 144.54 350.68C149.61 353.21 152.9 349.68 158.73 338.02C164.56 326.36 159.49 313.44 156.19 299.02C152.89 284.6 146.82 261.02 146.82 261.02C146.82 261.02 152.14 259.5 152.65 254.44C153.16 249.38 151.13 241.52 151.13 241.52C151.13 241.52 166.58 241.77 172.66 240.76C178.74 239.75 185.32 238.22 180.76 237.21C176.2 236.2 172.15 237.21 163.03 236.7C157.265 236.272 151.689 234.454 146.78 231.4C151.074 229.376 155.735 228.246 160.48 228.08C167.26 227.77 174.69 229.54 178.74 228.68C182.55 227.88 185.28 226.59 183.74 225.07C182.2 223.55 179.41 224.07 173.74 223.07C170.38 222.5 165.09 219.48 160.09 219.46C155.681 219.521 151.304 220.211 147.09 221.51C146.09 221.51 153.5 214.88 156.54 214.12C159.58 213.36 169.89 217.2 174.2 217.2C178.51 217.2 183.57 215.68 183.82 213.91C184.07 212.14 185.6 211.37 179.77 211.12C173.94 210.87 165.33 207.57 160.27 205.8C155.21 204.03 151.65 205.55 148.61 207.07C145.57 208.59 137.97 211.37 137.97 211.37L147.69 198.75C147.69 198.75 158.24 203.27 164.32 203.01C170.4 202.75 177.75 198.45 175.21 197.19C172.67 195.93 167.11 196.68 157.73 193.89C148.35 191.1 146.31 186.27 142.77 189.06Z" fill="white"/>
<mask id="mask7_27_12682" style="mask-type:luminance" maskUnits="userSpaceOnUse" x="123" y="188" width="62" height="164">
<path d="M142.77 189.06C142.77 189.06 133.65 200.71 127.06 206.54C120.47 212.37 124.78 216.83 127.06 221.65C129.34 226.47 133.39 252.39 134.66 261.51C135.93 270.63 131.37 300.02 130.1 316.74C128.83 333.46 139.47 348.15 144.54 350.68C149.61 353.21 152.9 349.68 158.73 338.02C164.56 326.36 159.49 313.44 156.19 299.02C152.89 284.6 146.82 261.02 146.82 261.02C146.82 261.02 152.14 259.5 152.65 254.44C153.16 249.38 151.13 241.52 151.13 241.52C151.13 241.52 166.58 241.77 172.66 240.76C178.74 239.75 185.32 238.22 180.76 237.21C176.2 236.2 172.15 237.21 163.03 236.7C157.265 236.272 151.689 234.454 146.78 231.4C151.074 229.376 155.735 228.246 160.48 228.08C167.26 227.77 174.69 229.54 178.74 228.68C182.55 227.88 185.28 226.59 183.74 225.07C182.2 223.55 179.41 224.07 173.74 223.07C170.38 222.5 165.09 219.48 160.09 219.46C155.681 219.521 151.304 220.211 147.09 221.51C146.09 221.51 153.5 214.88 156.54 214.12C159.58 213.36 169.89 217.2 174.2 217.2C178.51 217.2 183.57 215.68 183.82 213.91C184.07 212.14 185.6 211.37 179.77 211.12C173.94 210.87 165.33 207.57 160.27 205.8C155.21 204.03 151.65 205.55 148.61 207.07C145.57 208.59 137.97 211.37 137.97 211.37L147.69 198.75C147.69 198.75 158.24 203.27 164.32 203.01C170.4 202.75 177.75 198.45 175.21 197.19C172.67 195.93 167.11 196.68 157.73 193.89C148.35 191.1 146.31 186.27 142.77 189.06Z" fill="white"/>
</mask>
<g mask="url(#mask7_27_12682)">
<path d="M127.06 221.65C129.34 226.46 133.39 252.39 134.66 261.51C135.93 270.63 131.37 300.02 130.1 316.74C128.83 333.46 139.47 348.15 144.54 350.68C149.38 353.1 152.61 349.95 157.97 339.5C157.31 340.23 156.53 341.04 155.6 341.97C150.1 347.48 145.97 348.39 141.85 335.55C137.73 322.71 140.01 280.07 139.1 267.23C138.572 258.978 138.726 250.697 139.56 242.47C139.56 242.47 139.22 233.91 132.68 224.13C126.14 214.35 127.06 206.54 127.06 206.54C120.47 212.37 124.78 216.83 127.06 221.65Z" fill="#FF7400"/>
<path opacity="0.5" d="M127.06 221.65C129.34 226.46 133.39 252.39 134.66 261.51C135.93 270.63 131.37 300.02 130.1 316.74C128.83 333.46 139.47 348.15 144.54 350.68C149.38 353.1 152.61 349.95 157.97 339.5C157.31 340.23 156.53 341.04 155.6 341.97C150.1 347.48 145.97 348.39 141.85 335.55C137.73 322.71 140.01 280.07 139.1 267.23C138.572 258.978 138.726 250.697 139.56 242.47C139.56 242.47 139.22 233.91 132.68 224.13C126.14 214.35 127.06 206.54 127.06 206.54C120.47 212.37 124.78 216.83 127.06 221.65Z" fill="white"/>
</g>
<path d="M142.77 189.06C142.77 189.06 133.65 200.71 127.06 206.54C120.47 212.37 124.78 216.83 127.06 221.65C129.34 226.47 133.39 252.39 134.66 261.51C135.93 270.63 131.37 300.02 130.1 316.74C128.83 333.46 139.47 348.15 144.54 350.68C149.61 353.21 152.9 349.68 158.73 338.02C164.56 326.36 159.49 313.44 156.19 299.02C152.89 284.6 146.82 261.02 146.82 261.02C146.82 261.02 152.14 259.5 152.65 254.44C153.16 249.38 151.13 241.52 151.13 241.52C151.13 241.52 166.58 241.77 172.66 240.76C178.74 239.75 185.32 238.22 180.76 237.21C176.2 236.2 172.15 237.21 163.03 236.7C157.265 236.272 151.689 234.454 146.78 231.4C151.074 229.376 155.735 228.246 160.48 228.08C167.26 227.77 174.69 229.54 178.74 228.68C182.55 227.88 185.28 226.59 183.74 225.07C182.2 223.55 179.41 224.07 173.74 223.07C170.38 222.5 165.09 219.48 160.09 219.46C155.681 219.521 151.304 220.211 147.09 221.51C146.09 221.51 153.5 214.88 156.54 214.12C159.58 213.36 169.89 217.2 174.2 217.2C178.51 217.2 183.57 215.68 183.82 213.91C184.07 212.14 185.6 211.37 179.77 211.12C173.94 210.87 165.33 207.57 160.27 205.8C155.21 204.03 151.65 205.55 148.61 207.07C145.57 208.59 137.97 211.37 137.97 211.37L147.69 198.75C147.69 198.75 158.24 203.27 164.32 203.01C170.4 202.75 177.75 198.45 175.21 197.19C172.67 195.93 167.11 196.68 157.73 193.89C148.35 191.1 146.31 186.27 142.77 189.06Z" stroke="#263238" stroke-linecap="round" stroke-linejoin="round"/>
<path d="M151.13 241.5H144.29" stroke="#263238" stroke-linecap="round" stroke-linejoin="round"/>
</svg>
