<svg width="500" height="500" viewBox="0 0 500 500" fill="none" xmlns="http://www.w3.org/2000/svg">
<path d="M410.22 221.77C409.87 219.77 409.56 217.87 409.31 215.91C407.86 204.5 397.31 151.35 325.87 119.11C245.46 82.84 191.13 120.11 158.53 149.5C125.93 178.89 103.12 240.65 84.65 294.56C66.18 348.47 109.65 389.64 162.88 407.29C216.11 424.94 283.49 426.89 335.65 408.29C387.23 389.85 430.32 332.11 410.22 221.77Z" fill="#FF7400"/>
<path opacity="0.75" d="M410.22 221.77C409.87 219.77 409.56 217.87 409.31 215.91C407.86 204.5 397.31 151.35 325.87 119.11C245.46 82.84 191.13 120.11 158.53 149.5C125.93 178.89 103.12 240.65 84.65 294.56C66.18 348.47 109.65 389.64 162.88 407.29C216.11 424.94 283.49 426.89 335.65 408.29C387.23 389.85 430.32 332.11 410.22 221.77Z" fill="white"/>
<path d="M299.45 79.17V283.12L356.61 383.14H411.41" stroke="#263238" stroke-linecap="round" stroke-linejoin="round"/>
<path d="M299.45 79.17V283.12L356.61 383.14H411.41" stroke="black" stroke-opacity="0.2" stroke-linecap="round" stroke-linejoin="round"/>
<path d="M299.45 277.89H260.82L113.22 402.47C111.278 404.109 109.714 406.15 108.639 408.452C107.563 410.755 107 413.263 106.99 415.805C106.979 418.346 107.521 420.859 108.578 423.17C109.635 425.481 111.181 427.535 113.11 429.19C116.292 431.913 120.342 433.409 124.53 433.41H410.14" stroke="#263238" stroke-linecap="round" stroke-linejoin="round"/>
<path d="M299.45 277.89H260.82L113.22 402.47C111.278 404.109 109.714 406.15 108.639 408.452C107.563 410.755 107 413.263 106.99 415.805C106.979 418.346 107.521 420.859 108.578 423.17C109.635 425.481 111.181 427.535 113.11 429.19C116.292 431.913 120.342 433.409 124.53 433.41H410.14" stroke="black" stroke-opacity="0.2" stroke-linecap="round" stroke-linejoin="round"/>
<path d="M107 418.41C106.984 420.951 107.523 423.466 108.58 425.777C109.637 428.088 111.187 430.14 113.12 431.79C116.299 434.51 120.346 436.003 124.53 436H410.14" stroke="#263238" stroke-linecap="round" stroke-linejoin="round"/>
<path d="M107 418.41C106.984 420.951 107.523 423.466 108.58 425.777C109.637 428.088 111.187 430.14 113.12 431.79C116.299 434.51 120.346 436.003 124.53 436H410.14" stroke="black" stroke-opacity="0.2" stroke-linecap="round" stroke-linejoin="round"/>
<path d="M83.1 325.98L230.53 283.55" stroke="#263238" stroke-linecap="round" stroke-linejoin="round"/>
<path d="M83.1 325.98L230.53 283.55" stroke="black" stroke-opacity="0.2" stroke-linecap="round" stroke-linejoin="round"/>
<path d="M182.22 65.5V289.89L76 314.29" stroke="#263238" stroke-linecap="round" stroke-linejoin="round"/>
<path d="M182.22 65.5V289.89L76 314.29" stroke="black" stroke-opacity="0.2" stroke-linecap="round" stroke-linejoin="round"/>
<path d="M204.74 284.74L229.46 279.5" stroke="#263238" stroke-miterlimit="10"/>
<path d="M204.74 284.74L229.46 279.5" stroke="black" stroke-opacity="0.2" stroke-miterlimit="10"/>
<path d="M182.94 148.93L204.75 148.46V284.74L182.22 285.21" stroke="#263238" stroke-linecap="round" stroke-linejoin="round"/>
<path d="M182.94 148.93L204.75 148.46V284.74L182.22 285.21" stroke="black" stroke-opacity="0.2" stroke-linecap="round" stroke-linejoin="round"/>
<path d="M205.24 148.93L236.88 176.26V221.77" stroke="#263238" stroke-linecap="round" stroke-linejoin="round"/>
<path d="M205.24 148.93L236.88 176.26V221.77" stroke="black" stroke-opacity="0.2" stroke-linecap="round" stroke-linejoin="round"/>
<path d="M233.28 164.75V149.65H249.11V204.31" stroke="#263238" stroke-linecap="round" stroke-linejoin="round"/>
<path d="M233.28 164.75V149.65H249.11V204.31" stroke="black" stroke-opacity="0.2" stroke-linecap="round" stroke-linejoin="round"/>
<path d="M249.11 149.65L257.74 162.59V189.92H267.81V200.71" stroke="#263238" stroke-linecap="round" stroke-linejoin="round"/>
<path d="M249.11 149.65L257.74 162.59V189.92H267.81V200.71" stroke="black" stroke-opacity="0.2" stroke-linecap="round" stroke-linejoin="round"/>
<path d="M267.81 189.92L272.12 196.4" stroke="#263238" stroke-linecap="round" stroke-linejoin="round"/>
<path d="M267.81 189.92L272.12 196.4" stroke="black" stroke-opacity="0.2" stroke-linecap="round" stroke-linejoin="round"/>
<path d="M299.56 100.97H277.07V222.28H299.56V100.97Z" stroke="#263238" stroke-linecap="round" stroke-linejoin="round"/>
<path d="M299.56 100.97H277.07V222.28H299.56V100.97Z" stroke="black" stroke-opacity="0.2" stroke-linecap="round" stroke-linejoin="round"/>
<path d="M324.88 166.84H308.54V231.25H324.88V166.84Z" stroke="#263238" stroke-linecap="round" stroke-linejoin="round"/>
<path d="M324.88 166.84H308.54V231.25H324.88V166.84Z" stroke="black" stroke-opacity="0.2" stroke-linecap="round" stroke-linejoin="round"/>
<path d="M316.68 163.99L356.61 138" stroke="#263238" stroke-linecap="round" stroke-linejoin="round"/>
<path d="M316.68 163.99L356.61 138" stroke="black" stroke-opacity="0.2" stroke-linecap="round" stroke-linejoin="round"/>
<path d="M355.92 119.84L307.58 161.07" stroke="#263238" stroke-linecap="round" stroke-linejoin="round"/>
<path d="M355.92 119.84L307.58 161.07" stroke="black" stroke-opacity="0.2" stroke-linecap="round" stroke-linejoin="round"/>
<path d="M356.61 85.13L325.52 123.67" stroke="#263238" stroke-linecap="round" stroke-linejoin="round"/>
<path d="M356.61 85.13L325.52 123.67" stroke="black" stroke-opacity="0.2" stroke-linecap="round" stroke-linejoin="round"/>
<path d="M325.15 215.26L356.61 208.18" stroke="#263238" stroke-linecap="round" stroke-linejoin="round"/>
<path d="M325.15 215.26L356.61 208.18" stroke="black" stroke-opacity="0.2" stroke-linecap="round" stroke-linejoin="round"/>
<path d="M301.99 220.54L308.17 218.97" stroke="#263238" stroke-linecap="round" stroke-linejoin="round"/>
<path d="M301.99 220.54L308.17 218.97" stroke="black" stroke-opacity="0.2" stroke-linecap="round" stroke-linejoin="round"/>
<path d="M356.61 383.15V73.59" stroke="#263238" stroke-linecap="round" stroke-linejoin="round"/>
<path d="M356.61 383.15V73.59" stroke="black" stroke-opacity="0.2" stroke-linecap="round" stroke-linejoin="round"/>
<path d="M356.61 208.18H417" stroke="#263238" stroke-linecap="round" stroke-linejoin="round"/>
<path d="M356.61 208.18H417" stroke="black" stroke-opacity="0.2" stroke-linecap="round" stroke-linejoin="round"/>
<path d="M325.15 211.68L356.61 202.3" stroke="#263238" stroke-linecap="round" stroke-linejoin="round"/>
<path d="M325.15 211.68L356.61 202.3" stroke="black" stroke-opacity="0.2" stroke-linecap="round" stroke-linejoin="round"/>
<path d="M356.61 202.3H417" stroke="#263238" stroke-linecap="round" stroke-linejoin="round"/>
<path d="M356.61 202.3H417" stroke="black" stroke-opacity="0.2" stroke-linecap="round" stroke-linejoin="round"/>
<path d="M324.84 202.38L355.54 187.23H397.92" stroke="#263238" stroke-linecap="round" stroke-linejoin="round"/>
<path d="M324.84 202.38L355.54 187.23H397.92" stroke="black" stroke-opacity="0.2" stroke-linecap="round" stroke-linejoin="round"/>
<path d="M302.04 213.64L308.58 210.41" stroke="#263238" stroke-linecap="round" stroke-linejoin="round"/>
<path d="M302.04 213.64L308.58 210.41" stroke="black" stroke-opacity="0.2" stroke-linecap="round" stroke-linejoin="round"/>
<path d="M277.21 126.95H298.82" stroke="#263238" stroke-linecap="round" stroke-linejoin="round"/>
<path d="M277.21 126.95H298.82" stroke="black" stroke-opacity="0.2" stroke-linecap="round" stroke-linejoin="round"/>
<path d="M277.21 150.81H298.82" stroke="#263238" stroke-linecap="round" stroke-linejoin="round"/>
<path d="M277.21 150.81H298.82" stroke="black" stroke-opacity="0.2" stroke-linecap="round" stroke-linejoin="round"/>
<path d="M277.21 174.67H298.82" stroke="#263238" stroke-linecap="round" stroke-linejoin="round"/>
<path d="M277.21 174.67H298.82" stroke="black" stroke-opacity="0.2" stroke-linecap="round" stroke-linejoin="round"/>
<path d="M277.21 198.52H298.82" stroke="#263238" stroke-linecap="round" stroke-linejoin="round"/>
<path d="M277.21 198.52H298.82" stroke="black" stroke-opacity="0.2" stroke-linecap="round" stroke-linejoin="round"/>
<path d="M339.89 167H304C303.807 167 303.616 166.962 303.438 166.888C303.259 166.814 303.097 166.706 302.961 166.569C302.824 166.433 302.716 166.271 302.642 166.093C302.568 165.914 302.53 165.723 302.53 165.53C302.53 165.337 302.568 165.146 302.642 164.967C302.716 164.789 302.824 164.627 302.961 164.491C303.097 164.354 303.259 164.246 303.438 164.172C303.616 164.098 303.807 164.06 304 164.06H339.94C340.133 164.06 340.324 164.098 340.503 164.172C340.681 164.246 340.843 164.354 340.979 164.491C341.116 164.627 341.224 164.789 341.298 164.967C341.372 165.146 341.41 165.337 341.41 165.53C341.41 165.723 341.372 165.914 341.298 166.093C341.224 166.271 341.116 166.433 340.979 166.569C340.843 166.706 340.681 166.814 340.503 166.888C340.324 166.962 340.133 167 339.94 167H339.89Z" stroke="#263238" stroke-miterlimit="10"/>
<path d="M339.89 167H304C303.807 167 303.616 166.962 303.438 166.888C303.259 166.814 303.097 166.706 302.961 166.569C302.824 166.433 302.716 166.271 302.642 166.093C302.568 165.914 302.53 165.723 302.53 165.53C302.53 165.337 302.568 165.146 302.642 164.967C302.716 164.789 302.824 164.627 302.961 164.491C303.097 164.354 303.259 164.246 303.438 164.172C303.616 164.098 303.807 164.06 304 164.06H339.94C340.133 164.06 340.324 164.098 340.503 164.172C340.681 164.246 340.843 164.354 340.979 164.491C341.116 164.627 341.224 164.789 341.298 164.967C341.372 165.146 341.41 165.337 341.41 165.53C341.41 165.723 341.372 165.914 341.298 166.093C341.224 166.271 341.116 166.433 340.979 166.569C340.843 166.706 340.681 166.814 340.503 166.888C340.324 166.962 340.133 167 339.94 167H339.89Z" stroke="black" stroke-opacity="0.2" stroke-miterlimit="10"/>
<path d="M308.53 81.2V153.08" stroke="#263238" stroke-linecap="round" stroke-linejoin="round"/>
<path d="M308.53 81.2V153.08" stroke="black" stroke-opacity="0.2" stroke-linecap="round" stroke-linejoin="round"/>
<path d="M316.37 74.66V147.85" stroke="#263238" stroke-linecap="round" stroke-linejoin="round"/>
<path d="M316.37 74.66V147.85" stroke="black" stroke-opacity="0.2" stroke-linecap="round" stroke-linejoin="round"/>
<path d="M325.52 68.13V139.35" stroke="#263238" stroke-linecap="round" stroke-linejoin="round"/>
<path d="M325.52 68.13V139.35" stroke="black" stroke-opacity="0.2" stroke-linecap="round" stroke-linejoin="round"/>
<path d="M325.52 108.34L348.39 72.05" stroke="#263238" stroke-linecap="round" stroke-linejoin="round"/>
<path d="M325.52 108.34L348.39 72.05" stroke="black" stroke-opacity="0.2" stroke-linecap="round" stroke-linejoin="round"/>
<path d="M182.31 168.59H204.43L233.54 187.62" stroke="#263238" stroke-linecap="round" stroke-linejoin="round"/>
<path d="M182.31 168.59H204.43L233.54 187.62" stroke="black" stroke-opacity="0.2" stroke-linecap="round" stroke-linejoin="round"/>
<path d="M182.31 185.68H204.43L233.54 203.14" stroke="#263238" stroke-linecap="round" stroke-linejoin="round"/>
<path d="M182.31 185.68H204.43L233.54 203.14" stroke="black" stroke-opacity="0.2" stroke-linecap="round" stroke-linejoin="round"/>
<path d="M182.31 202.75H204.43L233.54 218.28" stroke="#263238" stroke-linecap="round" stroke-linejoin="round"/>
<path d="M182.31 202.75H204.43L233.54 218.28" stroke="black" stroke-opacity="0.2" stroke-linecap="round" stroke-linejoin="round"/>
<path d="M182.31 219.83H204.43L230.83 231.48" stroke="#263238" stroke-linecap="round" stroke-linejoin="round"/>
<path d="M182.31 219.83H204.43L230.83 231.48" stroke="black" stroke-opacity="0.2" stroke-linecap="round" stroke-linejoin="round"/>
<path d="M182.31 236.91H204.43L223.45 243.23" stroke="#263238" stroke-linecap="round" stroke-linejoin="round"/>
<path d="M182.31 236.91H204.43L223.45 243.23" stroke="black" stroke-opacity="0.2" stroke-linecap="round" stroke-linejoin="round"/>
<path d="M182.31 253.99H204.43L210.77 255.35" stroke="#263238" stroke-linecap="round" stroke-linejoin="round"/>
<path d="M182.31 253.99H204.43L210.77 255.35" stroke="black" stroke-opacity="0.2" stroke-linecap="round" stroke-linejoin="round"/>
<path d="M199.39 174.42H194.73V183.35H199.39V174.42Z" stroke="#263238" stroke-linecap="round" stroke-linejoin="round"/>
<path d="M199.39 174.42H194.73V183.35H199.39V174.42Z" stroke="black" stroke-opacity="0.2" stroke-linecap="round" stroke-linejoin="round"/>
<path d="M190.07 174.42H185.41V183.35H190.07V174.42Z" stroke="#263238" stroke-linecap="round" stroke-linejoin="round"/>
<path d="M190.07 174.42H185.41V183.35H190.07V174.42Z" stroke="black" stroke-opacity="0.2" stroke-linecap="round" stroke-linejoin="round"/>
<path d="M199.39 190.72H194.73V199.65H199.39V190.72Z" stroke="#263238" stroke-linecap="round" stroke-linejoin="round"/>
<path d="M199.39 190.72H194.73V199.65H199.39V190.72Z" stroke="black" stroke-opacity="0.2" stroke-linecap="round" stroke-linejoin="round"/>
<path d="M190.07 190.72H185.41V199.65H190.07V190.72Z" stroke="#263238" stroke-linecap="round" stroke-linejoin="round"/>
<path d="M190.07 190.72H185.41V199.65H190.07V190.72Z" stroke="black" stroke-opacity="0.2" stroke-linecap="round" stroke-linejoin="round"/>
<path d="M199.39 206.64H194.73V215.57H199.39V206.64Z" stroke="#263238" stroke-linecap="round" stroke-linejoin="round"/>
<path d="M199.39 206.64H194.73V215.57H199.39V206.64Z" stroke="black" stroke-opacity="0.2" stroke-linecap="round" stroke-linejoin="round"/>
<path d="M190.07 206.64H185.41V215.57H190.07V206.64Z" stroke="#263238" stroke-linecap="round" stroke-linejoin="round"/>
<path d="M190.07 206.64H185.41V215.57H190.07V206.64Z" stroke="black" stroke-opacity="0.2" stroke-linecap="round" stroke-linejoin="round"/>
<path d="M199.39 223.71H194.73V232.64H199.39V223.71Z" stroke="#263238" stroke-linecap="round" stroke-linejoin="round"/>
<path d="M199.39 223.71H194.73V232.64H199.39V223.71Z" stroke="black" stroke-opacity="0.2" stroke-linecap="round" stroke-linejoin="round"/>
<path d="M190.07 223.71H185.41V232.64H190.07V223.71Z" stroke="#263238" stroke-linecap="round" stroke-linejoin="round"/>
<path d="M190.07 223.71H185.41V232.64H190.07V223.71Z" stroke="black" stroke-opacity="0.2" stroke-linecap="round" stroke-linejoin="round"/>
<path d="M199.39 240.79H194.73V249.72H199.39V240.79Z" stroke="#263238" stroke-linecap="round" stroke-linejoin="round"/>
<path d="M199.39 240.79H194.73V249.72H199.39V240.79Z" stroke="black" stroke-opacity="0.2" stroke-linecap="round" stroke-linejoin="round"/>
<path d="M190.07 240.79H185.41V249.72H190.07V240.79Z" stroke="#263238" stroke-linecap="round" stroke-linejoin="round"/>
<path d="M190.07 240.79H185.41V249.72H190.07V240.79Z" stroke="black" stroke-opacity="0.2" stroke-linecap="round" stroke-linejoin="round"/>
<path d="M199.39 258.26H194.73V267.19H199.39V258.26Z" stroke="#263238" stroke-linecap="round" stroke-linejoin="round"/>
<path d="M199.39 258.26H194.73V267.19H199.39V258.26Z" stroke="black" stroke-opacity="0.2" stroke-linecap="round" stroke-linejoin="round"/>
<path d="M190.07 258.26H185.41V267.19H190.07V258.26Z" stroke="#263238" stroke-linecap="round" stroke-linejoin="round"/>
<path d="M190.07 258.26H185.41V267.19H190.07V258.26Z" stroke="black" stroke-opacity="0.2" stroke-linecap="round" stroke-linejoin="round"/>
<path d="M199.39 155.79H194.73V164.72H199.39V155.79Z" stroke="#263238" stroke-linecap="round" stroke-linejoin="round"/>
<path d="M199.39 155.79H194.73V164.72H199.39V155.79Z" stroke="black" stroke-opacity="0.2" stroke-linecap="round" stroke-linejoin="round"/>
<path d="M212.2 170.15L208.7 167.43V158.5L212.2 161.22" stroke="#263238" stroke-linecap="round" stroke-linejoin="round"/>
<path d="M212.2 170.15L208.7 167.43V158.5L212.2 161.22" stroke="black" stroke-opacity="0.2" stroke-linecap="round" stroke-linejoin="round"/>
<path d="M208.7 175.19L212.2 177.91V186.84L208.7 184.12" stroke="#263238" stroke-linecap="round" stroke-linejoin="round"/>
<path d="M208.7 175.19L212.2 177.91V186.84L208.7 184.12" stroke="black" stroke-opacity="0.2" stroke-linecap="round" stroke-linejoin="round"/>
<path d="M212.2 195.38V203.35L208.7 201.59V192.66" stroke="#263238" stroke-linecap="round" stroke-linejoin="round"/>
<path d="M212.2 195.38V203.35L208.7 201.59V192.66" stroke="black" stroke-opacity="0.2" stroke-linecap="round" stroke-linejoin="round"/>
<path d="M212.2 218.77L208.7 217.01V208.08L212.2 210.2V218.77Z" stroke="#263238" stroke-linecap="round" stroke-linejoin="round"/>
<path d="M212.2 218.77L208.7 217.01V208.08L212.2 210.2V218.77Z" stroke="black" stroke-opacity="0.2" stroke-linecap="round" stroke-linejoin="round"/>
<path d="M212.2 235.13L208.7 233.84V224.91L212.2 226.56" stroke="#263238" stroke-linecap="round" stroke-linejoin="round"/>
<path d="M212.2 235.13L208.7 233.84V224.91L212.2 226.56" stroke="black" stroke-opacity="0.2" stroke-linecap="round" stroke-linejoin="round"/>
<path d="M190.07 155.79H185.41V164.72H190.07V155.79Z" stroke="#263238" stroke-linecap="round" stroke-linejoin="round"/>
<path d="M190.07 155.79H185.41V164.72H190.07V155.79Z" stroke="black" stroke-opacity="0.2" stroke-linecap="round" stroke-linejoin="round"/>
<path d="M330.09 337.35V219.73L345.77 217.77V362.84" stroke="#263238" stroke-linecap="round" stroke-linejoin="round"/>
<path d="M330.09 337.35V219.73L345.77 217.77V362.84" stroke="black" stroke-opacity="0.2" stroke-linecap="round" stroke-linejoin="round"/>
<path d="M314.41 309.25V234.11" stroke="#263238" stroke-linecap="round" stroke-linejoin="round"/>
<path d="M314.41 309.25V234.11" stroke="black" stroke-opacity="0.2" stroke-linecap="round" stroke-linejoin="round"/>
<path d="M317.67 314.48V238.03" stroke="#263238" stroke-linecap="round" stroke-linejoin="round"/>
<path d="M317.67 314.48V238.03" stroke="black" stroke-opacity="0.2" stroke-linecap="round" stroke-linejoin="round"/>
<path d="M334.01 113.22V134.78" stroke="#263238" stroke-linecap="round" stroke-linejoin="round"/>
<path d="M334.01 113.22V134.78" stroke="black" stroke-opacity="0.2" stroke-linecap="round" stroke-linejoin="round"/>
<path d="M341.5 104.79V126.35" stroke="#263238" stroke-linecap="round" stroke-linejoin="round"/>
<path d="M341.5 104.79V126.35" stroke="black" stroke-opacity="0.2" stroke-linecap="round" stroke-linejoin="round"/>
<path d="M334.01 71.09V94.3" stroke="#263238" stroke-linecap="round" stroke-linejoin="round"/>
<path d="M334.01 71.09V94.3" stroke="black" stroke-opacity="0.2" stroke-linecap="round" stroke-linejoin="round"/>
<path d="M341.5 62.66V82.44" stroke="#263238" stroke-linecap="round" stroke-linejoin="round"/>
<path d="M341.5 62.66V82.44" stroke="black" stroke-opacity="0.2" stroke-linecap="round" stroke-linejoin="round"/>
<path d="M77.3 321.67L234.73 280.98" stroke="#263238" stroke-linecap="round" stroke-linejoin="round"/>
<path d="M77.3 321.67L234.73 280.98" stroke="black" stroke-opacity="0.2" stroke-linecap="round" stroke-linejoin="round"/>
<path d="M88.96 239.99L181.75 245.21" stroke="#263238" stroke-linecap="round" stroke-linejoin="round"/>
<path d="M88.96 239.99L181.75 245.21" stroke="black" stroke-opacity="0.2" stroke-linecap="round" stroke-linejoin="round"/>
<path d="M88.96 224.96L181.75 237.37" stroke="#263238" stroke-linecap="round" stroke-linejoin="round"/>
<path d="M88.96 224.96L181.75 237.37" stroke="black" stroke-opacity="0.2" stroke-linecap="round" stroke-linejoin="round"/>
<path d="M134.7 300.28V247.53L119.02 246.94V303.91" stroke="#263238" stroke-linecap="round" stroke-linejoin="round"/>
<path d="M134.7 300.28V247.53L119.02 246.94V303.91" stroke="black" stroke-opacity="0.2" stroke-linecap="round" stroke-linejoin="round"/>
<path d="M149.73 296.8V248.09L139.28 247.7V299.22" stroke="#263238" stroke-linecap="round" stroke-linejoin="round"/>
<path d="M149.73 296.8V248.09L139.28 247.7V299.22" stroke="black" stroke-opacity="0.2" stroke-linecap="round" stroke-linejoin="round"/>
<path d="M114.45 304.97V246.77L90.27 245.87V310.56" stroke="#263238" stroke-linecap="round" stroke-linejoin="round"/>
<path d="M114.45 304.97V246.77L90.27 245.87V310.56" stroke="black" stroke-opacity="0.2" stroke-linecap="round" stroke-linejoin="round"/>
<path d="M177.83 290.3V249.13L154.31 248.26V295.75" stroke="#263238" stroke-linecap="round" stroke-linejoin="round"/>
<path d="M177.83 290.3V249.13L154.31 248.26V295.75" stroke="black" stroke-opacity="0.2" stroke-linecap="round" stroke-linejoin="round"/>
<path d="M215.26 171.48V162.19" stroke="#263238" stroke-linecap="round" stroke-linejoin="round"/>
<path d="M215.26 171.48V162.19" stroke="black" stroke-opacity="0.2" stroke-linecap="round" stroke-linejoin="round"/>
<path d="M215.26 188.1V178.81" stroke="#263238" stroke-linecap="round" stroke-linejoin="round"/>
<path d="M215.26 188.1V178.81" stroke="black" stroke-opacity="0.2" stroke-linecap="round" stroke-linejoin="round"/>
<path d="M215.26 220.37V211.08" stroke="#263238" stroke-linecap="round" stroke-linejoin="round"/>
<path d="M215.26 220.37V211.08" stroke="black" stroke-opacity="0.2" stroke-linecap="round" stroke-linejoin="round"/>
<path d="M215.26 236.75V227.46" stroke="#263238" stroke-linecap="round" stroke-linejoin="round"/>
<path d="M215.26 236.75V227.46" stroke="black" stroke-opacity="0.2" stroke-linecap="round" stroke-linejoin="round"/>
<path d="M218.68 222.33V213.04" stroke="#263238" stroke-linecap="round" stroke-linejoin="round"/>
<path d="M218.68 222.33V213.04" stroke="black" stroke-opacity="0.2" stroke-linecap="round" stroke-linejoin="round"/>
<path d="M222.35 209.13V199.84" stroke="#263238" stroke-linecap="round" stroke-linejoin="round"/>
<path d="M222.35 209.13V199.84" stroke="black" stroke-opacity="0.2" stroke-linecap="round" stroke-linejoin="round"/>
<path d="M225.28 211.33V202.04" stroke="#263238" stroke-linecap="round" stroke-linejoin="round"/>
<path d="M225.28 211.33V202.04" stroke="black" stroke-opacity="0.2" stroke-linecap="round" stroke-linejoin="round"/>
<path d="M225.28 195.19V185.9" stroke="#263238" stroke-linecap="round" stroke-linejoin="round"/>
<path d="M225.28 195.19V185.9" stroke="black" stroke-opacity="0.2" stroke-linecap="round" stroke-linejoin="round"/>
<path d="M357.53 217.12H390.86" stroke="#263238" stroke-linecap="round" stroke-linejoin="round"/>
<path d="M357.53 217.12H390.86" stroke="black" stroke-opacity="0.2" stroke-linecap="round" stroke-linejoin="round"/>
<path d="M357.53 228.22H390.86" stroke="#263238" stroke-linecap="round" stroke-linejoin="round"/>
<path d="M357.53 228.22H390.86" stroke="black" stroke-opacity="0.2" stroke-linecap="round" stroke-linejoin="round"/>
<path d="M357.53 239.33H390.86" stroke="#263238" stroke-linecap="round" stroke-linejoin="round"/>
<path d="M357.53 239.33H390.86" stroke="black" stroke-opacity="0.2" stroke-linecap="round" stroke-linejoin="round"/>
<path d="M357.53 250.44H390.86" stroke="#263238" stroke-linecap="round" stroke-linejoin="round"/>
<path d="M357.53 250.44H390.86" stroke="black" stroke-opacity="0.2" stroke-linecap="round" stroke-linejoin="round"/>
<path d="M357.53 261.55H390.86" stroke="#263238" stroke-linecap="round" stroke-linejoin="round"/>
<path d="M357.53 261.55H390.86" stroke="black" stroke-opacity="0.2" stroke-linecap="round" stroke-linejoin="round"/>
<path d="M357.53 272.66H390.86" stroke="#263238" stroke-linecap="round" stroke-linejoin="round"/>
<path d="M357.53 272.66H390.86" stroke="black" stroke-opacity="0.2" stroke-linecap="round" stroke-linejoin="round"/>
<path d="M357.53 283.77H390.86" stroke="#263238" stroke-linecap="round" stroke-linejoin="round"/>
<path d="M357.53 283.77H390.86" stroke="black" stroke-opacity="0.2" stroke-linecap="round" stroke-linejoin="round"/>
<path d="M357.53 294.88H390.86" stroke="#263238" stroke-linecap="round" stroke-linejoin="round"/>
<path d="M357.53 294.88H390.86" stroke="black" stroke-opacity="0.2" stroke-linecap="round" stroke-linejoin="round"/>
<path d="M357.53 305.99H390.86" stroke="#263238" stroke-linecap="round" stroke-linejoin="round"/>
<path d="M357.53 305.99H390.86" stroke="black" stroke-opacity="0.2" stroke-linecap="round" stroke-linejoin="round"/>
<path d="M357.53 317.1H390.86" stroke="#263238" stroke-linecap="round" stroke-linejoin="round"/>
<path d="M357.53 317.1H390.86" stroke="black" stroke-opacity="0.2" stroke-linecap="round" stroke-linejoin="round"/>
<path d="M357.53 328.2H390.86" stroke="#263238" stroke-linecap="round" stroke-linejoin="round"/>
<path d="M357.53 328.2H390.86" stroke="black" stroke-opacity="0.2" stroke-linecap="round" stroke-linejoin="round"/>
<path d="M357.53 339.31H390.86" stroke="#263238" stroke-linecap="round" stroke-linejoin="round"/>
<path d="M357.53 339.31H390.86" stroke="black" stroke-opacity="0.2" stroke-linecap="round" stroke-linejoin="round"/>
<path d="M390.86 207.97V353.04H397.4V379.83" stroke="#263238" stroke-linecap="round" stroke-linejoin="round"/>
<path d="M390.86 207.97V353.04H397.4V379.83" stroke="black" stroke-opacity="0.2" stroke-linecap="round" stroke-linejoin="round"/>
<path d="M390.86 353.04H360.8" stroke="#263238" stroke-linecap="round" stroke-linejoin="round"/>
<path d="M390.86 353.04H360.8" stroke="black" stroke-opacity="0.2" stroke-linecap="round" stroke-linejoin="round"/>
<path d="M300.68 273.31L311.14 281.81" stroke="#263238" stroke-linecap="round" stroke-linejoin="round"/>
<path d="M300.68 273.31L311.14 281.81" stroke="black" stroke-opacity="0.2" stroke-linecap="round" stroke-linejoin="round"/>
<path d="M298.72 233.45H284.35" stroke="#263238" stroke-linecap="round" stroke-linejoin="round"/>
<path d="M298.72 233.45H284.35" stroke="black" stroke-opacity="0.2" stroke-linecap="round" stroke-linejoin="round"/>
<path d="M285.23 233.69V245.1H290.59V233.86" stroke="#263238" stroke-linecap="round" stroke-linejoin="round"/>
<path d="M285.23 233.69V245.1H290.59V233.86" stroke="black" stroke-opacity="0.2" stroke-linecap="round" stroke-linejoin="round"/>
<path d="M169.71 235.24V60.95" stroke="#263238" stroke-miterlimit="10"/>
<path d="M169.71 235.24V60.95" stroke="black" stroke-opacity="0.2" stroke-miterlimit="10"/>
<path d="M176.68 235.94V106.96" stroke="#263238" stroke-miterlimit="10"/>
<path d="M176.68 235.94V106.96" stroke="black" stroke-opacity="0.2" stroke-miterlimit="10"/>
<path d="M157.86 234.54V78.38" stroke="#263238" stroke-miterlimit="10"/>
<path d="M157.86 234.54V78.38" stroke="black" stroke-opacity="0.2" stroke-miterlimit="10"/>
<path d="M144.61 231.76V84.66" stroke="#263238" stroke-miterlimit="10"/>
<path d="M144.61 231.76V84.66" stroke="black" stroke-opacity="0.2" stroke-miterlimit="10"/>
<path d="M132.76 230.36V81.87" stroke="#263238" stroke-miterlimit="10"/>
<path d="M132.76 230.36V81.87" stroke="black" stroke-opacity="0.2" stroke-miterlimit="10"/>
<path d="M117.42 228.27V73.5" stroke="#263238" stroke-miterlimit="10"/>
<path d="M117.42 228.27V73.5" stroke="black" stroke-opacity="0.2" stroke-miterlimit="10"/>
<path d="M101.39 227.57V79.08" stroke="#263238" stroke-miterlimit="10"/>
<path d="M101.39 227.57V79.08" stroke="black" stroke-opacity="0.2" stroke-miterlimit="10"/>
<path d="M92.32 199.69L177.38 221.11" stroke="#263238" stroke-miterlimit="10"/>
<path d="M92.32 199.69L177.38 221.11" stroke="black" stroke-opacity="0.2" stroke-miterlimit="10"/>
<path d="M94.42 175.29L176.25 201.51" stroke="#263238" stroke-miterlimit="10"/>
<path d="M94.42 175.29L176.25 201.51" stroke="black" stroke-opacity="0.2" stroke-miterlimit="10"/>
<path d="M112.54 152.28L177 181.53" stroke="#263238" stroke-miterlimit="10"/>
<path d="M112.54 152.28L177 181.53" stroke="black" stroke-opacity="0.2" stroke-miterlimit="10"/>
<path d="M112.54 85.35L176.62 129.88" stroke="#263238" stroke-miterlimit="10"/>
<path d="M112.54 85.35L176.62 129.88" stroke="black" stroke-opacity="0.2" stroke-miterlimit="10"/>
<path d="M160.97 136.24L129.6 134.61V121.54L160.97 119.9V136.24Z" fill="#FF7400" stroke="#263238" stroke-linecap="round" stroke-linejoin="round"/>
<path d="M219.12 93.63H161.62V109.97H219.12V93.63Z" fill="#FF7400" stroke="#263238" stroke-linecap="round" stroke-linejoin="round"/>
<path d="M179.4 104.88C179.244 104.995 179.054 105.055 178.86 105.05C178.663 105.054 178.47 104.994 178.31 104.88C178.14 104.76 178.019 104.582 177.97 104.38L176.74 100.25L175.51 104.38C175.461 104.582 175.34 104.76 175.17 104.88C175.01 104.994 174.817 105.054 174.62 105.05C174.426 105.055 174.236 104.995 174.08 104.88C173.919 104.768 173.805 104.601 173.76 104.41L172.5 99.64C172.497 99.5867 172.497 99.5333 172.5 99.48C172.497 99.4039 172.512 99.3282 172.543 99.2587C172.574 99.1893 172.621 99.1281 172.68 99.08C172.793 98.9799 172.939 98.9232 173.09 98.92C173.214 98.9182 173.335 98.9607 173.43 99.04C173.536 99.1253 173.607 99.2462 173.63 99.38L174.71 103.81L176 99.63C176.04 99.4277 176.141 99.2426 176.29 99.1C176.433 98.9897 176.609 98.9299 176.79 98.9299C176.971 98.9299 177.147 98.9897 177.29 99.1C177.439 99.2426 177.54 99.4277 177.58 99.63L178.83 103.81L179.92 99.38C179.943 99.2462 180.014 99.1253 180.12 99.04C180.215 98.9607 180.336 98.9182 180.46 98.92C180.611 98.9232 180.757 98.9799 180.87 99.08C180.928 99.1286 180.975 99.1899 181.006 99.2592C181.037 99.3285 181.052 99.404 181.05 99.48C181.053 99.5333 181.053 99.5867 181.05 99.64L179.79 104.41C179.759 104.51 179.709 104.604 179.642 104.684C179.575 104.765 179.493 104.831 179.4 104.88Z" fill="white"/>
<path d="M181.76 101.81C181.923 101.488 182.177 101.22 182.49 101.04C182.827 100.835 183.216 100.731 183.61 100.74C183.908 100.737 184.203 100.792 184.48 100.9C184.717 100.998 184.926 101.152 185.09 101.35C185.241 101.546 185.36 101.766 185.44 102C185.522 102.252 185.562 102.515 185.56 102.78C185.567 102.877 185.539 102.973 185.48 103.05C185.455 103.084 185.421 103.111 185.383 103.128C185.344 103.146 185.302 103.153 185.26 103.15H182.58C182.567 103.312 182.591 103.475 182.648 103.627C182.705 103.779 182.795 103.917 182.912 104.03C183.028 104.144 183.168 104.23 183.321 104.284C183.475 104.337 183.638 104.357 183.8 104.34C184.211 104.32 184.606 104.173 184.93 103.92C184.975 103.882 185.031 103.861 185.09 103.86C185.134 103.86 185.178 103.87 185.217 103.889C185.257 103.908 185.292 103.936 185.32 103.97C185.389 104.043 185.429 104.139 185.43 104.24C185.429 104.296 185.416 104.35 185.392 104.401C185.368 104.451 185.333 104.495 185.29 104.53C184.853 104.897 184.3 105.095 183.73 105.09C183.437 105.105 183.143 105.062 182.867 104.962C182.59 104.863 182.336 104.709 182.12 104.51C181.913 104.294 181.753 104.038 181.65 103.758C181.547 103.477 181.502 103.178 181.52 102.88C181.515 102.509 181.597 102.143 181.76 101.81ZM184.65 102.55C184.643 102.261 184.545 101.981 184.37 101.75C184.282 101.644 184.17 101.56 184.043 101.506C183.916 101.452 183.778 101.429 183.64 101.44C183.499 101.433 183.359 101.46 183.231 101.517C183.102 101.574 182.989 101.661 182.9 101.77C182.713 101.989 182.604 102.263 182.59 102.55H184.65Z" fill="white"/>
<path d="M186.25 104.33C186.249 104.239 186.281 104.15 186.34 104.08C186.372 104.047 186.411 104.021 186.454 104.003C186.497 103.986 186.544 103.978 186.59 103.98C186.667 103.982 186.742 104.003 186.81 104.04L187.1 104.2C187.22 104.253 187.343 104.297 187.47 104.33C187.63 104.373 187.794 104.396 187.96 104.4C188.108 104.401 188.256 104.384 188.4 104.35C188.525 104.323 188.639 104.26 188.73 104.17C188.775 104.128 188.811 104.077 188.835 104.02C188.859 103.963 188.871 103.902 188.87 103.84C188.87 103.6 188.67 103.43 188.28 103.34L187.62 103.17L187.14 103.02C187.008 102.98 186.881 102.926 186.76 102.86C186.652 102.809 186.556 102.737 186.477 102.647C186.397 102.558 186.337 102.453 186.3 102.34C186.258 102.204 186.237 102.062 186.24 101.92C186.232 101.744 186.27 101.569 186.351 101.413C186.431 101.257 186.552 101.125 186.7 101.03C187.07 100.806 187.498 100.698 187.93 100.72C188.408 100.717 188.88 100.823 189.31 101.03C189.363 101.052 189.41 101.086 189.447 101.128C189.485 101.171 189.512 101.223 189.526 101.278C189.541 101.333 189.543 101.391 189.531 101.447C189.52 101.503 189.495 101.555 189.46 101.6C189.432 101.633 189.396 101.659 189.356 101.676C189.317 101.693 189.273 101.702 189.23 101.7C189.174 101.713 189.116 101.713 189.06 101.7H188.97H188.84H188.71H188.54H188.38H188.18H188C187.812 101.693 187.624 101.727 187.45 101.8C187.382 101.826 187.323 101.873 187.282 101.934C187.241 101.995 187.219 102.067 187.22 102.14C187.215 102.194 187.224 102.249 187.245 102.3C187.265 102.35 187.298 102.395 187.34 102.43C187.489 102.515 187.651 102.576 187.82 102.61L188.47 102.77C188.835 102.841 189.178 102.999 189.47 103.23C189.576 103.336 189.658 103.462 189.712 103.602C189.765 103.741 189.788 103.891 189.78 104.04C189.791 104.233 189.754 104.425 189.672 104.6C189.59 104.774 189.465 104.926 189.31 105.04C188.943 105.282 188.509 105.401 188.07 105.38C187.478 105.402 186.895 105.23 186.41 104.89C186.349 104.881 186.292 104.854 186.246 104.814C186.2 104.773 186.167 104.72 186.15 104.661C186.133 104.602 186.133 104.54 186.151 104.481C186.169 104.422 186.203 104.37 186.25 104.33Z" fill="white"/>
<path d="M191.28 104.73C191.047 104.451 190.929 104.093 190.95 103.73V101.54H190.54C190.489 101.544 190.438 101.537 190.39 101.519C190.341 101.502 190.297 101.475 190.26 101.44C190.225 101.407 190.199 101.366 190.181 101.321C190.164 101.276 190.157 101.228 190.16 101.18C190.157 101.134 190.163 101.089 190.179 101.046C190.194 101.003 190.219 100.963 190.25 100.93C190.287 100.895 190.331 100.868 190.38 100.851C190.428 100.833 190.479 100.826 190.53 100.83H191L191.13 99.83C191.141 99.6925 191.198 99.5625 191.29 99.46C191.337 99.4094 191.394 99.3697 191.458 99.3438C191.522 99.3178 191.591 99.3063 191.66 99.31C191.714 99.3075 191.768 99.317 191.818 99.3377C191.868 99.3585 191.913 99.39 191.95 99.43C192.02 99.5405 192.055 99.6694 192.05 99.8V100.88H192.73C192.78 100.875 192.83 100.882 192.876 100.899C192.923 100.916 192.965 100.944 193 100.98C193.065 101.055 193.1 101.151 193.1 101.25C193.1 101.343 193.064 101.433 193 101.5C192.963 101.532 192.92 101.557 192.874 101.572C192.828 101.587 192.779 101.594 192.73 101.59H192V103.52C191.987 103.725 192.021 103.93 192.1 104.12C192.132 104.186 192.184 104.241 192.249 104.277C192.313 104.312 192.387 104.327 192.46 104.32H192.84C192.891 104.316 192.941 104.323 192.988 104.342C193.035 104.362 193.077 104.392 193.11 104.43C193.176 104.508 193.212 104.608 193.21 104.71C193.221 104.769 193.221 104.831 193.21 104.89C193.188 104.941 193.149 104.983 193.1 105.01L192.95 105.09C192.884 105.098 192.816 105.098 192.75 105.09H192.19C192.021 105.1 191.852 105.073 191.695 105.011C191.538 104.948 191.396 104.853 191.28 104.73Z" fill="white"/>
<path d="M200.28 103.64H197.58L197.2 104.64C197.162 104.764 197.085 104.873 196.98 104.95C196.884 105.02 196.769 105.059 196.65 105.06C196.498 105.062 196.351 105.004 196.24 104.9C196.186 104.853 196.143 104.794 196.114 104.729C196.084 104.663 196.069 104.592 196.07 104.52C196.056 104.447 196.056 104.373 196.07 104.3L198 99.66C198.07 99.4159 198.209 99.1971 198.4 99.03C198.568 98.9254 198.762 98.87 198.96 98.87C199.158 98.87 199.352 98.9254 199.52 99.03C199.712 99.1987 199.853 99.4165 199.93 99.66L201.78 104.31C201.81 104.38 201.827 104.454 201.83 104.53C201.831 104.603 201.815 104.675 201.784 104.741C201.753 104.807 201.707 104.864 201.65 104.91C201.546 104.996 201.415 105.043 201.28 105.043C201.145 105.043 201.014 104.996 200.91 104.91C200.806 104.833 200.728 104.724 200.69 104.6L200.28 103.64ZM198.93 100L197.93 102.79H200L198.93 100Z" fill="white"/>
<path d="M203.78 104.88C203.61 104.689 203.484 104.464 203.41 104.22L202.28 101.48C202.271 101.41 202.271 101.34 202.28 101.27C202.279 101.204 202.292 101.139 202.318 101.079C202.344 101.019 202.382 100.965 202.43 100.92C202.526 100.833 202.65 100.783 202.78 100.78C202.878 100.779 202.973 100.811 203.05 100.87C203.14 100.938 203.206 101.033 203.24 101.14L204.35 103.97L205.46 101.14C205.498 101.034 205.563 100.941 205.65 100.87C205.728 100.811 205.823 100.779 205.92 100.78C206.05 100.781 206.175 100.831 206.27 100.92C206.318 100.965 206.356 101.019 206.382 101.079C206.408 101.139 206.421 101.204 206.42 101.27C206.434 101.339 206.434 101.411 206.42 101.48L205.29 104.22C205.216 104.464 205.09 104.689 204.92 104.88C204.771 105.004 204.584 105.071 204.39 105.071C204.196 105.071 204.009 105.004 203.86 104.88H203.78Z" fill="white"/>
<path d="M207.15 101.81C207.31 101.489 207.56 101.221 207.87 101.04C208.211 100.836 208.603 100.732 209 100.74C209.297 100.739 209.592 100.793 209.87 100.9C210.105 101.001 210.314 101.155 210.48 101.35C210.632 101.544 210.748 101.764 210.82 102C210.9 102.252 210.944 102.515 210.95 102.78C210.952 102.876 210.924 102.971 210.87 103.05C210.843 103.085 210.808 103.112 210.768 103.13C210.728 103.147 210.684 103.154 210.64 103.15H208C207.986 103.312 208.008 103.476 208.064 103.629C208.121 103.782 208.211 103.921 208.328 104.034C208.444 104.148 208.585 104.235 208.739 104.288C208.894 104.341 209.058 104.358 209.22 104.34C209.627 104.318 210.018 104.171 210.34 103.92C210.388 103.881 210.448 103.86 210.51 103.86C210.554 103.861 210.597 103.871 210.637 103.89C210.676 103.909 210.712 103.936 210.74 103.97C210.807 104.044 210.842 104.141 210.84 104.24C210.841 104.295 210.83 104.349 210.808 104.4C210.785 104.45 210.752 104.494 210.71 104.53C210.273 104.897 209.72 105.095 209.15 105.09C208.857 105.105 208.563 105.062 208.287 104.962C208.01 104.863 207.756 104.709 207.54 104.51C207.333 104.294 207.173 104.038 207.07 103.758C206.967 103.477 206.922 103.178 206.94 102.88C206.926 102.512 206.998 102.145 207.15 101.81ZM210.04 102.55C210.033 102.261 209.935 101.981 209.76 101.75C209.672 101.644 209.56 101.56 209.433 101.506C209.306 101.452 209.168 101.429 209.03 101.44C208.888 101.433 208.746 101.46 208.616 101.517C208.486 101.574 208.371 101.661 208.28 101.77C208.096 101.989 207.991 102.264 207.98 102.55H210.04Z" fill="white"/>
<path d="M212.1 104.88C212.043 104.826 211.998 104.761 211.969 104.689C211.939 104.616 211.926 104.538 211.93 104.46C211.928 104.382 211.942 104.305 211.972 104.232C212.001 104.16 212.044 104.095 212.1 104.04C212.157 103.985 212.224 103.941 212.298 103.912C212.372 103.883 212.451 103.868 212.53 103.87C212.693 103.869 212.85 103.929 212.97 104.04C213.027 104.094 213.072 104.159 213.101 104.231C213.131 104.304 213.144 104.382 213.14 104.46C213.143 104.538 213.13 104.616 213.1 104.688C213.071 104.761 213.027 104.826 212.97 104.88C212.914 104.94 212.846 104.987 212.77 105.018C212.694 105.049 212.612 105.063 212.53 105.06C212.45 105.062 212.37 105.047 212.296 105.016C212.222 104.985 212.155 104.939 212.1 104.88Z" fill="white"/>
<path d="M214.99 96.69H168.6V106.9H214.99V96.69Z" stroke="white" stroke-linecap="round" stroke-linejoin="round"/>
<path d="M160.96 163.55H103.46V179.89H160.96V163.55Z" fill="#FF7400" stroke="#263238" stroke-linecap="round" stroke-linejoin="round"/>
<path d="M148.01 167.61H118.85V165.02L107.39 171.47L118.85 177.93V175.34H148.01V167.61Z" fill="white"/>
<path d="M154.99 123.96L137.51 124.54V122.33L131.84 127.82L137.51 133.31V131.1L154.99 131.69V123.96Z" fill="white"/>
<path d="M167.5 390.45H156.34L158.01 61.06H165.83L167.5 390.45Z" fill="#263238"/>
<path d="M167.5 390.45H156.34L158.01 61.06H165.83L167.5 390.45Z" stroke="#263238" stroke-linecap="round" stroke-linejoin="round"/>
<path d="M167.5 390.45H156.34L158.01 61.06H165.83L167.5 390.45Z" stroke="black" stroke-opacity="0.2" stroke-linecap="round" stroke-linejoin="round"/>
<path d="M171.67 386.46H151.55V415.17H171.67V386.46Z" fill="#263238" stroke="#263238" stroke-linecap="round" stroke-linejoin="round"/>
<path d="M150 70.88H171.53V82.44C171.53 85.2947 170.397 88.0325 168.379 90.052C166.361 92.0715 163.625 93.2074 160.77 93.21C157.914 93.21 155.174 92.0753 153.154 90.0555C151.135 88.0358 150 85.2964 150 82.44V70.88Z" fill="white" stroke="#263238" stroke-linecap="round" stroke-linejoin="round"/>
<path d="M158.48 57.87H163C165.917 57.87 168.715 59.0289 170.778 61.0918C172.841 63.1547 174 65.9526 174 68.87V80.2H147.5V68.85C147.505 65.9395 148.664 63.1498 150.722 61.0918C152.78 59.0338 155.57 57.8753 158.48 57.87Z" fill="#263238"/>
<path d="M158.48 57.87H163C165.917 57.87 168.715 59.0289 170.778 61.0918C172.841 63.1547 174 65.9526 174 68.87V80.2H147.5V68.85C147.505 65.9395 148.664 63.1498 150.722 61.0918C152.78 59.0338 155.57 57.8753 158.48 57.87Z" stroke="#263238" stroke-linecap="round" stroke-linejoin="round"/>
<path d="M158.48 57.87H163C165.917 57.87 168.715 59.0289 170.778 61.0918C172.841 63.1547 174 65.9526 174 68.87V80.2H147.5V68.85C147.505 65.9395 148.664 63.1498 150.722 61.0918C152.78 59.0338 155.57 57.8753 158.48 57.87Z" stroke="black" stroke-opacity="0.2" stroke-linecap="round" stroke-linejoin="round"/>
<path opacity="0.11" d="M258.21 428.51C275.535 428.51 289.58 423.903 289.58 418.22C289.58 412.537 275.535 407.93 258.21 407.93C240.885 407.93 226.84 412.537 226.84 418.22C226.84 423.903 240.885 428.51 258.21 428.51Z" fill="black"/>
<path d="M267 241.75C267 241.75 281.84 241.61 288.46 244.19C295.08 246.77 298.12 262.51 298.2 268.63C298.28 274.75 294.26 277.24 294.26 277.24L294.85 281.13C297.14 281.757 299.137 283.168 300.494 285.115C301.852 287.063 302.484 289.425 302.28 291.79C301.98 300.67 301.81 310.25 295.12 313.43C288.43 316.61 258.87 312.72 254.32 305.75C249.77 298.78 258.46 287.21 256.47 276.07C254.48 264.93 252.47 253.96 253.08 245.98C253.69 238 267 241.75 267 241.75Z" fill="#263238" stroke="#263238" stroke-linecap="round" stroke-linejoin="round"/>
<path d="M302.31 291.79C302.514 289.425 301.882 287.063 300.524 285.115C299.167 283.168 297.17 281.757 294.88 281.13L294.29 277.24C294.29 277.24 298.29 274.74 298.23 268.63C298.16 263.03 295.6 249.34 290.08 245.1L289.99 245.17C289.99 245.17 284.78 242.34 281.91 248.24C279.04 254.14 278.12 264.37 278.54 270.69C278.96 277.01 276.34 291.3 275.3 300.82C274.65 306.71 276.71 311.33 280.47 314.23C286.9 314.82 292.64 314.63 295.15 313.43C301.84 310.25 302 300.67 302.31 291.79Z" fill="#FF7400" stroke="#263238" stroke-linecap="round" stroke-linejoin="round"/>
<path d="M295.71 256.83C291.239 258.213 286.659 259.216 282.02 259.83L281.82 262.61C286.693 262.385 291.508 261.449 296.11 259.83L295.71 256.83Z" fill="#263238" stroke="#263238" stroke-linecap="round" stroke-linejoin="round"/>
<path d="M301.62 287.08C298.658 288.405 295.627 289.57 292.54 290.57C288.54 291.76 286.54 291.76 286.78 293.75C287.02 295.74 287.18 304.67 290.35 307.05C293.52 309.43 299.57 308.22 301.62 305C303.55 302 305.21 294.52 301.62 287.08Z" fill="#263238" stroke="#263238" stroke-linecap="round" stroke-linejoin="round"/>
<path d="M294.29 277.24C294.29 277.24 287.7 279.03 272.89 281.1L273.06 286C273.06 286 288.4 283.8 294.88 281.13L294.29 277.24Z" fill="#263238" stroke="#263238" stroke-linecap="round" stroke-linejoin="round"/>
<path d="M236.76 348.46C236.76 348.46 234.76 356.86 235.76 362.52C236.76 368.18 246.33 392.43 247.27 396.34C248.21 400.25 248.97 404.14 248.97 404.14L254.77 403.52C254.707 397.649 254.192 391.792 253.23 386C251.58 375.06 251.77 370 250.35 365.55C249.808 363.569 249.071 361.646 248.15 359.81L251.15 352.34L236.76 348.46Z" fill="white" stroke="#263238" stroke-linecap="round" stroke-linejoin="round"/>
<path d="M259.84 355C259.84 355 258.68 361.37 258.97 364.54C259.26 367.71 264.86 393.94 265.89 399.07C266.92 404.2 267.73 409.68 267.73 409.68L272.73 410.22C272.73 410.22 275.39 395.22 274.82 386.28C274.25 377.34 270.57 365.56 270.57 365.56L275.78 353.89L259.84 355Z" fill="white" stroke="#263238" stroke-linecap="round" stroke-linejoin="round"/>
<path d="M241.63 316.68C241.63 316.68 237.93 327.68 236.16 336.2C235.113 341.263 234.444 346.397 234.16 351.56C236.934 352.537 239.784 353.286 242.68 353.8C246.8 354.45 252.2 355.07 252.2 355.07L252.35 356.12C252.35 356.12 254.53 358.02 263.81 357.77C269.463 357.613 275.102 357.132 280.7 356.33C280.7 356.33 281.52 332.33 280.77 328.33C280.312 325.932 279.978 323.512 279.77 321.08C279.77 321.08 267.96 321.15 256.77 320.34C245.58 319.53 241.63 316.68 241.63 316.68Z" fill="#263238" stroke="#263238" stroke-linecap="round" stroke-linejoin="round"/>
<path d="M234.46 348.59C234.46 348.59 246.69 351.88 252.34 351.49" stroke="white" stroke-linecap="round" stroke-linejoin="round"/>
<path d="M252.6 352.28C252.6 352.28 267.46 355.17 280.74 351.75" stroke="white" stroke-linecap="round" stroke-linejoin="round"/>
<path d="M252.15 355.07L255.15 331.13C256.221 330.28 257.354 329.511 258.54 328.83" stroke="white" stroke-linecap="round" stroke-linejoin="round"/>
<path d="M255.08 332.14L250.05 326.69" stroke="white" stroke-linecap="round" stroke-linejoin="round"/>
<path d="M255.46 252C255.46 252 247.04 251 244.1 251.41C241.16 251.82 235.37 253.1 232.93 253.04C230.49 252.98 221.87 253.17 218.4 252.92C214.93 252.67 209.8 252.76 210.77 255.39C211.74 258.02 218.53 263.86 225.6 265.89L237 269.16C237 269.16 241.49 281.01 243.62 285.23C245.75 289.45 245.62 294.34 245.68 296.9C245.74 299.46 240.68 317.83 240.68 317.83C240.68 317.83 245.54 321.44 256.95 322.83C264.247 323.632 271.617 323.464 278.87 322.33C279.424 322.321 279.975 322.244 280.51 322.1C280.51 322.1 280.84 306.42 280.83 293.74C280.82 281.06 284.24 272.46 279.71 264.33C275.18 256.2 263.87 253.33 260.71 252.48C259.006 251.991 257.225 251.828 255.46 252Z" fill="white" stroke="#263238" stroke-linecap="round" stroke-linejoin="round"/>
<path d="M260.66 252.46C258.973 251.97 257.209 251.801 255.46 251.96C255.46 251.96 247.04 250.96 244.1 251.37C241.16 251.78 235.37 253.06 232.93 253C231.88 253 229.67 253 227.22 253C224.419 256.271 222.704 260.332 222.31 264.62C223.377 265.103 224.476 265.511 225.6 265.84L237 269.11C237 269.11 241.49 280.96 243.62 285.18C245.75 289.4 245.62 294.29 245.68 296.85C245.74 299.41 240.68 317.78 240.68 317.78C240.68 317.78 245.54 321.39 256.95 322.78C264.247 323.582 271.618 323.414 278.87 322.28C279.424 322.271 279.975 322.194 280.51 322.05C280.51 322.05 280.84 306.37 280.83 293.69C280.82 281.01 284.24 272.41 279.71 264.28C275.18 256.15 263.86 253.27 260.66 252.46Z" fill="white" stroke="#263238" stroke-linecap="round" stroke-linejoin="round"/>
<path d="M251.48 251.87C250.672 255.386 250.429 259.008 250.76 262.6C251.46 267.48 254.48 268.87 258.19 268.17C261.9 267.47 265.85 260.98 266.78 257.5C267.71 254.02 267.47 252.86 263.3 251.93C259.13 251 253.59 248.32 251.48 251.87Z" stroke="#263238" stroke-linecap="round" stroke-linejoin="round"/>
<path d="M232.02 257.37L238.5 268.39L234.18 264.07" stroke="#263238" stroke-width="0.5" stroke-linecap="round" stroke-linejoin="round"/>
<path d="M238.5 268.39L236.13 258.45" stroke="#263238" stroke-width="0.5" stroke-linecap="round" stroke-linejoin="round"/>
<path d="M256.33 284.88C256.33 284.88 264.46 291.62 273.28 290.69" stroke="#263238" stroke-width="0.5" stroke-linecap="round" stroke-linejoin="round"/>
<path d="M252.62 287.44C257.656 289.721 263.094 290.982 268.62 291.15" stroke="#263238" stroke-width="0.5" stroke-linecap="round" stroke-linejoin="round"/>
<path d="M244.93 301.52C244.93 301.52 249.23 306 261.21 305.25C273.19 304.5 280.83 301.35 280.83 301.35L280.78 305.17C280.78 305.17 265.1 310.63 252.44 308.09C244.92 306.58 243.85 305.15 243.85 305.15L244.93 301.52Z" fill="#263238" stroke="#263238" stroke-linecap="round" stroke-linejoin="round"/>
<path d="M222.69 255.45C222.69 255.45 225.8 254.06 230.07 249.51C234.34 244.96 238.55 242.71 240.54 242.39C242.71 241.989 244.844 241.411 246.92 240.66C247.52 240.35 250.22 239.86 251.16 238.07C252.1 236.28 250.31 237.07 249.26 237.12C248.21 237.17 249.12 235.96 250.26 234.65C251.4 233.34 254.06 230.18 253.73 228.42C253.4 226.66 250.89 227.63 246.94 229.42C242.99 231.21 240.41 234.85 239.5 236.17C239.095 236.831 238.581 237.419 237.98 237.91C237.98 237.91 228.67 241.91 221.22 245.61C213.77 249.31 210.43 252.23 210.48 254.78C210.53 257.33 213.25 258 213.25 258" fill="white"/>
<path d="M222.69 255.45C222.69 255.45 225.8 254.06 230.07 249.51C234.34 244.96 238.55 242.71 240.54 242.39C242.71 241.989 244.844 241.411 246.92 240.66C247.52 240.35 250.22 239.86 251.16 238.07C252.1 236.28 250.31 237.07 249.26 237.12C248.21 237.17 249.12 235.96 250.26 234.65C251.4 233.34 254.06 230.18 253.73 228.42C253.4 226.66 250.89 227.63 246.94 229.42C242.99 231.21 240.41 234.85 239.5 236.17C239.095 236.831 238.581 237.419 237.98 237.91C237.98 237.91 228.67 241.91 221.22 245.61C213.77 249.31 210.43 252.23 210.48 254.78C210.53 257.33 213.25 258 213.25 258" stroke="#263238" stroke-linecap="round" stroke-linejoin="round"/>
<path d="M251.69 250.17C251.69 250.17 251.94 254.98 252.55 259.47C253.16 263.96 255.23 267.36 259.18 264.74C263.13 262.12 264.54 255.74 264.54 255.74C259.841 255.046 255.409 253.125 251.69 250.17Z" stroke="#263238" stroke-linecap="round" stroke-linejoin="round"/>
<path d="M245 239.85C245 239.85 243.64 240.95 244.54 243.85C244.694 244.292 244.935 244.699 245.249 245.046C245.563 245.393 245.943 245.674 246.367 245.871C246.791 246.069 247.251 246.18 247.719 246.197C248.186 246.213 248.653 246.136 249.09 245.97C249.28 245.64 250.17 249.9 251.48 251.88C252.79 253.86 259.12 257.39 261.82 257.88C264.52 258.37 266.82 256.79 267.24 255.19C267.884 250.97 268.218 246.709 268.24 242.44C268.24 238.16 268.59 236.39 267.78 234.62C266.97 232.85 265.44 231.46 260.18 230.99C254.92 230.52 251.77 232.43 249.18 234.29C248.459 234.712 247.876 235.335 247.503 236.082C247.13 236.83 246.983 237.67 247.08 238.5L245 239.85Z" fill="white" stroke="#263238" stroke-linecap="round" stroke-linejoin="round"/>
<path d="M246.71 238.61C247.067 239.6 247.614 240.51 248.32 241.29C248.792 241.845 249.329 242.342 249.92 242.77L249.42 240.26L250.56 241.02C250.544 240.474 250.497 239.93 250.42 239.39C250.31 238.61 251.61 239.56 251.61 239.56C251.581 238.54 251.74 237.523 252.08 236.56C252.271 236.113 252.531 235.698 252.85 235.33C252.85 235.33 247.42 237.2 246.71 238.61Z" fill="#263238" stroke="#263238" stroke-linecap="round" stroke-linejoin="round"/>
<path d="M245 239.85C245 239.85 253 233.16 268.08 235.28C268.08 235.28 267.25 226.67 265.98 225.28C264.71 223.89 260.62 221.46 254.14 223.47C247.66 225.48 243.82 229.05 243.67 231.09C243.52 233.13 245 239.85 245 239.85Z" fill="#FF7400" stroke="#263238" stroke-linecap="round" stroke-linejoin="round"/>
<path d="M252.08 236.6C252.08 236.6 256.17 237.93 259.24 236.95C263.12 235.452 267.28 234.82 271.43 235.1C277.13 235.51 276.35 235.63 276.35 235.63C276.35 235.63 273.16 233.63 265.35 233.97C257.54 234.31 251.61 236 252.08 236.6Z" fill="#FF7400" stroke="#263238" stroke-linecap="round" stroke-linejoin="round"/>
<path d="M267 235.37C267 235.37 268.64 236.37 273.54 237.22C278.44 238.07 277.93 236.85 276.39 235.63C274.85 234.41 267.43 234.81 267 235.37Z" fill="#FF7400" stroke="#263238" stroke-linecap="round" stroke-linejoin="round"/>
<path d="M263.52 238C263.309 238.274 263.176 238.6 263.135 238.943C263.095 239.287 263.148 239.635 263.29 239.95C263.771 241.434 264.034 242.98 264.07 244.54C264.07 244.88 264.01 245.31 262.82 245.22C261.935 245.126 261.061 244.948 260.21 244.69" stroke="#263238" stroke-linecap="round" stroke-linejoin="round"/>
<path d="M259 239.93C259 240.59 258.63 241.1 258.28 241.07C257.93 241.04 257.68 240.49 257.72 239.84C257.76 239.19 258.1 238.66 258.45 238.69C258.8 238.72 259.07 239.27 259 239.93Z" fill="#263238"/>
<path d="M266.28 239.43C266.28 240.09 265.91 240.6 265.56 240.57C265.21 240.54 264.96 239.99 265.01 239.34C265.06 238.69 265.38 238.17 265.73 238.19C266.08 238.21 266.33 238.77 266.28 239.43Z" fill="#263238"/>
<path d="M255.5 237.79C255.5 237.79 257.05 235.15 259.64 236.04" stroke="#263238" stroke-linecap="round" stroke-linejoin="round"/>
<path d="M264.56 235.46C264.56 235.46 266.93 234.69 267.48 236.52L264.56 235.46Z" fill="white"/>
<path d="M264.56 235.46C264.56 235.46 266.93 234.69 267.48 236.52" stroke="#263238" stroke-linecap="round" stroke-linejoin="round"/>
<path d="M260 249.88C260 249.88 262 247.05 264.05 249.31" stroke="#263238" stroke-linecap="round" stroke-linejoin="round"/>
<path d="M272.32 257C272.32 257 267.08 257.77 265.78 267.31C264.59 276.01 269.04 285.2 271.56 288.62C274.08 292.04 275.92 294.03 277.18 294.12C278.44 294.21 279.72 294.31 281.05 287.12C282.38 279.93 285.45 274.36 282.46 267.77C279.47 261.18 277.74 260.42 272.32 257Z" fill="#263238" stroke="#263238" stroke-linecap="round" stroke-linejoin="round"/>
<path d="M247.75 251.49C244.739 254.91 242.58 258.995 241.45 263.41C239.26 271.24 243.5 284.52 244.1 285.83C244.559 287.053 244.894 288.32 245.1 289.61C242.318 285.994 240.112 281.97 238.56 277.68C236.244 271.95 235.772 265.641 237.21 259.63C238.157 256.686 239.692 253.965 241.72 251.63C243.711 251.272 245.745 251.225 247.75 251.49Z" fill="#263238" stroke="#263238" stroke-linecap="round" stroke-linejoin="round"/>
<path d="M274.15 407.22C274.15 407.22 267.33 407.38 266.66 407.7C265.99 408.02 266 410.36 266 410.36C266 410.36 261.63 416.56 259.4 417.8C257.17 419.04 253.72 421.16 254.19 422.41C254.66 423.66 255.39 423.89 259.65 424.2C263.91 424.51 270.89 421.2 273.53 420.88C276.17 420.56 275.91 420.21 275.68 418.24C275.45 416.27 274.17 410.86 274.17 410.86C274.512 409.67 274.505 408.406 274.15 407.22Z" fill="#FF7400" stroke="#263238" stroke-linecap="round" stroke-linejoin="round"/>
<path d="M266 410.36C266 410.36 264.73 406.07 266.41 405.91C268.09 405.75 269.89 405.51 269.96 407.1C269.884 408.469 269.598 409.818 269.11 411.1C269.11 411.1 266.87 411.16 266 410.36Z" fill="white" stroke="#263238" stroke-linecap="round" stroke-linejoin="round"/>
<path d="M269.11 411.14C269.11 411.14 266.89 414.71 264.84 416.05C262.79 417.39 261.84 415.83 261.99 415.47C262.14 415.11 265.99 410.36 265.99 410.36L269.11 411.14Z" fill="white" stroke="#263238" stroke-linecap="round" stroke-linejoin="round"/>
<path d="M258.44 422.9C255.44 422.68 254.56 421.78 254.29 421.34C254.198 421.501 254.141 421.68 254.124 421.864C254.107 422.049 254.129 422.235 254.19 422.41C254.66 423.65 255.39 423.89 259.65 424.2C263.91 424.51 270.89 421.2 273.53 420.88C276.17 420.56 275.91 420.21 275.68 418.24C275.68 418.14 275.68 418.02 275.63 417.9C274.5 418.33 272.85 418.9 271.12 419.4C268 420.29 262.43 423.19 258.44 422.9Z" fill="#263238" stroke="#263238" stroke-linecap="round" stroke-linejoin="round"/>
<path d="M255.49 401C255.49 401 248.75 401.34 248.14 402.14C247.53 402.94 245.26 407.06 242.32 409.08C239.38 411.1 236.68 411 235.81 412.71C234.94 414.42 237.62 414.8 240.81 415.59C244 416.38 246.02 415.69 248.93 414.13C251.84 412.57 254.33 413.03 256.93 412.13C259.53 411.23 256.63 404.74 256.68 404.13C256.73 403.52 257.31 403.13 256.93 401.92C256.915 401.756 256.863 401.597 256.777 401.456C256.692 401.315 256.575 401.195 256.436 401.107C256.297 401.018 256.139 400.962 255.975 400.943C255.811 400.925 255.645 400.944 255.49 401Z" fill="#FF7400" stroke="#263238" stroke-linecap="round" stroke-linejoin="round"/>
<path d="M256.92 412.12C257.98 411.74 258.11 410.44 257.92 408.99C256.74 410.19 254.11 410.45 251.75 411.46C248.96 412.66 246.88 414.28 242.69 414.25C240.316 414.206 237.972 413.714 235.78 412.8C235.03 414.44 237.66 414.8 240.78 415.61C243.9 416.42 245.99 415.71 248.9 414.15C251.81 412.59 254.34 413.05 256.92 412.12Z" fill="#263238" stroke="#263238" stroke-linecap="round" stroke-linejoin="round"/>
<path d="M246.64 404.75C246.64 404.75 245.92 401.9 245.44 400.75C244.96 399.6 249.14 398.6 249.7 399.94C250.26 401.28 248.64 405.46 248.64 405.46L246.64 404.75Z" fill="white" stroke="#263238" stroke-linecap="round" stroke-linejoin="round"/>
<path d="M248.64 405.46C248.64 405.46 246.8 408.96 244.64 409.92C242.48 410.88 241.5 409.5 241.5 409.5C243.561 408.447 245.245 406.78 246.32 404.73L248.64 405.46Z" fill="white" stroke="#263238" stroke-linecap="round" stroke-linejoin="round"/>
<path d="M275.5 338.15C275.5 338.15 268.5 337.52 262.5 336.85C256.5 336.18 253.98 335.85 253.98 335.85C253.98 335.85 255.98 348.53 255.98 349.35C255.98 350.17 251.84 362.3 251.84 362.3L256.34 376.51C256.34 376.51 275.92 375.94 283.12 375.64C290.32 375.34 302 373 302 373C302 373 295.24 363.91 293.77 361.57C293.029 360.359 292.207 359.2 291.31 358.1L301.58 347C301.58 347 300.17 337.25 299.58 335.79C298.99 334.33 298.79 333.73 298.79 333.73C298.79 333.73 279.59 338.57 275.5 338.15Z" fill="#FF7400"/>
<mask id="mask0_33_6079" style="mask-type:luminance" maskUnits="userSpaceOnUse" x="251" y="333" width="51" height="44">
<path d="M275.5 338.15C275.5 338.15 268.5 337.52 262.5 336.85C256.5 336.18 253.98 335.85 253.98 335.85C253.98 335.85 255.98 348.53 255.98 349.35C255.98 350.17 251.84 362.3 251.84 362.3L256.34 376.51C256.34 376.51 275.92 375.94 283.12 375.64C290.32 375.34 302 373 302 373C302 373 295.24 363.91 293.77 361.57C293.029 360.359 292.207 359.2 291.31 358.1L301.58 347C301.58 347 300.17 337.25 299.58 335.79C298.99 334.33 298.79 333.73 298.79 333.73C298.79 333.73 279.59 338.57 275.5 338.15Z" fill="white"/>
</mask>
<g mask="url(#mask0_33_6079)">
<path d="M288.08 345.7H301.39C301.3 345.13 301.19 344.41 301.07 343.62H289.76C292.25 340.41 295.11 336.39 296.6 334.26L293.52 334.99C290.52 339.28 286.11 345.19 284.59 346.38C282.83 347.77 271.77 353.3 265.51 356.38C266.93 352.75 268.15 349.16 267.91 348.07C267.424 346.729 266.839 345.425 266.16 344.17L272.95 337.91L270.15 337.65L265.15 342.24C264.15 340.38 263.15 338.41 262.26 336.83L259.72 336.54C262.38 341.41 265.64 347.54 265.84 348.48C265.92 349.55 263.49 355.98 261.19 361.32C261.08 361.546 261.058 361.805 261.131 362.046C261.203 362.287 261.363 362.492 261.58 362.62L265.78 365.28L258.07 368.28L252.56 364.6L253.56 367.78L255.69 369.21L254.19 369.79L254.83 371.79L257.83 370.62L264.3 374.93C264.485 375.062 264.71 375.128 264.937 375.115C265.165 375.102 265.381 375.012 265.55 374.86L272.19 369.24C275.93 371.54 279.95 373.95 283.02 375.64H283.12C284.9 375.56 286.96 375.36 289.04 375.11L284.1 370.05C286.432 371.072 288.966 371.551 291.51 371.45C294.394 371.423 297.265 371.05 300.06 370.34C299.64 369.78 299.19 369.16 298.72 368.51C293.15 369.76 287.64 369.66 284.82 368.08C284.369 367.868 283.97 367.559 283.652 367.175C283.334 366.792 283.105 366.343 282.98 365.86C282.934 365.676 282.935 365.484 282.982 365.301C283.029 365.118 283.121 364.949 283.25 364.81C284.69 363.12 290.18 362.55 294.43 362.53C294.17 362.15 293.95 361.83 293.8 361.58C293.54 361.16 293.3 360.8 293.07 360.46C289.25 360.57 283.63 361.14 281.66 363.46C281.325 363.842 281.085 364.296 280.958 364.788C280.831 365.28 280.821 365.794 280.93 366.29C280.992 366.556 281.076 366.817 281.18 367.07L274.18 359.87L274.65 354.15L275.98 353.48L291.51 358L293.09 356.28L278.66 352.13C281.149 350.921 283.56 349.558 285.88 348.05C286.688 347.34 287.425 346.553 288.08 345.7ZM264.81 372.79L260.21 369.72L268 366.67L270.33 368.12L264.81 372.79ZM285.81 374.79C283.92 373.79 281.23 372.27 278.3 370.52L280.8 369.67L285.81 374.79ZM279.17 368L275.96 369.1C271.32 366.28 266.48 363.24 263.47 361.31C263.75 360.67 264.04 359.98 264.34 359.26C265.34 358.79 268.64 357.16 272.43 355.26L272 360.2C271.99 360.349 272.011 360.498 272.063 360.637C272.115 360.777 272.195 360.904 272.3 361.01L279.17 368Z" fill="white"/>
<path opacity="0.26" d="M301.58 347L256 349.38C255.94 350.2 251.86 362.33 251.86 362.33L291.36 358.14L301.58 347Z" fill="black"/>
<path d="M277.3 340.39L266.52 341.79" stroke="#263238" stroke-width="0.5" stroke-linecap="round" stroke-linejoin="round"/>
<path d="M277.5 342.39L269.92 345.18" stroke="#263238" stroke-width="0.5" stroke-linecap="round" stroke-linejoin="round"/>
<path d="M283.69 341.99L292.08 343.59" stroke="#263238" stroke-width="0.5" stroke-linecap="round" stroke-linejoin="round"/>
<path d="M284.49 339.99H290.68" stroke="#263238" stroke-width="0.5" stroke-linecap="round" stroke-linejoin="round"/>
</g>
<path d="M275.5 338.15C275.5 338.15 268.5 337.52 262.5 336.85C256.5 336.18 253.98 335.85 253.98 335.85C253.98 335.85 255.98 348.53 255.98 349.35C255.98 350.17 251.84 362.3 251.84 362.3L256.34 376.51C256.34 376.51 275.92 375.94 283.12 375.64C290.32 375.34 302 373 302 373C302 373 295.24 363.91 293.77 361.57C293.029 360.359 292.207 359.2 291.31 358.1L301.58 347C301.58 347 300.17 337.25 299.58 335.79C298.99 334.33 298.79 333.73 298.79 333.73C298.79 333.73 279.59 338.57 275.5 338.15Z" stroke="#263238" stroke-linecap="round" stroke-linejoin="round"/>
<path d="M286.49 296.79C286.49 293.66 285.7 290.13 286.01 285.79C286.32 281.45 286.33 270.3 284.25 267.02C282.17 263.74 275.7 260.49 275.7 260.49C273.383 262.039 271.725 264.396 271.05 267.1C269.91 271.65 271.22 277.53 271.22 277.53C271.22 277.53 275.89 292.81 275.99 293.16C276.217 296.473 276.217 299.797 275.99 303.11C275.742 306.967 276.165 310.838 277.24 314.55C278.14 319.746 278.609 325.007 278.64 330.28C278.576 330.969 278.378 331.639 278.055 332.252C277.733 332.865 277.292 333.408 276.76 333.85C275.88 334.85 274.59 336.7 275.16 338.36H276.9C276.9 338.36 277.53 340.73 277.61 341.36C277.69 341.99 277.46 344.94 278.61 345.02C279.76 345.1 280.71 343.09 280.71 343.09C280.71 343.09 283.71 342.96 284.45 341.09C285.19 339.22 284.6 334.27 284.6 334.27C284.6 334.27 286.21 321.65 287.15 313.5C288.09 305.35 286.49 299.91 286.49 296.79Z" fill="white" stroke="#263238" stroke-linecap="round" stroke-linejoin="round"/>
<path d="M275.7 260.46C273.383 262.009 271.725 264.366 271.05 267.07C269.91 271.62 271.22 277.5 271.22 277.5C271.22 277.5 273 283.32 274.38 287.85C278.176 288.889 282.192 288.802 285.94 287.6C285.94 287 285.94 286.39 286.01 285.76C286.33 281.38 286.33 270.27 284.25 266.99C282.17 263.71 275.7 260.46 275.7 260.46Z" fill="white" stroke="#263238" stroke-linecap="round" stroke-linejoin="round"/>
<path d="M275.88 269.25C272.64 272.71 271.99 279.84 271.99 279.84C271.99 279.84 271.13 272.28 274.37 266.84" stroke="#263238" stroke-width="0.5" stroke-linecap="round" stroke-linejoin="round"/>
</svg>
