<svg width="500" height="500" viewBox="0 0 500 500" fill="none" xmlns="http://www.w3.org/2000/svg">
<path d="M369.94 121.43C368.51 121.05 367.06 120.68 365.62 120.35C346.32 115.83 326.42 115.24 306.69 115.61C288.63 115.94 269.46 119.91 251.69 115.46C239.5 112.46 228.69 105.26 219.16 97.07C208 87.46 198 76.14 185.1 69C152.93 51.1 120.69 62.22 96.69 84.47L96.59 84.57C95.06 85.98 93.59 87.45 92.12 88.94C92.0788 88.9576 92.0388 88.9777 92 89C78.2542 103.235 67.9359 120.417 61.83 139.24C59.1016 147.948 56.8911 156.81 55.21 165.78C55.1994 165.819 55.1994 165.861 55.21 165.9C54.86 167.72 54.53 169.54 54.21 171.37C54.2148 171.41 54.2148 171.45 54.21 171.49C41 253.1 72.31 337.45 149.13 377.41C185.94 396.56 229.41 413.09 271.86 409.97C298.98 407.97 323.92 395.27 345.33 379.12C391.56 344.24 427.71 292.04 438.33 234.58C448 181.71 422.75 135.68 369.94 121.43Z" fill="#FF7400"/>
<path opacity="0.5" d="M369.94 121.43C368.51 121.05 367.06 120.68 365.62 120.35C346.32 115.83 326.42 115.24 306.69 115.61C288.63 115.94 269.46 119.91 251.69 115.46C239.5 112.46 228.69 105.26 219.16 97.07C208 87.46 198 76.14 185.1 69C152.93 51.1 120.69 62.22 96.69 84.47L96.59 84.57C95.06 85.98 93.59 87.45 92.12 88.94C92.0788 88.9576 92.0388 88.9777 92 89C78.2542 103.235 67.9359 120.417 61.83 139.24C59.1016 147.948 56.8911 156.81 55.21 165.78C55.1994 165.819 55.1994 165.861 55.21 165.9C54.86 167.72 54.53 169.54 54.21 171.37C54.2148 171.41 54.2148 171.45 54.21 171.49C41 253.1 72.31 337.45 149.13 377.41C185.94 396.56 229.41 413.09 271.86 409.97C298.98 407.97 323.92 395.27 345.33 379.12C391.56 344.24 427.71 292.04 438.33 234.58C448 181.71 422.75 135.68 369.94 121.43Z" fill="white"/>
<path d="M447.27 409.78H467.5" stroke="#263238" stroke-width="0.953494" stroke-linecap="round" stroke-linejoin="round"/>
<path d="M447.27 409.78H467.5" stroke="black" stroke-opacity="0.2" stroke-width="0.953494" stroke-linecap="round" stroke-linejoin="round"/>
<path d="M287.71 409.78H310.16" stroke="#263238" stroke-width="0.953494" stroke-linecap="round" stroke-linejoin="round"/>
<path d="M287.71 409.78H310.16" stroke="black" stroke-opacity="0.2" stroke-width="0.953494" stroke-linecap="round" stroke-linejoin="round"/>
<path d="M111.38 409.78H186.75" stroke="#263238" stroke-width="0.953494" stroke-linecap="round" stroke-linejoin="round"/>
<path d="M111.38 409.78H186.75" stroke="black" stroke-opacity="0.2" stroke-width="0.953494" stroke-linecap="round" stroke-linejoin="round"/>
<path d="M82.12 409.78H99.18" stroke="#263238" stroke-width="0.953494" stroke-linecap="round" stroke-linejoin="round"/>
<path d="M82.12 409.78H99.18" stroke="black" stroke-opacity="0.2" stroke-width="0.953494" stroke-linecap="round" stroke-linejoin="round"/>
<path d="M159.36 179.26C159.36 179.26 160.61 187.4 153.71 190.85C153.71 190.85 162.04 192.63 162.81 200.68C162.81 200.68 162.97 189.68 167.75 188.35C167.75 188.35 161.28 188.25 159.36 179.26Z" fill="white"/>
<path d="M258.47 180.28C258.47 180.28 258.08 185.28 253.47 186.35C253.47 186.35 258.15 188.57 257.47 193.44C257.47 193.44 259.1 186.95 262.12 186.83C262.17 186.83 258.35 185.86 258.47 180.28Z" fill="white"/>
<path d="M264 163.28C264 163.28 263.6 168.28 259 169.35C259 169.35 263.67 171.57 263 176.44C263 176.44 264.63 169.95 267.65 169.83C267.66 169.83 263.84 168.86 264 163.28Z" fill="white"/>
<path d="M147.18 163.64C147.18 163.64 146.83 171.08 142.25 173.37C144.232 173.967 145.994 175.132 147.32 176.721C148.646 178.311 149.477 180.254 149.71 182.31C149.71 182.31 148.71 173.98 153.87 172.22C152.214 171.341 150.763 170.122 149.61 168.644C148.457 167.165 147.629 165.46 147.18 163.64Z" fill="white"/>
<path d="M376.88 432.18C413.204 432.18 442.65 425.585 442.65 417.45C442.65 409.315 413.204 402.72 376.88 402.72C340.556 402.72 311.11 409.315 311.11 417.45C311.11 425.585 340.556 432.18 376.88 432.18Z" fill="white" stroke="#263238" stroke-width="0.953494" stroke-linecap="round" stroke-linejoin="round"/>
<path d="M377.25 426.55C409.084 426.55 434.89 421.258 434.89 414.73C434.89 408.202 409.084 402.91 377.25 402.91C345.416 402.91 319.61 408.202 319.61 414.73C319.61 421.258 345.416 426.55 377.25 426.55Z" stroke="#263238" stroke-width="0.953494" stroke-linecap="round" stroke-linejoin="round"/>
<path d="M338.13 399C335.533 397.748 332.571 397.478 329.79 398.24C328.417 398.642 327.176 399.406 326.199 400.45C325.221 401.495 324.541 402.783 324.23 404.18C324.062 405.523 324.208 406.886 324.656 408.163C325.103 409.44 325.841 410.596 326.81 411.54C328.768 413.412 331.089 414.861 333.63 415.8C340.525 418.694 347.933 420.167 355.41 420.13C361.68 420.13 367.95 419.01 374.19 419.63C380.19 420.21 385.87 422.35 391.79 423.31C397.838 424.289 404.02 424.041 409.97 422.58C416.11 421.07 422.65 417.35 423.72 411.12C424 408.967 423.663 406.779 422.748 404.81C421.832 402.842 420.377 401.173 418.55 400C416.701 398.868 414.628 398.152 412.474 397.904C410.32 397.655 408.138 397.879 406.08 398.56C407.17 398.22 405.57 388.56 405.29 387.26C403.29 378.26 392.66 371.89 383.82 372.37C377.88 372.69 371.95 376.72 370.7 382.53C368.7 381.4 365.83 381.83 363.8 382.95C362.791 383.528 361.942 384.348 361.329 385.336C360.716 386.324 360.359 387.449 360.29 388.61C356.38 385.05 350.29 384.22 345.29 385.84C343.147 386.431 341.277 387.75 340 389.57C339.228 390.933 338.694 392.418 338.42 393.96C338.05 395.6 338.51 397.38 338.13 399Z" fill="#FF7400"/>
<path d="M337.72 399.18C335.123 397.925 332.159 397.659 329.38 398.43C328.007 398.832 326.766 399.596 325.788 400.64C324.811 401.685 324.131 402.973 323.82 404.37C323.654 405.712 323.802 407.074 324.252 408.349C324.701 409.625 325.44 410.778 326.41 411.72C328.362 413.597 330.681 415.05 333.22 415.99C340.116 418.879 347.523 420.351 355 420.32C361.27 420.32 367.55 419.19 373.79 419.81C379.79 420.4 385.46 422.53 391.38 423.5C397.431 424.479 403.617 424.231 409.57 422.77C415.71 421.25 422.25 417.54 423.31 411.3C423.591 409.15 423.256 406.963 422.342 404.996C421.429 403.029 419.975 401.362 418.15 400.19C416.298 399.06 414.224 398.346 412.069 398.095C409.915 397.845 407.731 398.065 405.67 398.74C406.76 398.4 405.17 388.74 404.88 387.44C402.88 378.44 392.25 372.08 383.41 372.55C377.47 372.87 371.54 376.9 370.29 382.71C368.29 381.59 365.42 382.01 363.4 383.14C362.389 383.717 361.538 384.536 360.923 385.524C360.308 386.512 359.95 387.638 359.88 388.8C355.97 385.23 349.93 384.41 344.88 386.02C342.741 386.619 340.872 387.936 339.59 389.75C338.823 391.119 338.289 392.606 338.01 394.15C337.64 395.78 338.1 397.55 337.72 399.18Z" stroke="#263238" stroke-width="0.953494" stroke-linecap="round" stroke-linejoin="round"/>
<path opacity="0.19" d="M338.15 399.24C335.557 397.986 332.596 397.719 329.82 398.49C328.448 398.891 327.208 399.653 326.231 400.696C325.253 401.739 324.572 403.025 324.26 404.42C324.092 405.763 324.238 407.126 324.686 408.403C325.133 409.68 325.871 410.836 326.84 411.78C328.798 413.652 331.119 415.101 333.66 416.04C340.555 418.933 347.962 420.409 355.44 420.38C361.71 420.38 367.98 419.25 374.22 419.87C380.22 420.46 385.9 422.59 391.82 423.56C397.868 424.541 404.052 424.289 410 422.82C416.14 421.31 422.68 417.59 423.75 411.36C424.03 409.208 423.693 407.022 422.778 405.054C421.863 403.087 420.407 401.421 418.58 400.25C416.732 399.116 414.659 398.399 412.505 398.149C410.351 397.898 408.169 398.12 406.11 398.8C407.2 398.46 405.6 388.8 405.31 387.5C403.31 378.5 392.69 372.14 383.84 372.61C377.91 372.93 371.98 376.96 370.73 382.77C368.73 381.65 365.86 382.07 363.83 383.2C362.822 383.777 361.974 384.595 361.361 385.581C360.748 386.568 360.391 387.691 360.32 388.85C356.41 385.29 350.37 384.47 345.32 386.08C343.185 386.682 341.321 387.999 340.04 389.81C339.267 391.176 338.732 392.664 338.46 394.21C338.08 395.84 338.54 397.61 338.15 399.24Z" fill="white"/>
<path opacity="0.2" d="M401.87 381.16C397.2 376.93 389.47 377.56 384.42 381.32C379.37 385.08 376.63 391.27 375.47 397.46C374.441 396.811 373.251 396.462 372.034 396.451C370.817 396.44 369.621 396.769 368.58 397.4C366.513 398.702 364.91 400.623 364 402.89C362.208 401.605 360.062 400.908 357.858 400.894C355.653 400.879 353.498 401.549 351.69 402.81C350.449 403.829 349.261 404.91 348.13 406.05C344.766 409.029 340.378 410.588 335.889 410.402C331.399 410.215 327.156 408.297 324.05 405.05C324.05 405.05 320.48 410.12 334.19 415.87C347.9 421.62 356.81 420.87 364.19 419.95C371.57 419.03 380.87 420.69 387.36 422.95C393.85 425.21 412.76 425.36 419.43 418.13C426.1 410.9 425.36 396.81 406.08 398.13C406.12 398.07 406.34 385.2 401.87 381.16Z" fill="black"/>
<path d="M363.44 369.27C360.73 368.03 359.44 364.68 359.86 361.72C360.28 358.76 361.86 356.14 363.66 353.72C365.46 351.3 367.39 349 368.53 346.24C372.96 335.44 363.42 322.67 367.67 311.8" stroke="#263238" stroke-width="0.953494" stroke-linecap="round" stroke-linejoin="round"/>
<path d="M402.24 368.44C399.69 367.66 398.24 364.96 397.73 362.34C396.22 354.12 401.88 346.34 403.1 338.11C404.1 331.26 402.03 324.36 399.97 317.74" stroke="#263238" stroke-width="0.953494" stroke-linecap="round" stroke-linejoin="round"/>
<path d="M383.41 366C380.7 363.45 381 359 382.41 355.58C383.82 352.16 386.26 349.14 387.26 345.58C387.833 343.46 387.899 341.234 387.452 339.083C387.006 336.933 386.06 334.917 384.69 333.2" stroke="#263238" stroke-width="0.953494" stroke-linecap="round" stroke-linejoin="round"/>
<path d="M359.48 319.84C359.242 323.605 359.478 327.384 360.18 331.09" stroke="#263238" stroke-width="0.953494" stroke-linecap="round" stroke-linejoin="round"/>
<path d="M359.68 342.83C360.03 346.56 357.56 349.88 355.59 353.07C353.282 356.666 351.722 360.689 351 364.9C350.275 369.134 350.957 373.489 352.94 377.3" stroke="#263238" stroke-width="0.953494" stroke-linecap="round" stroke-linejoin="round"/>
<path d="M225.34 192.14L226.34 204.37V204.66C225.5 204.56 224.656 204.51 223.81 204.51C217.17 204.51 206.81 206.69 199.46 208.51C194.3 209.79 190.58 210.89 190.58 210.89L189.47 206.48L185.26 190C181.85 187.07 176.65 175.56 176.65 175.56C172.42 174.91 167.16 171.07 166.02 165.7C164.88 160.33 171.49 160.86 171.49 160.86L175.77 158.23L181.13 143.6C181.13 143.6 176.42 132.71 185.69 128.33C194.96 123.95 226.48 139.21 226.48 139.21L229.89 153.52C234.27 155.3 229.64 166.02 229.64 166.02C229.64 166.02 230.06 166.19 230.54 172.52C231.02 178.85 225.34 192.14 225.34 192.14Z" fill="white"/>
<path d="M214.81 158.15C216.21 163.47 221.14 167.26 220.96 168.63C220.73 170.39 218.56 172.77 216.59 172.8" stroke="#263238" stroke-width="0.953494" stroke-linecap="round" stroke-linejoin="round"/>
<path d="M224.52 149.59C224.52 149.59 220.19 146.06 216.84 150.59" stroke="#263238" stroke-width="1.90699" stroke-linecap="round" stroke-linejoin="round"/>
<path d="M199.69 176.47C199.69 176.47 201.89 182.21 210.69 182.02" stroke="#263238" stroke-width="0.953494" stroke-linecap="round" stroke-linejoin="round"/>
<path d="M205.32 154.1C202.16 152.15 197.78 152.32 195.46 156.63" stroke="#263238" stroke-width="1.90699" stroke-linecap="round" stroke-linejoin="round"/>
<path d="M204.85 162.48C205.14 164.04 204.71 165.48 203.85 165.59C202.99 165.7 202.09 164.59 201.79 163.06C201.49 161.53 201.94 160.11 202.79 159.96C203.64 159.81 204.55 160.93 204.85 162.48Z" fill="#263238"/>
<path d="M222.88 159C223.17 160.56 222.74 162 221.88 162.11C221.02 162.22 220.12 161.11 219.82 159.58C219.52 158.05 219.97 156.63 220.82 156.47C221.67 156.31 222.58 157.42 222.88 159Z" fill="#263238"/>
<path d="M176.24 164.7C176.24 164.7 168.92 158.34 166.6 162.7C164.28 167.06 171.81 177.18 178.88 174.09" stroke="#263238" stroke-width="0.953494" stroke-linecap="round" stroke-linejoin="round"/>
<path d="M225.47 140.9C225.47 140.9 226.03 159.23 228.06 163.31C230.09 167.39 231.83 169.42 229.69 180.06C227.55 190.7 219.39 203.13 210.69 203.96C201.99 204.79 182 191.53 176.34 175" stroke="#263238" stroke-width="0.953494" stroke-linecap="round" stroke-linejoin="round"/>
<path d="M176.44 165.45C176.44 165.45 181.75 162.7 180.79 157.94C179.83 153.18 180.5 152.59 184.31 150.14C188.12 147.69 185.76 142.63 182.11 137.65C178.46 132.67 185.4 126.71 191.05 129.21C196.7 131.71 228.9 144.38 237.55 140.62C246.2 136.86 243.72 124.84 232.07 118.12C232.07 118.12 225.78 110.61 227.47 103.7C229.16 96.79 188.82 75.92 169.91 118.42C169.91 118.42 160.91 121.93 159.06 134.01C157.22 145.9 170.23 161.28 170.23 161.28C170.23 161.28 174.83 163.65 176.44 165.45Z" fill="#263238"/>
<path d="M181.88 127.05C184.88 123.05 190.34 121.62 195.25 122.32C200.16 123.02 204.62 125.53 208.81 128.18C213 130.83 217.12 133.73 221.81 135.37C224.445 136.43 227.339 136.664 230.11 136.04C231.191 135.753 232.2 135.243 233.072 134.542C233.943 133.841 234.658 132.964 235.17 131.97" stroke="white" stroke-width="0.953494" stroke-linecap="round" stroke-linejoin="round"/>
<path d="M173.49 123.82C169.89 124.06 166.75 126.76 165.35 130.09C164.073 133.494 163.985 137.23 165.1 140.69C165.837 143.128 166.843 145.475 168.1 147.69" stroke="white" stroke-width="0.953494" stroke-linecap="round" stroke-linejoin="round"/>
<path d="M226.05 190.5C225.524 192.552 225.354 194.68 225.55 196.79C225.661 199.269 225.938 201.738 226.38 204.18" stroke="#263238" stroke-width="0.953494" stroke-linecap="round" stroke-linejoin="round"/>
<path d="M185.22 189.28C186.95 195.4 188.87 202.77 190.64 210.97" stroke="#263238" stroke-width="0.953494" stroke-linecap="round" stroke-linejoin="round"/>
<path d="M226.59 156.76C226.59 156.76 228.23 152.3 231.33 154.28C234.43 156.26 229.49 166.28 229.49 166.28" stroke="#263238" stroke-width="0.953494" stroke-linecap="round" stroke-linejoin="round"/>
<path d="M231.12 137.82C231.12 137.82 232.67 150.43 228.91 154.41L226.03 155.3L224.51 138.55L231.12 137.82Z" fill="#263238"/>
<path d="M157.18 122C157.18 122 147.04 121.29 137.24 109.63C127.44 97.97 135.36 89.78 140.24 85.4C145.12 81.02 157.16 69.01 162.19 63.4C167.22 57.79 177.3 50.69 188.69 52.55C200.08 54.41 211.17 61.31 222 64.49C232.83 67.67 243.62 79.49 245.21 87.2C246.8 94.91 243.38 107 239.41 109.91L232.58 109.7L235.58 120.05C235.58 120.05 195 104 158.75 134.13L161.82 123.35L157.18 122Z" fill="white"/>
<path d="M175.83 108.23C175.83 112.84 175.9 117.45 176.19 122.04L159.34 134.56L163.46 114.26L175.83 108.23Z" fill="#FF7400"/>
<path opacity="0.6" d="M175.83 108.23C175.83 112.84 176.04 117.96 176.32 122.55L159.32 134.55L163.44 114.25L175.83 108.23Z" fill="white"/>
<path d="M177.83 52.87C178.644 52.6182 179.516 52.617 180.331 52.8667C181.146 53.1164 181.867 53.6053 182.4 54.27C183.441 55.6212 183.972 57.296 183.9 59C183.85 64.55 179.72 69.25 175.19 72.47C170.66 75.69 165.48 78.03 161.5 81.91C159.231 84.1218 157.428 86.7654 156.196 89.685C154.965 92.6047 154.331 95.7413 154.331 98.91C154.331 102.079 154.965 105.215 156.196 108.135C157.428 111.055 159.231 113.698 161.5 115.91C161.95 116.34 162.41 116.75 162.85 117.2L161.46 122.88C161.46 122.88 143.46 120.53 137.28 109.63C131.1 98.73 133.05 93.63 138.44 87.23C143.83 80.83 150.83 77.35 157.69 67.58C164.55 57.81 177.83 52.87 177.83 52.87Z" fill="#FF7400"/>
<path opacity="0.6" d="M177.83 52.87C178.644 52.6182 179.516 52.617 180.331 52.8667C181.146 53.1164 181.867 53.6053 182.4 54.27C183.441 55.6212 183.972 57.296 183.9 59C183.85 64.55 179.72 69.25 175.19 72.47C170.66 75.69 165.48 78.03 161.5 81.91C159.231 84.1218 157.428 86.7654 156.196 89.685C154.965 92.6047 154.331 95.7413 154.331 98.91C154.331 102.079 154.965 105.215 156.196 108.135C157.428 111.055 159.231 113.698 161.5 115.91C161.95 116.34 162.41 116.75 162.85 117.2L161.46 122.88C161.46 122.88 143.46 120.53 137.28 109.63C131.1 98.73 133.05 93.63 138.44 87.23C143.83 80.83 150.83 77.35 157.69 67.58C164.55 57.81 177.83 52.87 177.83 52.87Z" fill="white"/>
<path d="M159.34 134.56C159.34 134.56 187.24 105.64 235.54 120.56L229.6 104.17C229.6 104.17 196 95 163.46 114.26L159.34 134.56Z" stroke="#263238" stroke-width="0.953494" stroke-linecap="round" stroke-linejoin="round"/>
<path d="M232.81 113C236.24 112.45 242.93 108.64 244.45 105.51C245.841 102.301 246.461 98.8114 246.26 95.32C246.29 90.3467 245.135 85.4378 242.89 81C237.72 71.43 226.81 66.74 216.7 62.73L197.78 55.22C193.95 53.7 190.04 52.16 185.93 51.89C177.78 51.36 170.08 55.89 164.12 61.5C158.16 67.11 153.37 73.85 147.32 79.35C144.37 82.03 141.13 84.35 138.4 87.35C135.67 90.35 133.4 93.81 133.01 97.78C132.43 103.49 135.79 108.92 139.92 112.91C144.05 116.9 148.08 121.51 161.34 123.08" stroke="#263238" stroke-width="0.953494" stroke-linecap="round" stroke-linejoin="round"/>
<path d="M212.9 102C215.653 100.372 218.064 98.2258 220 95.6801" stroke="#263238" stroke-width="0.953494" stroke-linecap="round" stroke-linejoin="round"/>
<path d="M172.74 109.3C170.342 108.468 168.153 107.129 166.32 105.374C164.487 103.619 163.054 101.489 162.12 99.13" stroke="#263238" stroke-width="0.953494" stroke-linecap="round" stroke-linejoin="round"/>
<path d="M176.25 60.73C171.77 60.41 167.85 63.73 164.98 67.15C162.11 70.57 159.55 74.59 155.54 76.62" stroke="#263238" stroke-width="0.953494" stroke-linecap="round" stroke-linejoin="round"/>
<path d="M337.84 257.6L296.56 289.82C296.56 289.82 280.71 238.18 279.78 231.75C277.24 225.56 268.03 216.91 268.03 216.91C268.03 216.91 234.18 215.24 231.74 213.84C229.3 212.44 229.03 204.35 229.03 204.35C228.15 204.35 227.23 204.35 226.3 204.35C225.37 204.35 224.64 204.43 223.79 204.49C215.678 205.257 207.648 206.726 199.79 208.88C193.36 210.56 188.86 212.06 188.86 212.06L191.36 222.92L189.55 225.64C183.62 230.07 151.13 240.84 142.72 244.64C139.038 247.552 135.507 250.649 132.14 253.92C132.14 253.92 103 311.1 98.48 318.08C95.7296 322.455 94.2384 327.503 94.17 332.67C97.52 339.82 102.44 340.29 107.51 342.04C108.362 342.326 109.196 342.66 110.01 343.04C115.94 345.82 168.23 341.68 168.23 341.68C168.23 341.68 164.47 360.3 181.61 353.22C209.04 341.88 274.61 349.73 274.61 349.73L273.04 307.73L287.9 324.73C287.9 324.73 294.85 328.82 303.21 323.6C315.92 315.39 352.77 270.04 352.77 270.04C349.21 261.63 337.84 257.6 337.84 257.6ZM172.24 323.08L169.24 320.08C164.06 316.94 144.74 313.3 144.74 313.3L158.34 293.65C158.34 293.65 172.69 315.85 173.34 317.73C173.99 319.61 172.24 323.08 172.24 323.08Z" fill="white"/>
<path d="M200.85 367.89L203.93 434.26C203.93 434.26 193.85 431.74 191.05 427.54C188.25 423.34 182 360.43 182 360.43C182 360.43 188 365.93 200.85 367.89Z" fill="#FF7400"/>
<path opacity="0.56" d="M200.85 367.89L203.93 434.26C203.93 434.26 193.85 431.74 191.05 427.54C188.25 423.34 182 360.43 182 360.43C182 360.43 188 365.93 200.85 367.89Z" fill="white"/>
<path d="M173.76 318.83L158 294.29L171.19 276.84C171.19 276.84 172.19 286.71 178.04 291.29C187.41 298.6 185.35 321.07 185.35 321.07L173.76 318.83Z" fill="#FF7400"/>
<path opacity="0.6" d="M173.76 318.83L158 294.29L171.19 276.84C171.19 276.84 172.19 286.71 178.04 291.29C187.41 298.6 185.35 321.07 185.35 321.07L173.76 318.83Z" fill="white"/>
<path d="M269.6 254.9C269.6 254.9 281.04 305.79 287.67 313.9C294.3 322.01 294.44 290.39 296.78 289.95C299.12 289.51 303.03 308.48 301.52 314.21C301.52 314.21 302.42 317.21 305.74 314.21C309.06 311.21 350.31 273 350.31 273C350.31 273 307.92 326.63 295.8 326.3C285.55 327.72 274.48 309.4 274.48 309.4L269.6 254.9Z" fill="#FF7400"/>
<path opacity="0.6" d="M269.6 254.9C269.6 254.9 281.04 305.79 287.67 313.9C294.3 322.01 294.44 290.39 296.78 289.95C299.12 289.51 303.03 308.48 301.52 314.21C301.52 314.21 302.42 317.21 305.74 314.21C309.06 311.21 350.31 273 350.31 273C350.31 273 307.92 326.63 295.8 326.3C285.55 327.72 274.48 309.4 274.48 309.4L269.6 254.9Z" fill="white"/>
<path d="M146.79 310.15L144.25 313.55C144.25 313.55 123.92 311 107.51 342C102.44 340.25 97.51 339.78 94.17 332.63C94.2384 327.463 95.7296 322.415 98.48 318.04C103 311.04 132.48 253.23 132.48 253.23C135.502 249.921 138.944 247.023 142.72 244.61C163.72 233.51 183.62 230.05 189.55 225.61L191.36 222.89L188.86 212.03C188.86 212.03 193.36 210.53 199.79 208.85L203.11 223.02C203.657 225.364 203.34 227.826 202.217 229.955C201.095 232.084 199.243 233.737 197 234.61L149 253.12C145.902 254.309 143.367 256.623 141.9 259.6L115.62 312.68C116.15 312.21 126.6 301.58 146.79 310.15Z" fill="#FF7400"/>
<path opacity="0.6" d="M146.79 310.15L144.25 313.55C144.25 313.55 123.92 311 107.51 342C102.44 340.25 97.51 339.78 94.17 332.63C94.2384 327.463 95.7296 322.415 98.48 318.04C103 311.04 132.48 253.23 132.48 253.23C132.48 253.23 138.78 247.52 142.72 244.61C162.63 234.35 183.62 230.05 189.55 225.61L191.36 222.89L188.86 212.03C188.86 212.03 193.36 210.53 199.79 208.85L203.11 223.02C203.657 225.364 203.34 227.826 202.217 229.955C201.095 232.084 199.243 233.737 197 234.61L149 253.12C145.902 254.309 143.367 256.623 141.9 259.6L115.62 312.68C116.15 312.21 126.6 301.58 146.79 310.15Z" fill="white"/>
<path d="M342 255.05L354.66 237.16C354.66 237.16 363.6 231.16 366.84 229.6C370.08 228.04 370.55 224.97 372.09 226.05C373.63 227.13 372.24 233.46 369 235.46C365.76 237.46 362.06 239.46 362.52 240.86C362.98 242.26 381.81 240.55 381.81 240.55C381.81 240.55 405.81 240.23 406.16 242.09C406.51 243.95 391.22 246.72 391.22 246.72C391.22 246.72 407.65 246.54 407.69 247.48C407.73 248.42 398.32 251.66 398.32 251.66C398.32 251.66 404.97 252.01 404.65 253.45C404.33 254.89 397.55 256.75 397.55 256.75C397.55 256.75 383.66 265.24 380.55 266.63C377.44 268.02 356.33 265.39 356.33 265.39L352.72 270.06C352.72 270.06 346.61 261.38 340.13 257.68L342 255.05Z" fill="white"/>
<path d="M295.4 310.08C296.282 303.467 296.709 296.801 296.68 290.13" stroke="#263238" stroke-width="0.953494" stroke-linecap="round" stroke-linejoin="round"/>
<path d="M226.36 204.45C227.36 204.45 228.43 204.39 229.49 204.38L230.49 210.83C230.65 211.865 231.173 212.81 231.967 213.494C232.761 214.177 233.772 214.556 234.82 214.56L267.37 216.77C269.76 216.77 278.83 229.18 280.37 233.86L296.78 290L337.85 257.39C337.85 257.39 345.85 258.48 352.78 270.09C352.78 270.09 326.34 305.28 302.34 324.09C298.83 326.83 290.97 327.44 287.84 324.28C282.56 318.96 277.78 314.2 274.09 309.28" stroke="#263238" stroke-width="0.953494" stroke-linecap="round" stroke-linejoin="round"/>
<path d="M164.84 292.94L173.07 287.63" stroke="#263238" stroke-width="0.953494" stroke-linecap="round" stroke-linejoin="round"/>
<path d="M167.89 294.73C170.068 294.027 172.354 293.722 174.64 293.83" stroke="#263238" stroke-width="0.953494" stroke-linecap="round" stroke-linejoin="round"/>
<path d="M158.36 294.14C163.361 301.113 167.994 308.343 172.24 315.8C173.178 317.471 173.464 319.431 173.04 321.3L153.04 409.68" stroke="#263238" stroke-width="0.953494" stroke-linecap="round" stroke-linejoin="round"/>
<path d="M267.39 241.09L274.28 307.65C274.74 322.59 275.85 332.05 276.51 350.77" stroke="#263238" stroke-width="0.953494" stroke-linecap="round" stroke-linejoin="round"/>
<path d="M190.53 225.13L199.79 284.47L212.19 280.33C220.726 277.481 229.709 276.21 238.7 276.58L251.36 277.11L236.1 214H241.89L274.48 309.4L276.48 351.71C276.48 351.71 215.83 338.4 181.85 356.35L184.51 382.35C184.51 382.35 186.13 389.47 187.84 410.2L160.84 409.71H153.04L172.74 323.24C172.74 323.24 189.74 324.49 189.25 310.81C188.76 297.13 184.06 228.39 184.06 228.39L190.53 225.13Z" fill="#263238"/>
<path d="M215.21 224.57C215.21 225.128 215.045 225.673 214.735 226.137C214.425 226.6 213.985 226.962 213.469 227.175C212.954 227.389 212.387 227.445 211.84 227.336C211.293 227.227 210.79 226.958 210.396 226.564C210.002 226.17 209.733 225.667 209.624 225.12C209.515 224.573 209.571 224.006 209.785 223.491C209.998 222.976 210.36 222.535 210.823 222.225C211.287 221.915 211.832 221.75 212.39 221.75C213.138 221.75 213.855 222.047 214.384 222.576C214.913 223.105 215.21 223.822 215.21 224.57Z" fill="#263238"/>
<path d="M215.61 241.09C217.167 241.09 218.43 239.827 218.43 238.27C218.43 236.713 217.167 235.45 215.61 235.45C214.053 235.45 212.79 236.713 212.79 238.27C212.79 239.827 214.053 241.09 215.61 241.09Z" fill="#263238"/>
<path d="M233.24 313.61C243.433 311.87 253.687 310.517 264 309.55" stroke="white" stroke-width="0.953494" stroke-linecap="round" stroke-linejoin="round"/>
<path d="M215.62 317C219.807 316.113 224.01 315.29 228.23 314.53" stroke="white" stroke-width="0.953494" stroke-linecap="round" stroke-linejoin="round"/>
<path d="M264 313.21C255.707 316.543 247.35 319.707 238.93 322.7" stroke="white" stroke-width="0.953494" stroke-linecap="round" stroke-linejoin="round"/>
<path d="M262.06 242.41C262.922 247.825 264.168 253.172 265.79 258.41" stroke="#263238" stroke-width="0.953494" stroke-linecap="round" stroke-linejoin="round"/>
<path d="M382 248.2C382 248.2 406 244.2 406.17 242.09C406.34 239.98 388.89 241.09 384.78 240.73C380.67 240.37 363.45 242.58 362.88 241.5C362.31 240.42 363.71 240.17 367.5 237.01C371.29 233.85 374.08 228.27 373.06 226.5C372.04 224.73 368.66 228.66 366.06 230.1C363.97 231.27 356.06 235.75 354.63 237.71C353.2 239.67 343.69 252.79 340.09 257.79" stroke="#263238" stroke-width="0.953494" stroke-linecap="round" stroke-linejoin="round"/>
<path d="M382.55 248C382.55 248 407.83 245.68 407.73 247.52C407.57 250.59 390.62 253.01 383.68 253.52" stroke="#263238" stroke-width="0.953494" stroke-linecap="round" stroke-linejoin="round"/>
<path d="M383.52 253.61C383.52 253.61 405.01 250.61 404.69 253.45C404.37 256.29 379.94 260.92 379.94 260.92" stroke="#263238" stroke-width="0.953494" stroke-linecap="round" stroke-linejoin="round"/>
<path d="M351.89 271.2C354.3 267.74 355.89 265.36 355.89 265.36C355.89 265.36 376.59 267.63 379.56 267.06C382.53 266.49 396.5 257.54 396.5 257.54" stroke="#263238" stroke-width="0.953494" stroke-linecap="round" stroke-linejoin="round"/>
<path d="M361 248.08C363.295 248.36 365.475 249.239 367.322 250.63C369.169 252.02 370.617 253.872 371.52 256" stroke="#263238" stroke-width="0.953494" stroke-linecap="round" stroke-linejoin="round"/>
<path d="M300 292.15C302.33 295.72 302.59 300.21 302.78 304.47" stroke="#263238" stroke-width="0.953494" stroke-linecap="round" stroke-linejoin="round"/>
<path d="M182 357.53L189.41 420.78C189.41 420.78 189.06 427.44 194.65 430.78C200.24 434.12 224.74 439.56 238.42 438.71C252.1 437.86 269.42 437 275.74 432.15C282.06 427.3 280.58 414.2 280.58 414.2L285.14 374.6C285.14 374.6 289.29 359.48 284.29 354.94C275.15 346.7 198.12 340.44 182 357.53Z" fill="white"/>
<path d="M182 360.43C184.977 363.01 188.452 364.95 192.21 366.13C198.21 367.93 272.05 365.81 281.21 364.02C290.37 362.23 287.05 354.73 281.95 352.63C276.85 350.53 229.48 343.63 208.56 348.39C190 352.61 178.4 352.93 182 360.43Z" fill="#FF7400"/>
<path opacity="0.6" d="M182 360.43C184.977 363.01 188.452 364.95 192.21 366.13C198.21 367.93 272.05 365.81 281.21 364.02C290.37 362.23 287.05 354.73 281.95 352.63C276.85 350.53 235.07 344.46 209.87 347.91C191.25 352.11 178.4 352.93 182 360.43Z" fill="white"/>
<path d="M287.1 358.61C287.1 360.61 284.97 362.41 281.2 364.02C272.39 367.82 254.64 370.4 234.2 370.4C214.68 370.4 197.62 368.05 188.46 364.54C183.91 362.8 181.3 360.78 181.3 358.61C181.3 352.09 204.99 346.81 234.2 346.81C263.41 346.81 287.1 352.09 287.1 358.61Z" stroke="#263238" stroke-width="0.953494" stroke-linecap="round" stroke-linejoin="round"/>
<path d="M281.2 364C272.39 367.8 254.64 370.38 234.2 370.38C214.68 370.38 197.62 368.03 188.46 364.52C195.31 360.24 213.68 357.16 235.27 357.16C256 357.18 273.75 360 281.2 364Z" fill="#263238"/>
<path d="M181.28 358.61L189.55 423.88C189.734 425.372 190.297 426.792 191.187 428.003C192.076 429.215 193.262 430.178 194.63 430.8C205.04 435.5 233 444.93 272.9 433.88C274.578 433.404 276.076 432.44 277.203 431.109C278.33 429.779 279.036 428.143 279.23 426.41L281.76 404.66L282.01 402.44L284.06 384.88L284.51 381L287.1 358.61" stroke="#263238" stroke-width="0.953494" stroke-linecap="round" stroke-linejoin="round"/>
<path d="M225.07 438.87C223.72 437.147 222.797 435.129 222.375 432.981C221.952 430.833 222.043 428.616 222.64 426.51C222.64 426.51 216.55 429.56 216.37 434.93C216.37 434.93 207.37 432.43 208.48 419.35C208.48 419.35 203.48 427.41 207.95 436.19C212.42 444.97 225.07 438.87 225.07 438.87Z" fill="#263238"/>
<path d="M225.07 438.87C223.72 437.147 222.797 435.129 222.375 432.981C221.952 430.833 222.043 428.616 222.64 426.51C222.64 426.51 216.55 429.56 216.37 434.93C216.37 434.93 207.37 432.43 208.48 419.35C208.48 419.35 203.48 427.41 207.95 436.19C212.42 444.97 225.07 438.87 225.07 438.87Z" fill="black" fill-opacity="0.2"/>
<path d="M248.4 438.91C252.794 434.422 255.67 428.669 256.62 422.46C257.875 426.88 257.802 431.571 256.41 435.95C258.341 435.089 260.038 433.778 261.358 432.127C262.679 430.476 263.584 428.533 264 426.46C264 426.46 265.27 434.46 261.47 438.91C257.67 443.36 248.4 438.91 248.4 438.91Z" fill="#263238"/>
<path d="M248.4 438.91C252.794 434.422 255.67 428.669 256.62 422.46C257.875 426.88 257.802 431.571 256.41 435.95C258.341 435.089 260.038 433.778 261.358 432.127C262.679 430.476 263.584 428.533 264 426.46C264 426.46 265.27 434.46 261.47 438.91C257.67 443.36 248.4 438.91 248.4 438.91Z" fill="black" fill-opacity="0.2"/>
<path d="M302.37 387C299.99 395.32 291.47 404.38 281.76 404.64L282.01 402.42C290.34 401.99 298.11 393.89 300.24 386.42C300.76 384.6 301.63 380.14 298.49 378.12C297.725 377.586 296.855 377.221 295.937 377.048C295.02 376.876 294.077 376.9 293.17 377.12C288.43 378.28 284.9 384.29 284.87 384.35C284.787 384.498 284.671 384.624 284.53 384.717C284.389 384.811 284.228 384.87 284.06 384.89L284.51 381.01C286.15 378.87 289.03 375.86 292.64 375.01C293.84 374.723 295.087 374.69 296.301 374.912C297.515 375.134 298.669 375.607 299.69 376.3C302.78 378.24 303.75 382.17 302.37 387Z" fill="#263238"/>
<path d="M226.22 362.17C231.64 365.24 238.32 365.41 244.38 363.98C246.517 363.565 248.553 362.743 250.38 361.56" stroke="white" stroke-width="0.953494" stroke-linecap="round" stroke-linejoin="round"/>
<path d="M258.29 362.57C256.611 364.27 254.555 365.551 252.29 366.31" stroke="white" stroke-width="0.953494" stroke-linecap="round" stroke-linejoin="round"/>
<path d="M188.49 406.54C168.68 408.89 166.71 386 172 382.39C177.29 378.78 187.81 391.16 187.81 391.16" stroke="white" stroke-width="1.90699" stroke-linecap="round" stroke-linejoin="round"/>
<path d="M240.83 361.55L201.5 290.07C201.5 290.07 197.2 287.48 197.5 292.65C197.8 297.82 234 362 234 362L240.83 361.55Z" fill="white" stroke="#263238" stroke-width="0.953494" stroke-linecap="round" stroke-linejoin="round"/>
<path d="M225.89 377C237.79 377.73 252.89 377.44 265.81 373.45" stroke="#263238" stroke-width="0.953494" stroke-linecap="round" stroke-linejoin="round"/>
<path d="M204.94 374.49C204.94 374.49 208.94 375.3 215.25 376.06" stroke="#263238" stroke-width="0.953494" stroke-linecap="round" stroke-linejoin="round"/>
<path d="M167.58 282.77C159.514 291.866 152.193 301.598 145.69 311.87" stroke="#263238" stroke-width="0.953494" stroke-linecap="round" stroke-linejoin="round"/>
<path d="M141.15 311.48C136.273 310.351 131.18 310.589 126.43 312.17" stroke="#263238" stroke-width="0.953494" stroke-linecap="round" stroke-linejoin="round"/>
<path d="M139.55 251.68C139.55 251.68 157.55 261.99 164.22 277.83" stroke="#263238" stroke-width="0.953494" stroke-linecap="round" stroke-linejoin="round"/>
<path d="M154.45 316.09C154.79 329.01 162.84 342.22 162.84 342.22L192.43 337.7L190.43 331.97C191.43 332.46 193.49 332.29 194.88 332.62C203.59 334.62 217.88 334.25 217.88 334.25C220.013 332.466 221.794 330.299 223.13 327.86C225.54 323.6 223.27 322.44 223.27 322.44C226.76 317.55 224.08 314.02 224.08 314.02C229.24 311.07 227.08 309.46 227.08 309.46C223.76 304.27 204.17 306.51 204.17 306.51L187 321L175.34 319L154.45 316.09Z" fill="white"/>
<path d="M185.41 321.19L188 320.34L204.2 306.51C204.2 306.51 225.36 305.39 226.87 309.19C228.38 312.99 223.98 314.75 220.18 316.27" stroke="#263238" stroke-width="0.953494" stroke-linecap="round" stroke-linejoin="round"/>
<path d="M223.46 314.92C223.46 314.92 228.69 317.2 221.46 323.57" stroke="#263238" stroke-width="0.953494" stroke-linecap="round" stroke-linejoin="round"/>
<path d="M222.77 322.6C225.07 321.3 226.58 327.16 218.52 329.98" stroke="#263238" stroke-width="0.953494" stroke-linecap="round" stroke-linejoin="round"/>
<path d="M223.36 328.24L217.45 334.6C217.45 334.6 204.13 335.76 192.16 331.9L190.85 332.28" stroke="#263238" stroke-width="0.953494" stroke-linecap="round" stroke-linejoin="round"/>
<path d="M122.34 323.15C125.161 320.152 128.561 317.757 132.334 316.108C136.106 314.46 140.173 313.593 144.29 313.56C145.989 313.583 147.675 313.863 149.29 314.39C155.08 316.2 178.87 318.9 186.13 321.45L192.44 337.36C167.53 343.66 134.32 344.17 114.36 343.24C109.357 342.852 104.485 341.45 100.04 339.12C98.7447 338.455 97.5943 337.54 96.6555 336.427C95.7166 335.314 95.0081 334.026 94.5709 332.637C94.1337 331.248 93.9765 329.786 94.1086 328.336C94.2406 326.886 94.6592 325.477 95.3401 324.19L131.17 255.19C132.17 253.32 139.17 246.72 141.1 245.94L159.36 237.13C161.315 236.191 163.317 235.357 165.36 234.63L185.55 227.86C187.08 227.24 191.55 223.7 191.11 222.09L188.64 212C200.717 207.448 213.46 204.911 226.36 204.49" stroke="#263238" stroke-width="0.953494" stroke-linecap="round" stroke-linejoin="round"/>
<path d="M89.28 197.87H67.67V210.91H89.28V197.87Z" stroke="#263238" stroke-width="0.953494" stroke-linecap="round" stroke-linejoin="round"/>
<path d="M89.28 197.87H67.67V210.91H89.28V197.87Z" stroke="black" stroke-opacity="0.2" stroke-width="0.953494" stroke-linecap="round" stroke-linejoin="round"/>
<path d="M98.89 214.68H77.28V227.72H98.89V214.68Z" stroke="#263238" stroke-width="0.953494" stroke-linecap="round" stroke-linejoin="round"/>
<path d="M98.89 214.68H77.28V227.72H98.89V214.68Z" stroke="black" stroke-opacity="0.2" stroke-width="0.953494" stroke-linecap="round" stroke-linejoin="round"/>
<path d="M442.07 193.64H420.46V206.68H442.07V193.64Z" stroke="#263238" stroke-width="0.953494" stroke-linecap="round" stroke-linejoin="round"/>
<path d="M442.07 193.64H420.46V206.68H442.07V193.64Z" stroke="black" stroke-opacity="0.2" stroke-width="0.953494" stroke-linecap="round" stroke-linejoin="round"/>
<path d="M428.6 210.45H406.99V223.49H428.6V210.45Z" stroke="#263238" stroke-width="0.953494" stroke-linecap="round" stroke-linejoin="round"/>
<path d="M428.6 210.45H406.99V223.49H428.6V210.45Z" stroke="black" stroke-opacity="0.2" stroke-width="0.953494" stroke-linecap="round" stroke-linejoin="round"/>
<path d="M124.27 375.62H106.21V380.48H124.27V375.62Z" stroke="#263238" stroke-width="0.953494" stroke-linecap="round" stroke-linejoin="round"/>
<path d="M124.27 375.62H106.21V380.48H124.27V375.62Z" stroke="black" stroke-opacity="0.2" stroke-width="0.953494" stroke-linecap="round" stroke-linejoin="round"/>
<path d="M134.51 359.89H114.26V372.93H134.51V359.89Z" stroke="#263238" stroke-width="0.953494" stroke-linecap="round" stroke-linejoin="round"/>
<path d="M134.51 359.89H114.26V372.93H134.51V359.89Z" stroke="black" stroke-opacity="0.2" stroke-width="0.953494" stroke-linecap="round" stroke-linejoin="round"/>
<path d="M293.25 115.88V61.08H430.69V157.99H410.21" stroke="#263238" stroke-width="0.953494" stroke-linecap="round" stroke-linejoin="round"/>
<path d="M293.25 115.88V61.08H430.69V157.99H410.21" stroke="black" stroke-opacity="0.2" stroke-width="0.953494" stroke-linecap="round" stroke-linejoin="round"/>
<path d="M293.25 135.87V127.64" stroke="#263238" stroke-width="0.953494" stroke-linecap="round" stroke-linejoin="round"/>
<path d="M293.25 135.87V127.64" stroke="black" stroke-opacity="0.2" stroke-width="0.953494" stroke-linecap="round" stroke-linejoin="round"/>
<path d="M311.68 157.99H293.25V141.27" stroke="#263238" stroke-width="0.953494" stroke-linecap="round" stroke-linejoin="round"/>
<path d="M311.68 157.99H293.25V141.27" stroke="black" stroke-opacity="0.2" stroke-width="0.953494" stroke-linecap="round" stroke-linejoin="round"/>
<path d="M330.4 70.88C330.408 71.2613 330.302 71.6364 330.096 71.9574C329.89 72.2783 329.593 72.5306 329.243 72.6821C328.893 72.8336 328.506 72.8774 328.131 72.8079C327.756 72.7383 327.41 72.5587 327.137 72.2919C326.865 72.025 326.678 71.683 326.6 71.3095C326.523 70.936 326.559 70.548 326.703 70.1948C326.847 69.8416 327.093 69.5394 327.409 69.3266C327.726 69.1138 328.099 69.0001 328.48 69C328.982 68.9999 329.465 69.1967 329.824 69.5481C330.183 69.8996 330.39 70.3777 330.4 70.88Z" stroke="#263238" stroke-width="0.953494" stroke-linecap="round" stroke-linejoin="round"/>
<path d="M330.4 70.88C330.408 71.2613 330.302 71.6364 330.096 71.9574C329.89 72.2783 329.593 72.5306 329.243 72.6821C328.893 72.8336 328.506 72.8774 328.131 72.8079C327.756 72.7383 327.41 72.5587 327.137 72.2919C326.865 72.025 326.678 71.683 326.6 71.3095C326.523 70.936 326.559 70.548 326.703 70.1948C326.847 69.8416 327.093 69.5394 327.409 69.3266C327.726 69.1138 328.099 69.0001 328.48 69C328.982 68.9999 329.465 69.1967 329.824 69.5481C330.183 69.8996 330.39 70.3777 330.4 70.88Z" stroke="black" stroke-opacity="0.2" stroke-width="0.953494" stroke-linecap="round" stroke-linejoin="round"/>
<path d="M362 72.95C363.06 72.95 363.92 72.0904 363.92 71.03C363.92 69.9696 363.06 69.11 362 69.11C360.94 69.11 360.08 69.9696 360.08 71.03C360.08 72.0904 360.94 72.95 362 72.95Z" stroke="#263238" stroke-width="0.953494" stroke-linecap="round" stroke-linejoin="round"/>
<path d="M362 72.95C363.06 72.95 363.92 72.0904 363.92 71.03C363.92 69.9696 363.06 69.11 362 69.11C360.94 69.11 360.08 69.9696 360.08 71.03C360.08 72.0904 360.94 72.95 362 72.95Z" stroke="black" stroke-opacity="0.2" stroke-width="0.953494" stroke-linecap="round" stroke-linejoin="round"/>
<path d="M397.78 70.88C397.788 71.2613 397.682 71.6364 397.476 71.9574C397.27 72.2783 396.973 72.5306 396.623 72.6821C396.273 72.8336 395.886 72.8774 395.511 72.8079C395.136 72.7383 394.79 72.5587 394.517 72.2919C394.245 72.025 394.058 71.683 393.98 71.3095C393.903 70.936 393.939 70.548 394.083 70.1948C394.227 69.8416 394.473 69.5394 394.789 69.3266C395.106 69.1138 395.479 69.0001 395.86 69C396.362 68.9999 396.845 69.1967 397.204 69.5481C397.563 69.8996 397.77 70.3777 397.78 70.88Z" stroke="#263238" stroke-width="0.953494" stroke-linecap="round" stroke-linejoin="round"/>
<path d="M397.78 70.88C397.788 71.2613 397.682 71.6364 397.476 71.9574C397.27 72.2783 396.973 72.5306 396.623 72.6821C396.273 72.8336 395.886 72.8774 395.511 72.8079C395.136 72.7383 394.79 72.5587 394.517 72.2919C394.245 72.025 394.058 71.683 393.98 71.3095C393.903 70.936 393.939 70.548 394.083 70.1948C394.227 69.8416 394.473 69.5394 394.789 69.3266C395.106 69.1138 395.479 69.0001 395.86 69C396.362 68.9999 396.845 69.1967 397.204 69.5481C397.563 69.8996 397.77 70.3777 397.78 70.88Z" stroke="black" stroke-opacity="0.2" stroke-width="0.953494" stroke-linecap="round" stroke-linejoin="round"/>
<path d="M334.06 144.44C333.663 144.451 333.268 144.381 332.899 144.234C332.53 144.087 332.195 143.867 331.914 143.586C331.633 143.305 331.413 142.97 331.266 142.601C331.119 142.232 331.049 141.837 331.06 141.44L332 84.14C332.1 82.06 331.39 80.24 329.31 80.24H327.89C325.84 80.24 324.18 81.18 324.23 83.24L325.55 141.52C325.561 141.91 325.493 142.298 325.351 142.662C325.209 143.026 324.996 143.357 324.724 143.637C324.451 143.916 324.126 144.139 323.766 144.29C323.407 144.442 323.02 144.52 322.63 144.52H322.43C321.663 144.523 320.928 144.825 320.382 145.364C319.836 145.902 319.523 146.633 319.51 147.4L319.14 173.95C319.132 174.632 319.26 175.308 319.517 175.939C319.774 176.571 320.154 177.145 320.636 177.627C321.117 178.11 321.69 178.491 322.321 178.749C322.952 179.007 323.628 179.137 324.31 179.13L333.75 179.01C334.428 179.002 335.098 178.86 335.72 178.591C336.342 178.322 336.905 177.931 337.375 177.443C337.845 176.954 338.213 176.377 338.457 175.745C338.702 175.112 338.819 174.438 338.8 173.76L338 147.25C337.976 146.477 337.647 145.745 337.085 145.215C336.523 144.684 335.773 144.398 335 144.42L334.06 144.44Z" stroke="#263238" stroke-width="0.953494" stroke-linecap="round" stroke-linejoin="round"/>
<path d="M334.06 144.44C333.663 144.451 333.268 144.381 332.899 144.234C332.53 144.087 332.195 143.867 331.914 143.586C331.633 143.305 331.413 142.97 331.266 142.601C331.119 142.232 331.049 141.837 331.06 141.44L332 84.14C332.1 82.06 331.39 80.24 329.31 80.24H327.89C325.84 80.24 324.18 81.18 324.23 83.24L325.55 141.52C325.561 141.91 325.493 142.298 325.351 142.662C325.209 143.026 324.996 143.357 324.724 143.637C324.451 143.916 324.126 144.139 323.766 144.29C323.407 144.442 323.02 144.52 322.63 144.52H322.43C321.663 144.523 320.928 144.825 320.382 145.364C319.836 145.902 319.523 146.633 319.51 147.4L319.14 173.95C319.132 174.632 319.26 175.308 319.517 175.939C319.774 176.571 320.154 177.145 320.636 177.627C321.117 178.11 321.69 178.491 322.321 178.749C322.952 179.007 323.628 179.137 324.31 179.13L333.75 179.01C334.428 179.002 335.098 178.86 335.72 178.591C336.342 178.322 336.905 177.931 337.375 177.443C337.845 176.954 338.213 176.377 338.457 175.745C338.702 175.112 338.819 174.438 338.8 173.76L338 147.25C337.976 146.477 337.647 145.745 337.085 145.215C336.523 144.684 335.773 144.398 335 144.42L334.06 144.44Z" stroke="black" stroke-opacity="0.2" stroke-width="0.953494" stroke-linecap="round" stroke-linejoin="round"/>
<path d="M326.63 84.42C326.63 84.0837 326.73 83.7551 326.917 83.4755C327.103 83.1959 327.369 82.978 327.679 82.8494C327.99 82.7207 328.332 82.687 328.662 82.7526C328.991 82.8182 329.294 82.9801 329.532 83.2179C329.77 83.4556 329.932 83.7586 329.997 84.0883C330.063 84.4181 330.029 84.7599 329.901 85.0705C329.772 85.3812 329.554 85.6467 329.274 85.8335C328.995 86.0203 328.666 86.12 328.33 86.12C327.879 86.12 327.447 85.9409 327.128 85.6221C326.809 85.3032 326.63 84.8708 326.63 84.42Z" stroke="#263238" stroke-width="0.953494" stroke-linecap="round" stroke-linejoin="round"/>
<path d="M326.63 84.42C326.63 84.0837 326.73 83.7551 326.917 83.4755C327.103 83.1959 327.369 82.978 327.679 82.8494C327.99 82.7207 328.332 82.687 328.662 82.7526C328.991 82.8182 329.294 82.9801 329.532 83.2179C329.77 83.4556 329.932 83.7586 329.997 84.0883C330.063 84.4181 330.029 84.7599 329.901 85.0705C329.772 85.3812 329.554 85.6467 329.274 85.8335C328.995 86.0203 328.666 86.12 328.33 86.12C327.879 86.12 327.447 85.9409 327.128 85.6221C326.809 85.3032 326.63 84.8708 326.63 84.42Z" stroke="black" stroke-opacity="0.2" stroke-width="0.953494" stroke-linecap="round" stroke-linejoin="round"/>
<path d="M322.24 171.65V156.86" stroke="#263238" stroke-width="0.953494" stroke-linecap="round" stroke-linejoin="round"/>
<path d="M322.24 171.65V156.86" stroke="black" stroke-opacity="0.2" stroke-width="0.953494" stroke-linecap="round" stroke-linejoin="round"/>
<path d="M325.07 171.65V156.86" stroke="#263238" stroke-width="0.953494" stroke-linecap="round" stroke-linejoin="round"/>
<path d="M325.07 171.65V156.86" stroke="black" stroke-opacity="0.2" stroke-width="0.953494" stroke-linecap="round" stroke-linejoin="round"/>
<path d="M328.31 171.41L328.27 156.87" stroke="#263238" stroke-width="0.953494" stroke-linecap="round" stroke-linejoin="round"/>
<path d="M328.31 171.41L328.27 156.87" stroke="black" stroke-opacity="0.2" stroke-width="0.953494" stroke-linecap="round" stroke-linejoin="round"/>
<path d="M331.76 171.6V156.81" stroke="#263238" stroke-width="0.953494" stroke-linecap="round" stroke-linejoin="round"/>
<path d="M331.76 171.6V156.81" stroke="black" stroke-opacity="0.2" stroke-width="0.953494" stroke-linecap="round" stroke-linejoin="round"/>
<path d="M335.41 171.56V156.77" stroke="#263238" stroke-width="0.953494" stroke-linecap="round" stroke-linejoin="round"/>
<path d="M335.41 171.56V156.77" stroke="black" stroke-opacity="0.2" stroke-width="0.953494" stroke-linecap="round" stroke-linejoin="round"/>
<path d="M394.25 85.33C394.244 84.9921 394.339 84.6601 394.523 84.3764C394.706 84.0927 394.97 83.8702 395.281 83.7372C395.591 83.6042 395.935 83.5668 396.267 83.6298C396.599 83.6927 396.904 83.8532 397.145 84.0908C397.385 84.3283 397.549 84.632 397.616 84.9633C397.683 85.2945 397.65 85.6381 397.52 85.9504C397.391 86.2626 397.172 86.5292 396.89 86.7161C396.609 86.9031 396.278 87.0019 395.94 87C395.496 86.9974 395.071 86.8213 394.755 86.5092C394.439 86.1971 394.258 85.7739 394.25 85.33Z" stroke="#263238" stroke-width="0.953494" stroke-linecap="round" stroke-linejoin="round"/>
<path d="M394.25 85.33C394.244 84.9921 394.339 84.6601 394.523 84.3764C394.706 84.0927 394.97 83.8702 395.281 83.7372C395.591 83.6042 395.935 83.5668 396.267 83.6298C396.599 83.6927 396.904 83.8532 397.145 84.0908C397.385 84.3283 397.549 84.632 397.616 84.9633C397.683 85.2945 397.65 85.6381 397.52 85.9504C397.391 86.2626 397.172 86.5292 396.89 86.7161C396.609 86.9031 396.278 87.0019 395.94 87C395.496 86.9974 395.071 86.8213 394.755 86.5092C394.439 86.1971 394.258 85.7739 394.25 85.33Z" stroke="black" stroke-opacity="0.2" stroke-width="0.953494" stroke-linecap="round" stroke-linejoin="round"/>
<path d="M396.28 148.11L399.85 84.58C399.877 84.0849 399.803 83.5895 399.633 83.124C399.462 82.6585 399.198 82.2326 398.858 81.8724C398.517 81.5121 398.107 81.225 397.651 81.0286C397.196 80.8322 396.706 80.7306 396.21 80.73H395.55C395.065 80.7299 394.584 80.8266 394.137 81.0144C393.689 81.2022 393.284 81.4773 392.944 81.8237C392.604 82.1701 392.337 82.5807 392.157 83.0317C391.978 83.4826 391.891 83.9648 391.9 84.45L392.7 122.23C392.88 130.897 393.067 139.587 393.26 148.3C393.269 148.676 393.183 149.048 393.007 149.38C392.832 149.713 392.575 149.995 392.26 150.2C389.838 151.889 388.072 154.361 387.26 157.2C386.116 161.022 385.873 165.058 386.55 168.99C387.28 173.21 390.21 177.82 394.79 178.45C399.37 179.08 402.53 175.09 403.7 171.18C405.014 167.041 405.245 162.634 404.37 158.38C403.863 156.441 402.957 154.629 401.71 153.06C400.585 151.835 399.197 150.881 397.65 150.27C397.222 150.101 396.859 149.801 396.613 149.413C396.367 149.025 396.25 148.569 396.28 148.11Z" stroke="#263238" stroke-width="0.953494" stroke-linecap="round" stroke-linejoin="round"/>
<path d="M396.28 148.11L399.85 84.58C399.877 84.0849 399.803 83.5895 399.633 83.124C399.462 82.6585 399.198 82.2326 398.858 81.8724C398.517 81.5121 398.107 81.225 397.651 81.0286C397.196 80.8322 396.706 80.7306 396.21 80.73H395.55C395.065 80.7299 394.584 80.8266 394.137 81.0144C393.689 81.2022 393.284 81.4773 392.944 81.8237C392.604 82.1701 392.337 82.5807 392.157 83.0317C391.978 83.4826 391.891 83.9648 391.9 84.45L392.7 122.23C392.88 130.897 393.067 139.587 393.26 148.3C393.269 148.676 393.183 149.048 393.007 149.38C392.832 149.713 392.575 149.995 392.26 150.2C389.838 151.889 388.072 154.361 387.26 157.2C386.116 161.022 385.873 165.058 386.55 168.99C387.28 173.21 390.21 177.82 394.79 178.45C399.37 179.08 402.53 175.09 403.7 171.18C405.014 167.041 405.245 162.634 404.37 158.38C403.863 156.441 402.957 154.629 401.71 153.06C400.585 151.835 399.197 150.881 397.65 150.27C397.222 150.101 396.859 149.801 396.613 149.413C396.367 149.025 396.25 148.569 396.28 148.11Z" stroke="black" stroke-opacity="0.2" stroke-width="0.953494" stroke-linecap="round" stroke-linejoin="round"/>
<path d="M389.16 168.01V159.52" stroke="#263238" stroke-width="0.953494" stroke-linecap="round" stroke-linejoin="round"/>
<path d="M389.16 168.01V159.52" stroke="black" stroke-opacity="0.2" stroke-width="0.953494" stroke-linecap="round" stroke-linejoin="round"/>
<path d="M401.28 168.01V159.52" stroke="#263238" stroke-width="0.953494" stroke-linecap="round" stroke-linejoin="round"/>
<path d="M401.28 168.01V159.52" stroke="black" stroke-opacity="0.2" stroke-width="0.953494" stroke-linecap="round" stroke-linejoin="round"/>
<path d="M392.77 169.97V157.36" stroke="#263238" stroke-width="0.953494" stroke-linecap="round" stroke-linejoin="round"/>
<path d="M392.77 169.97V157.36" stroke="black" stroke-opacity="0.2" stroke-width="0.953494" stroke-linecap="round" stroke-linejoin="round"/>
<path d="M398.51 169.97V157.36" stroke="#263238" stroke-width="0.953494" stroke-linecap="round" stroke-linejoin="round"/>
<path d="M398.51 169.97V157.36" stroke="black" stroke-opacity="0.2" stroke-width="0.953494" stroke-linecap="round" stroke-linejoin="round"/>
<path d="M395.57 174.08V155.42" stroke="#263238" stroke-width="0.953494" stroke-linecap="round" stroke-linejoin="round"/>
<path d="M395.57 174.08V155.42" stroke="black" stroke-opacity="0.2" stroke-width="0.953494" stroke-linecap="round" stroke-linejoin="round"/>
<path d="M361.93 86.77C362.869 86.77 363.63 86.0089 363.63 85.07C363.63 84.1311 362.869 83.37 361.93 83.37C360.991 83.37 360.23 84.1311 360.23 85.07C360.23 86.0089 360.991 86.77 361.93 86.77Z" stroke="#263238" stroke-width="0.953494" stroke-linecap="round" stroke-linejoin="round"/>
<path d="M361.93 86.77C362.869 86.77 363.63 86.0089 363.63 85.07C363.63 84.1311 362.869 83.37 361.93 83.37C360.991 83.37 360.23 84.1311 360.23 85.07C360.23 86.0089 360.991 86.77 361.93 86.77Z" stroke="black" stroke-opacity="0.2" stroke-width="0.953494" stroke-linecap="round" stroke-linejoin="round"/>
<path d="M364.25 141L366.92 83.78C366.936 83.2902 366.854 82.8022 366.677 82.3448C366.501 81.8875 366.235 81.4702 365.895 81.1177C365.554 80.7651 365.147 80.4845 364.696 80.2925C364.245 80.1006 363.76 80.0011 363.27 80H360.76C360.264 80.0006 359.774 80.1022 359.318 80.2986C358.863 80.495 358.453 80.7821 358.112 81.1424C357.772 81.5027 357.508 81.9285 357.337 82.3941C357.167 82.8596 357.093 83.355 357.12 83.85L360.23 141.46C360.26 141.853 360.184 142.246 360.007 142.599C359.831 142.951 359.562 143.249 359.23 143.46C356.23 145.35 347.91 151.52 347.71 162.22C347.46 175.31 362.25 181.13 370.71 176.28C379.01 171.54 384.99 151.95 365.5 143.15C365.095 142.964 364.758 142.658 364.534 142.273C364.311 141.888 364.211 141.443 364.25 141Z" stroke="#263238" stroke-width="0.953494" stroke-linecap="round" stroke-linejoin="round"/>
<path d="M364.25 141L366.92 83.78C366.936 83.2902 366.854 82.8022 366.677 82.3448C366.501 81.8875 366.235 81.4702 365.895 81.1177C365.554 80.7651 365.147 80.4845 364.696 80.2925C364.245 80.1006 363.76 80.0011 363.27 80H360.76C360.264 80.0006 359.774 80.1022 359.318 80.2986C358.863 80.495 358.453 80.7821 358.112 81.1424C357.772 81.5027 357.508 81.9285 357.337 82.3941C357.167 82.8596 357.093 83.355 357.12 83.85L360.23 141.46C360.26 141.853 360.184 142.246 360.007 142.599C359.831 142.951 359.562 143.249 359.23 143.46C356.23 145.35 347.91 151.52 347.71 162.22C347.46 175.31 362.25 181.13 370.71 176.28C379.01 171.54 384.99 151.95 365.5 143.15C365.095 142.964 364.758 142.658 364.534 142.273C364.311 141.888 364.211 141.443 364.25 141Z" stroke="black" stroke-opacity="0.2" stroke-width="0.953494" stroke-linecap="round" stroke-linejoin="round"/>
<path d="M363.49 172.56C363.998 172.56 364.41 172.148 364.41 171.64C364.41 171.132 363.998 170.72 363.49 170.72C362.982 170.72 362.57 171.132 362.57 171.64C362.57 172.148 362.982 172.56 363.49 172.56Z" stroke="#263238" stroke-width="0.953494" stroke-linecap="round" stroke-linejoin="round"/>
<path d="M363.49 172.56C363.998 172.56 364.41 172.148 364.41 171.64C364.41 171.132 363.998 170.72 363.49 170.72C362.982 170.72 362.57 171.132 362.57 171.64C362.57 172.148 362.982 172.56 363.49 172.56Z" stroke="black" stroke-opacity="0.2" stroke-width="0.953494" stroke-linecap="round" stroke-linejoin="round"/>
<path d="M356.67 169.33C356.657 169.2 356.67 169.07 356.711 168.946C356.751 168.822 356.817 168.708 356.904 168.611C356.991 168.514 357.098 168.437 357.217 168.384C357.336 168.331 357.465 168.304 357.595 168.304C357.725 168.304 357.854 168.331 357.973 168.384C358.092 168.437 358.199 168.514 358.286 168.611C358.373 168.708 358.439 168.822 358.479 168.946C358.52 169.07 358.534 169.2 358.52 169.33C358.496 169.559 358.388 169.771 358.218 169.925C358.047 170.078 357.825 170.164 357.595 170.164C357.365 170.164 357.143 170.078 356.972 169.925C356.802 169.771 356.694 169.559 356.67 169.33Z" stroke="#263238" stroke-width="0.953494" stroke-linecap="round" stroke-linejoin="round"/>
<path d="M356.67 169.33C356.657 169.2 356.67 169.07 356.711 168.946C356.751 168.822 356.817 168.708 356.904 168.611C356.991 168.514 357.098 168.437 357.217 168.384C357.336 168.331 357.465 168.304 357.595 168.304C357.725 168.304 357.854 168.331 357.973 168.384C358.092 168.437 358.199 168.514 358.286 168.611C358.373 168.708 358.439 168.822 358.479 168.946C358.52 169.07 358.534 169.2 358.52 169.33C358.496 169.559 358.388 169.771 358.218 169.925C358.047 170.078 357.825 170.164 357.595 170.164C357.365 170.164 357.143 170.078 356.972 169.925C356.802 169.771 356.694 169.559 356.67 169.33Z" stroke="black" stroke-opacity="0.2" stroke-width="0.953494" stroke-linecap="round" stroke-linejoin="round"/>
<path d="M369.49 170.25C369.998 170.25 370.41 169.838 370.41 169.33C370.41 168.822 369.998 168.41 369.49 168.41C368.982 168.41 368.57 168.822 368.57 169.33C368.57 169.838 368.982 170.25 369.49 170.25Z" stroke="#263238" stroke-width="0.953494" stroke-linecap="round" stroke-linejoin="round"/>
<path d="M369.49 170.25C369.998 170.25 370.41 169.838 370.41 169.33C370.41 168.822 369.998 168.41 369.49 168.41C368.982 168.41 368.57 168.822 368.57 169.33C368.57 169.838 368.982 170.25 369.49 170.25Z" stroke="black" stroke-opacity="0.2" stroke-width="0.953494" stroke-linecap="round" stroke-linejoin="round"/>
<path d="M363.49 166.55C363.998 166.55 364.41 166.138 364.41 165.63C364.41 165.122 363.998 164.71 363.49 164.71C362.982 164.71 362.57 165.122 362.57 165.63C362.57 166.138 362.982 166.55 363.49 166.55Z" stroke="#263238" stroke-width="0.953494" stroke-linecap="round" stroke-linejoin="round"/>
<path d="M363.49 166.55C363.998 166.55 364.41 166.138 364.41 165.63C364.41 165.122 363.998 164.71 363.49 164.71C362.982 164.71 362.57 165.122 362.57 165.63C362.57 166.138 362.982 166.55 363.49 166.55Z" stroke="black" stroke-opacity="0.2" stroke-width="0.953494" stroke-linecap="round" stroke-linejoin="round"/>
<path d="M356.67 163.32C356.668 163.136 356.721 162.955 356.822 162.801C356.923 162.646 357.067 162.526 357.237 162.454C357.407 162.382 357.594 162.362 357.775 162.397C357.956 162.431 358.123 162.519 358.254 162.649C358.385 162.779 358.475 162.944 358.511 163.125C358.548 163.306 358.53 163.493 358.46 163.664C358.39 163.834 358.271 163.98 358.118 164.083C357.965 164.185 357.784 164.24 357.6 164.24C357.355 164.24 357.12 164.143 356.946 163.971C356.772 163.799 356.673 163.565 356.67 163.32Z" stroke="#263238" stroke-width="0.953494" stroke-linecap="round" stroke-linejoin="round"/>
<path d="M356.67 163.32C356.668 163.136 356.721 162.955 356.822 162.801C356.923 162.646 357.067 162.526 357.237 162.454C357.407 162.382 357.594 162.362 357.775 162.397C357.956 162.431 358.123 162.519 358.254 162.649C358.385 162.779 358.475 162.944 358.511 163.125C358.548 163.306 358.53 163.493 358.46 163.664C358.39 163.834 358.271 163.98 358.118 164.083C357.965 164.185 357.784 164.24 357.6 164.24C357.355 164.24 357.12 164.143 356.946 163.971C356.772 163.799 356.673 163.565 356.67 163.32Z" stroke="black" stroke-opacity="0.2" stroke-width="0.953494" stroke-linecap="round" stroke-linejoin="round"/>
<path d="M369.49 164.24C369.998 164.24 370.41 163.828 370.41 163.32C370.41 162.812 369.998 162.4 369.49 162.4C368.982 162.4 368.57 162.812 368.57 163.32C368.57 163.828 368.982 164.24 369.49 164.24Z" stroke="#263238" stroke-width="0.953494" stroke-linecap="round" stroke-linejoin="round"/>
<path d="M369.49 164.24C369.998 164.24 370.41 163.828 370.41 163.32C370.41 162.812 369.998 162.4 369.49 162.4C368.982 162.4 368.57 162.812 368.57 163.32C368.57 163.828 368.982 164.24 369.49 164.24Z" stroke="black" stroke-opacity="0.2" stroke-width="0.953494" stroke-linecap="round" stroke-linejoin="round"/>
<path d="M363.49 160.55C363.998 160.55 364.41 160.138 364.41 159.63C364.41 159.122 363.998 158.71 363.49 158.71C362.982 158.71 362.57 159.122 362.57 159.63C362.57 160.138 362.982 160.55 363.49 160.55Z" stroke="#263238" stroke-width="0.953494" stroke-linecap="round" stroke-linejoin="round"/>
<path d="M363.49 160.55C363.998 160.55 364.41 160.138 364.41 159.63C364.41 159.122 363.998 158.71 363.49 158.71C362.982 158.71 362.57 159.122 362.57 159.63C362.57 160.138 362.982 160.55 363.49 160.55Z" stroke="black" stroke-opacity="0.2" stroke-width="0.953494" stroke-linecap="round" stroke-linejoin="round"/>
<path d="M356.67 157.32C356.657 157.19 356.67 157.06 356.711 156.936C356.751 156.812 356.817 156.698 356.904 156.601C356.991 156.504 357.098 156.427 357.217 156.374C357.336 156.321 357.465 156.294 357.595 156.294C357.725 156.294 357.854 156.321 357.973 156.374C358.092 156.427 358.199 156.504 358.286 156.601C358.373 156.698 358.439 156.812 358.479 156.936C358.52 157.06 358.534 157.19 358.52 157.32C358.496 157.549 358.388 157.761 358.218 157.915C358.047 158.069 357.825 158.154 357.595 158.154C357.365 158.154 357.143 158.069 356.972 157.915C356.802 157.761 356.694 157.549 356.67 157.32Z" stroke="#263238" stroke-width="0.953494" stroke-linecap="round" stroke-linejoin="round"/>
<path d="M356.67 157.32C356.657 157.19 356.67 157.06 356.711 156.936C356.751 156.812 356.817 156.698 356.904 156.601C356.991 156.504 357.098 156.427 357.217 156.374C357.336 156.321 357.465 156.294 357.595 156.294C357.725 156.294 357.854 156.321 357.973 156.374C358.092 156.427 358.199 156.504 358.286 156.601C358.373 156.698 358.439 156.812 358.479 156.936C358.52 157.06 358.534 157.19 358.52 157.32C358.496 157.549 358.388 157.761 358.218 157.915C358.047 158.069 357.825 158.154 357.595 158.154C357.365 158.154 357.143 158.069 356.972 157.915C356.802 157.761 356.694 157.549 356.67 157.32Z" stroke="black" stroke-opacity="0.2" stroke-width="0.953494" stroke-linecap="round" stroke-linejoin="round"/>
<path d="M369.49 158.24C369.998 158.24 370.41 157.828 370.41 157.32C370.41 156.812 369.998 156.4 369.49 156.4C368.982 156.4 368.57 156.812 368.57 157.32C368.57 157.828 368.982 158.24 369.49 158.24Z" stroke="#263238" stroke-width="0.953494" stroke-linecap="round" stroke-linejoin="round"/>
<path d="M369.49 158.24C369.998 158.24 370.41 157.828 370.41 157.32C370.41 156.812 369.998 156.4 369.49 156.4C368.982 156.4 368.57 156.812 368.57 157.32C368.57 157.828 368.982 158.24 369.49 158.24Z" stroke="black" stroke-opacity="0.2" stroke-width="0.953494" stroke-linecap="round" stroke-linejoin="round"/>
<path d="M363.49 150.38C363.998 150.38 364.41 149.968 364.41 149.46C364.41 148.952 363.998 148.54 363.49 148.54C362.982 148.54 362.57 148.952 362.57 149.46C362.57 149.968 362.982 150.38 363.49 150.38Z" stroke="#263238" stroke-width="0.953494" stroke-linecap="round" stroke-linejoin="round"/>
<path d="M363.49 150.38C363.998 150.38 364.41 149.968 364.41 149.46C364.41 148.952 363.998 148.54 363.49 148.54C362.982 148.54 362.57 148.952 362.57 149.46C362.57 149.968 362.982 150.38 363.49 150.38Z" stroke="black" stroke-opacity="0.2" stroke-width="0.953494" stroke-linecap="round" stroke-linejoin="round"/>
<path d="M356.67 151.77C356.657 151.9 356.67 152.03 356.711 152.154C356.751 152.278 356.817 152.392 356.904 152.489C356.991 152.586 357.098 152.663 357.217 152.716C357.336 152.769 357.465 152.796 357.595 152.796C357.725 152.796 357.854 152.769 357.973 152.716C358.092 152.663 358.199 152.586 358.286 152.489C358.373 152.392 358.439 152.278 358.479 152.154C358.52 152.03 358.534 151.9 358.52 151.77C358.496 151.541 358.388 151.329 358.218 151.175C358.047 151.021 357.825 150.936 357.595 150.936C357.365 150.936 357.143 151.021 356.972 151.175C356.802 151.329 356.694 151.541 356.67 151.77Z" stroke="#263238" stroke-width="0.953494" stroke-linecap="round" stroke-linejoin="round"/>
<path d="M356.67 151.77C356.657 151.9 356.67 152.03 356.711 152.154C356.751 152.278 356.817 152.392 356.904 152.489C356.991 152.586 357.098 152.663 357.217 152.716C357.336 152.769 357.465 152.796 357.595 152.796C357.725 152.796 357.854 152.769 357.973 152.716C358.092 152.663 358.199 152.586 358.286 152.489C358.373 152.392 358.439 152.278 358.479 152.154C358.52 152.03 358.534 151.9 358.52 151.77C358.496 151.541 358.388 151.329 358.218 151.175C358.047 151.021 357.825 150.936 357.595 150.936C357.365 150.936 357.143 151.021 356.972 151.175C356.802 151.329 356.694 151.541 356.67 151.77Z" stroke="black" stroke-opacity="0.2" stroke-width="0.953494" stroke-linecap="round" stroke-linejoin="round"/>
<path d="M369.49 152.69C369.998 152.69 370.41 152.278 370.41 151.77C370.41 151.262 369.998 150.85 369.49 150.85C368.982 150.85 368.57 151.262 368.57 151.77C368.57 152.278 368.982 152.69 369.49 152.69Z" stroke="#263238" stroke-width="0.953494" stroke-linecap="round" stroke-linejoin="round"/>
<path d="M369.49 152.69C369.998 152.69 370.41 152.278 370.41 151.77C370.41 151.262 369.998 150.85 369.49 150.85C368.982 150.85 368.57 151.262 368.57 151.77C368.57 152.278 368.982 152.69 369.49 152.69Z" stroke="black" stroke-opacity="0.2" stroke-width="0.953494" stroke-linecap="round" stroke-linejoin="round"/>
</svg>
